<svg width="20" height="20" viewBox="0 0 20 20" fill="none" xmlns="http://www.w3.org/2000/svg">
<path fill-rule="evenodd" clip-rule="evenodd" d="M16.5632 18H3.43816C2.73216 18 2.21016 17.303 2.47716 16.662C3.71316 13.698 6.61716 12 10.0002 12C13.3842 12 16.2882 13.698 17.5242 16.662C17.7912 17.303 17.2692 18 16.5632 18ZM5.91716 5.99998C5.91716 3.79398 7.74916 1.99998 10.0002 1.99998C12.2522 1.99998 14.0832 3.79398 14.0832 5.99998C14.0832 8.20599 12.2522 9.99998 10.0002 9.99998C7.74916 9.99998 5.91716 8.20599 5.91716 5.99998ZM19.9562 17.636C19.2142 14.277 16.8922 11.798 13.8372 10.673C15.4562 9.39596 16.4002 7.33093 16.0532 5.06993C15.6512 2.44693 13.4232 0.347977 10.7352 0.0419769C7.02316 -0.381023 3.87516 2.44898 3.87516 5.99998C3.87516 7.88998 4.76916 9.57396 6.16416 10.673C3.10716 11.798 0.787157 14.277 0.0441569 17.636C-0.225843 18.857 0.779159 20 2.05416 20H17.9462C19.2222 20 20.2262 18.857 19.9562 17.636Z" fill="black" fill-opacity="0.69"/>
</svg>
