<svg width="22" height="21" viewBox="0 0 22 21" fill="none" xmlns="http://www.w3.org/2000/svg">
<path d="M21.25 10.5C21.25 15.8523 16.6942 20.25 11 20.25C5.30582 20.25 0.75 15.8523 0.75 10.5C0.75 5.14772 5.30582 0.75 11 0.75C16.6942 0.75 21.25 5.14772 21.25 10.5Z" stroke="#485157" stroke-width="1.5"/>
<path d="M5.5 9C5.5 8.17157 6.17157 7.5 7 7.5H11C11.8284 7.5 12.5 8.17157 12.5 9V19.3887C12.5 19.6475 12.3972 19.8957 12.2142 20.0787C11.9801 20.3128 11.6434 20.4122 11.3197 20.3429L6.68571 19.3499C5.9941 19.2017 5.5 18.5905 5.5 17.8832V9Z" stroke="#485157"/>
<path d="M12.5 11.5C12.5 10.9477 12.9477 10.5 13.5 10.5H16.5C17.0523 10.5 17.5 10.9477 17.5 11.5V17.8543C17.5 18.3053 17.1982 18.7004 16.7631 18.8191L12.5 19.9817V11.5Z" stroke="#485157"/>
<line x1="7.5" y1="10.5" x2="10.5" y2="10.5" stroke="#485157" stroke-linecap="round" stroke-linejoin="round"/>
<line x1="7.5" y1="12.5" x2="10.5" y2="12.5" stroke="#485157" stroke-linecap="round" stroke-linejoin="round"/>
</svg>
