<svg width="200" height="200" viewBox="0 0 200 200" fill="none" xmlns="http://www.w3.org/2000/svg">
<path d="M153.125 0H46.875C20.9867 0 0 20.9867 0 46.875V153.125C0 179.013 20.9867 200 46.875 200H153.125C179.013 200 200 179.013 200 153.125V46.875C200 20.9867 179.013 0 153.125 0Z" fill="#F0DB4F"/>
<path d="M52.5877 167.134L67.8924 157.872C70.8455 163.107 73.5314 167.537 79.9744 167.537C86.1502 167.537 90.0439 165.121 90.0439 155.724V91.8195H108.839V155.99C108.839 175.456 97.4283 184.317 80.7799 184.317C65.7447 184.317 57.0174 176.53 52.5869 167.133M119.048 165.12L134.351 156.26C138.38 162.839 143.616 167.672 152.878 167.672C160.667 167.672 165.632 163.778 165.632 158.408C165.632 151.964 160.531 149.681 151.938 145.923L147.241 143.909C133.681 138.137 124.685 130.887 124.685 115.582C124.685 101.485 135.426 90.7445 152.208 90.7445C164.156 90.7445 172.749 94.907 178.924 105.781L164.29 115.179C161.067 109.406 157.578 107.124 152.208 107.124C146.703 107.124 143.213 110.615 143.213 115.179C143.213 120.817 146.703 123.1 154.758 126.591L159.456 128.605C175.432 135.452 184.428 142.432 184.428 158.139C184.428 175.056 171.137 184.319 153.281 184.319C135.829 184.319 124.552 175.995 119.048 165.12Z" fill="#323330"/>
</svg>
