<svg width="198" height="47" viewBox="0 0 198 47" fill="none" xmlns="http://www.w3.org/2000/svg">
<path d="M190.045 41.9702C191.105 42.2808 192.216 41.6732 192.527 40.6132L197.587 23.3391C197.898 22.2791 197.29 21.1681 196.23 20.8575C195.17 20.547 194.059 21.1546 193.749 22.2146L189.25 37.5693L173.896 33.0711C172.836 32.7605 171.725 33.3681 171.414 34.4281C171.104 35.4881 171.711 36.5992 172.771 36.9097L190.045 41.9702ZM0.333102 43.4971C-0.2777 44.4174 -0.0267649 45.6586 0.893565 46.2694C1.81389 46.8802 3.05511 46.6293 3.66591 45.709L0.333102 43.4971ZM190.112 35.432C189.487 34.5208 188.243 34.2883 187.331 34.9127C186.42 35.537 186.188 36.7818 186.812 37.693L190.112 35.432ZM181.821 31.6393C182.591 32.4313 183.858 32.449 184.65 31.679C185.442 30.909 185.459 29.6428 184.689 28.8509L181.821 31.6393ZM178.349 23.1899C177.479 22.5097 176.222 22.6639 175.542 23.5342C174.862 24.4046 175.016 25.6615 175.886 26.3416L178.349 23.1899ZM169.347 21.7995C170.286 22.3812 171.519 22.0915 172.1 21.1526C172.682 20.2136 172.392 18.9808 171.453 18.3991L169.347 21.7995ZM164.118 14.3122C163.13 13.8173 161.929 14.2166 161.434 15.2041C160.939 16.1916 161.338 17.3933 162.326 17.8882L164.118 14.3122ZM154.985 14.5621C156.008 14.9802 157.175 14.4904 157.593 13.468C158.011 12.4456 157.522 11.2779 156.499 10.8598L154.985 14.5621ZM148.686 7.97018C147.638 7.62109 146.505 8.18763 146.156 9.23558C145.807 10.2835 146.374 11.4161 147.422 11.7652L148.686 7.97018ZM139.672 9.44322C140.739 9.72894 141.836 9.0956 142.121 8.02862C142.407 6.96164 141.774 5.86507 140.707 5.57935L139.672 9.44322ZM132.608 3.65111C131.527 3.42466 130.467 4.11748 130.24 5.19859C130.014 6.2797 130.707 7.33969 131.788 7.56615L132.608 3.65111ZM123.807 6.11126C124.898 6.28134 125.921 5.53447 126.091 4.44307C126.261 3.35168 125.514 2.32905 124.423 2.15897L123.807 6.11126ZM116.189 1.08587C115.091 0.970264 114.106 1.76706 113.991 2.86557C113.875 3.96407 114.672 4.9483 115.77 5.0639L116.189 1.08587ZM107.688 4.41211C108.79 4.47414 109.735 3.63041 109.797 2.52758C109.859 1.42475 109.015 0.48045 107.912 0.418421L107.688 4.41211ZM99.6109 0.152842C98.5063 0.144279 97.604 1.03274 97.5954 2.13728C97.5869 3.24181 98.4753 4.14416 99.5799 4.15272L99.6109 0.152842ZM91.4693 4.2878C92.5729 4.2423 93.4307 3.31074 93.3852 2.2071C93.3397 1.10347 92.4081 0.24569 91.3045 0.291195L91.4693 4.2878ZM83.0127 0.840778C81.9127 0.941622 81.1028 1.91506 81.2036 3.01502C81.3045 4.11498 82.2779 4.92492 83.3779 4.82407L83.0127 0.840778ZM75.3292 5.77271C76.4224 5.61463 77.1804 4.60026 77.0224 3.50706C76.8643 2.41386 75.8499 1.6558 74.7567 1.81389L75.3292 5.77271ZM66.5607 3.22765C65.4778 3.4455 64.7766 4.49994 64.9944 5.58282C65.2123 6.66569 66.2667 7.36694 67.3496 7.14909L66.5607 3.22765ZM59.4694 8.97253C60.5377 8.69186 61.1762 7.59828 60.8955 6.52997C60.6148 5.46166 59.5213 4.82315 58.4529 5.10383L59.4694 8.97253ZM50.4595 7.47102C49.4109 7.81815 48.8423 8.94962 49.1894 9.99823C49.5365 11.0468 50.668 11.6155 51.7166 11.2684L50.4595 7.47102ZM44.1406 14.0611C45.1633 13.6436 45.6538 12.4761 45.2363 11.4535C44.8188 10.4309 43.6514 9.94034 42.6287 10.3578L44.1406 14.0611ZM35.0129 13.7957C34.0239 14.2875 33.6208 15.488 34.1127 16.477C34.6045 17.4661 35.805 17.8691 36.794 17.3773L35.0129 13.7957ZM29.7387 21.2421C30.685 20.6723 30.9902 19.4433 30.4204 18.4971C29.8506 17.5508 28.6216 17.2456 27.6753 17.8154L29.7387 21.2421ZM20.6911 22.4433C19.7983 23.0937 19.6018 24.3447 20.2521 25.2375C20.9025 26.1303 22.1535 26.3268 23.0463 25.6765L20.6911 22.4433ZM16.796 30.6928C17.6234 29.9609 17.7008 28.697 16.969 27.8696C16.2372 27.0423 14.9732 26.9648 14.1459 27.6967L16.796 30.6928ZM8.13607 33.5735C7.38669 34.385 7.43704 35.6504 8.24851 36.3997C9.06 37.1491 10.3253 37.0988 11.0747 36.2873L8.13607 33.5735ZM5.97024 42.4328C6.62987 41.5469 6.44635 40.2939 5.56036 39.6343C4.67439 38.9747 3.42141 39.1582 2.76179 40.0441L5.97024 42.4328ZM192.362 39.0913C191.68 37.8446 190.929 36.6246 190.112 35.432L186.812 37.693C187.557 38.7796 188.238 39.8857 188.853 41.0105L192.362 39.0913ZM184.689 28.8509C182.763 26.8693 180.642 24.9812 178.349 23.1899L175.886 26.3416C178.048 28.0309 180.032 29.7988 181.821 31.6393L184.689 28.8509ZM171.453 18.3991C169.127 16.9576 166.676 15.5944 164.118 14.3122L162.326 17.8882C164.784 19.1202 167.129 20.4252 169.347 21.7995L171.453 18.3991ZM156.499 10.8598C153.972 9.82607 151.363 8.86213 148.686 7.97018L147.422 11.7652C150.018 12.6302 152.543 13.5635 154.985 14.5621L156.499 10.8598ZM140.707 5.57935C138.057 4.86981 135.354 4.22639 132.608 3.65111L131.788 7.56615C134.464 8.12671 137.095 8.75316 139.672 9.44322L140.707 5.57935ZM124.423 2.15897C121.708 1.73584 118.96 1.37752 116.189 1.08587L115.77 5.0639C118.476 5.34867 121.158 5.69844 123.807 6.11126L124.423 2.15897ZM107.912 0.418421C105.158 0.263506 102.388 0.174373 99.6109 0.152842L99.5799 4.15272C102.292 4.17375 104.997 4.2608 107.688 4.41211L107.912 0.418421ZM91.3045 0.291195C88.5381 0.405258 85.7716 0.58784 83.0127 0.840778L83.3779 4.82407C86.0691 4.57735 88.7687 4.39915 91.4693 4.2878L91.3045 0.291195ZM74.7567 1.81389C72.007 2.21153 69.2724 2.68214 66.5607 3.22765L67.3496 7.14909C69.9877 6.61839 72.6501 6.16014 75.3292 5.77271L74.7567 1.81389ZM58.4529 5.10383C55.7543 5.81284 53.087 6.60121 50.4595 7.47102L51.7166 11.2684C54.2621 10.4257 56.8489 9.66099 59.4694 8.97253L58.4529 5.10383ZM42.6287 10.3578C40.0373 11.4158 37.4957 12.561 35.0129 13.7957L36.794 17.3773C39.1853 16.1881 41.637 15.0832 44.1406 14.0611L42.6287 10.3578ZM27.6753 17.8154C25.2736 19.2616 22.9423 20.8034 20.6911 22.4433L23.0463 25.6765C25.1997 24.1078 27.4334 22.6303 29.7387 21.2421L27.6753 17.8154ZM14.1459 27.6967C12.0475 29.5527 10.0409 31.5109 8.13607 33.5735L11.0747 36.2873C12.8856 34.3264 14.7956 32.4622 16.796 30.6928L14.1459 27.6967ZM2.76179 40.0441C1.92428 41.1691 1.11431 42.32 0.333102 43.4971L3.66591 45.709C4.40697 44.5923 5.17544 43.5004 5.97024 42.4328L2.76179 40.0441Z" fill="#F99B2A"/>
</svg>
