<svg width="18" height="17" viewBox="0 0 18 17" fill="none" xmlns="http://www.w3.org/2000/svg">
<path d="M17.2487 11.7118L15.6415 10.1939C15.1623 9.74499 14.5157 9.49192 13.8408 9.48921C13.166 9.4865 12.517 9.73436 12.0339 10.1794C11.7761 10.4242 11.436 10.5766 11.0721 10.6102C10.7083 10.6438 10.3433 10.5566 10.0402 10.3636C8.84366 9.60941 7.81575 8.64047 7.0149 7.51187C6.81411 7.22236 6.72512 6.87634 6.76291 6.5321C6.8007 6.18785 6.96297 5.86644 7.22238 5.62199C7.68928 5.16527 7.94834 4.55408 7.94411 3.91923C7.93987 3.28438 7.67269 2.67632 7.19973 2.22518L5.59248 0.70721C5.11129 0.254307 4.45964 0 3.7803 0C3.10096 0 2.44932 0.254307 1.96813 0.70721L1.50568 1.14466C-0.9052 3.42162 -0.72475 8.20876 4.29134 12.9435C7.31589 15.8007 10.3602 16.9971 12.8288 16.9971C13.5554 17.02 14.2797 16.906 14.9592 16.6619C15.6388 16.4177 16.2601 16.0483 16.787 15.5751L17.2502 15.1376C17.7306 14.6829 18.0003 14.0668 18 13.4244C17.9997 12.7821 17.7295 12.1661 17.2487 11.7118ZM16.2157 14.162L15.7525 14.5994C13.853 16.3934 9.66029 16.0656 5.3229 11.9685C0.985513 7.87135 0.637761 3.90875 2.53724 2.11479L2.99677 1.67802C3.20367 1.48332 3.48384 1.374 3.77592 1.374C4.068 1.374 4.34817 1.48332 4.55507 1.67802L6.16232 3.196C6.36547 3.38882 6.48078 3.64899 6.48364 3.92099C6.48651 4.19298 6.37671 4.45527 6.17767 4.65187C5.684 5.12108 5.37606 5.73627 5.30544 6.39437C5.23481 7.05246 5.40579 7.7135 5.78973 8.26672C6.69969 9.55279 7.86984 10.6563 9.2329 11.5138C9.81691 11.8765 10.515 12.0389 11.2105 11.974C11.9061 11.909 12.557 11.6207 13.0545 11.1571C13.2623 10.9669 13.5408 10.8612 13.8301 10.8629C14.1195 10.8646 14.3966 10.9734 14.6019 11.166L16.2091 12.684C16.3127 12.7804 16.3951 12.8953 16.4515 13.0219C16.5079 13.1485 16.5373 13.2843 16.5379 13.4217C16.5385 13.5591 16.5104 13.6952 16.4551 13.8222C16.3998 13.9493 16.3184 14.0647 16.2157 14.162Z" fill="black" fill-opacity="0.73"/>
</svg>
