<svg width="17" height="19" viewBox="0 0 17 19" fill="none" xmlns="http://www.w3.org/2000/svg">
<path d="M3.44956 0.341352L13.4533 6.059L10.6074 8.87515L1.63854 0.085338C1.81102 0.085338 2.06973 0 2.24221 0C2.67341 0 3.1046 0.085338 3.44956 0.341352ZM0 16.5556V2.21879C0 1.53608 0.344956 0.938718 0.862389 0.512028L9.91748 9.47252L0.948628 18.3477C0.344956 17.921 0 17.2383 0 16.5556ZM3.44956 18.5183C2.93212 18.7744 2.32845 18.8597 1.81102 18.7744L10.6074 10.1552L13.367 12.886L3.44956 18.5183ZM15.9542 11.35L14.1432 12.374L11.1248 9.47252L14.1432 6.48569L15.868 7.50974C16.5579 7.93643 16.9891 8.61914 16.9891 9.47252C17.0753 10.1552 16.6441 10.9233 15.9542 11.35Z" fill="#FC7615"/>
</svg>
