<svg width="20" height="20" viewBox="0 0 20 20" fill="none" xmlns="http://www.w3.org/2000/svg">
<path d="M19.1652 13.7785L17.3794 11.9927C16.8471 11.4646 16.1285 11.1669 15.3787 11.1637C14.6289 11.1605 13.9078 11.4521 13.371 11.9756C13.0846 12.2637 12.7067 12.4429 12.3024 12.4825C11.8981 12.522 11.4926 12.4194 11.1558 12.1924C9.82629 11.3051 8.68417 10.1652 7.79433 8.83742C7.57123 8.49682 7.47235 8.08974 7.51434 7.68475C7.55633 7.27976 7.73663 6.90163 8.02487 6.61405C8.54365 6.07673 8.83149 5.35769 8.82679 4.61082C8.82208 3.86394 8.52521 3.14858 7.9997 2.61784L6.21387 0.832005C5.67921 0.299183 4.95516 0 4.20034 0C3.44552 0 2.72146 0.299183 2.18681 0.832005L1.67297 1.34665C-1.00578 4.0254 -0.805278 9.65728 4.76815 15.2275C8.12877 18.5889 11.5113 19.9965 14.2542 19.9965C15.0616 20.0233 15.8663 19.8893 16.6214 19.602C17.3764 19.3148 18.0668 18.8802 18.6522 18.3234L19.1669 17.8088C19.7006 17.2739 20.0003 16.549 20 15.7933C19.9997 15.0376 19.6995 14.313 19.1652 13.7785ZM18.0174 16.661L17.5028 17.1756C15.3922 19.2862 10.7337 18.9006 5.91433 14.0805C1.09501 9.26033 0.708624 4.59849 2.81916 2.48796L3.32974 1.97413C3.55964 1.74507 3.87094 1.61645 4.19547 1.61645C4.52 1.61645 4.8313 1.74507 5.06119 1.97413L6.84703 3.75996C7.07274 3.98681 7.20086 4.29289 7.20405 4.61288C7.20723 4.93288 7.08523 5.24145 6.86407 5.47274C6.31556 6.02475 5.9734 6.74849 5.89493 7.52272C5.81646 8.29694 6.00644 9.07462 6.43304 9.72546C7.4441 11.2385 8.74427 12.5367 10.2588 13.5455C10.9077 13.9722 11.6833 14.1633 12.4561 14.0869C13.229 14.0105 13.9522 13.6713 14.505 13.1259C14.7359 12.9021 15.0453 12.7778 15.3668 12.7798C15.6883 12.7818 15.9962 12.9098 16.2243 13.1364L18.0101 14.9222C18.1252 15.0357 18.2167 15.1707 18.2794 15.3197C18.3421 15.4686 18.3748 15.6285 18.3754 15.7901C18.3761 15.9517 18.3448 16.1118 18.2834 16.2613C18.222 16.4108 18.1316 16.5466 18.0174 16.661Z" fill="#474747"/>
</svg>
