<svg width="28" height="28" viewBox="0 0 28 28" fill="none" xmlns="http://www.w3.org/2000/svg">
<path d="M23.3714 23.3275H4.62891C3.64299 23.3263 2.69778 22.9342 2.00063 22.237C1.30348 21.5399 0.911314 20.5947 0.910156 19.6087V8.39124C0.911314 7.40532 1.30348 6.46011 2.00063 5.76296C2.69778 5.06581 3.64299 4.67364 4.62891 4.67249H23.3714C24.3573 4.67364 25.3025 5.06581 25.9997 5.76296C26.6968 6.46011 27.089 7.40532 27.0902 8.39124V19.6087C27.089 20.5947 26.6968 21.5399 25.9997 22.237C25.3025 22.9342 24.3573 23.3263 23.3714 23.3275ZM4.62891 5.98499C3.99073 5.98499 3.37869 6.2385 2.92743 6.68976C2.47617 7.14102 2.22266 7.75306 2.22266 8.39124V19.6087C2.22266 20.2469 2.47617 20.859 2.92743 21.3102C3.37869 21.7615 3.99073 22.015 4.62891 22.015H23.3714C24.0096 22.015 24.6216 21.7615 25.0729 21.3102C25.5241 20.859 25.7777 20.2469 25.7777 19.6087V8.39124C25.7777 7.75306 25.5241 7.14102 25.0729 6.68976C24.6216 6.2385 24.0096 5.98499 23.3714 5.98499H4.62891Z" fill="#333333"/>
<path d="M14 16.66C13.1904 16.6613 12.4025 16.3986 11.7556 15.9119L1.54 8.18563C1.46782 8.13497 1.40659 8.07029 1.35997 7.99544C1.31335 7.92059 1.28229 7.83712 1.26864 7.75C1.255 7.66288 1.25906 7.5739 1.28057 7.48839C1.30208 7.40287 1.3406 7.32257 1.39384 7.25227C1.44707 7.18197 1.51393 7.12313 1.59042 7.07925C1.6669 7.03536 1.75145 7.00735 1.83901 6.99687C1.92656 6.98639 2.01533 6.99366 2.10001 7.01826C2.18469 7.04285 2.26355 7.08425 2.33187 7.14L12.5475 14.875C12.967 15.1882 13.4765 15.3574 14 15.3574C14.5235 15.3574 15.033 15.1882 15.4525 14.875L25.6681 7.14C25.7364 7.08425 25.8153 7.04285 25.9 7.01826C25.9847 6.99366 26.0734 6.98639 26.161 6.99687C26.2485 7.00735 26.3331 7.03536 26.4096 7.07925C26.4861 7.12313 26.5529 7.18197 26.6062 7.25227C26.6594 7.32257 26.6979 7.40287 26.7194 7.48839C26.7409 7.5739 26.745 7.66288 26.7314 7.75C26.7177 7.83712 26.6867 7.92059 26.64 7.99544C26.5934 8.07029 26.5322 8.13497 26.46 8.18563L16.2444 15.9119C15.5975 16.3986 14.8096 16.6613 14 16.66Z" fill="#333333"/>
<path d="M1.82421 21.4987C1.69111 21.4989 1.56109 21.4587 1.45142 21.3832C1.34175 21.3078 1.25759 21.2009 1.21013 21.0765C1.16267 20.9522 1.15414 20.8163 1.18568 20.687C1.21722 20.5577 1.28733 20.441 1.38671 20.3525L9.43671 13.1731C9.56666 13.0571 9.73739 12.9974 9.91133 13.0073C10.0853 13.0171 10.2482 13.0957 10.3642 13.2256C10.4802 13.3556 10.5399 13.5263 10.53 13.7002C10.5202 13.8742 10.4417 14.0371 10.3117 14.1531L2.26171 21.3325C2.14216 21.4413 1.98582 21.5007 1.82421 21.4987ZM26.1755 21.4987C26.0138 21.5007 25.8575 21.4413 25.738 21.3325L17.688 14.1531C17.558 14.0371 17.4795 13.8742 17.4696 13.7002C17.4598 13.5263 17.5194 13.3556 17.6355 13.2256C17.7515 13.0957 17.9144 13.0171 18.0883 13.0073C18.2623 12.9974 18.433 13.0571 18.563 13.1731L26.6086 20.3525C26.708 20.441 26.7781 20.5577 26.8096 20.687C26.8411 20.8163 26.8326 20.9522 26.7852 21.0765C26.7377 21.2009 26.6535 21.3078 26.5439 21.3832C26.4342 21.4587 26.3042 21.4989 26.1711 21.4987H26.1755Z" fill="#333333"/>
</svg>
