<svg width="262" height="48" viewBox="0 0 262 48" fill="none" xmlns="http://www.w3.org/2000/svg">
<path d="M1 16C1 12.2005 1.00212 9.45146 1.28398 7.35507C1.56196 5.28745 2.09545 4.00506 3.05025 3.05025C4.00506 2.09545 5.28745 1.56196 7.35507 1.28398C9.45146 1.00212 12.2005 1 16 1H150.462C154.261 1 157.01 1.00212 159.107 1.28398C161.174 1.56196 162.457 2.09545 163.412 3.05025C164.366 4.00506 164.9 5.28745 165.178 7.35507C165.46 9.45146 165.462 12.2005 165.462 16V32C165.462 35.7995 165.46 38.5485 165.178 40.6449C164.9 42.7125 164.366 43.9949 163.412 44.9497C162.457 45.9046 161.174 46.438 159.107 46.716C157.01 46.9979 154.261 47 150.462 47H16C12.2005 47 9.45146 46.9979 7.35507 46.716C5.28745 46.438 4.00506 45.9046 3.05025 44.9497C2.09545 43.9949 1.56196 42.7126 1.28398 40.6449C1.00212 38.5485 1 35.7995 1 32V16Z" fill="white" stroke="#077BC3" stroke-width="2"/>
<path d="M23.9769 17.528V22.424H29.7369V24.656H23.9769V29.768H30.4569V32H21.2409V15.296H30.4569V17.528H23.9769ZM39.4909 25.304L43.7629 32H40.6669L37.8109 27.512L35.1229 32H32.2669L36.5389 25.496L32.2669 18.776H35.3629L38.2189 23.264L40.9069 18.776H43.7629L39.4909 25.304ZM48.5394 20.72C49.0034 20.112 49.6354 19.6 50.4354 19.184C51.2354 18.768 52.1394 18.56 53.1474 18.56C54.2994 18.56 55.3474 18.848 56.2914 19.424C57.2514 19.984 58.0034 20.776 58.5474 21.8C59.0914 22.824 59.3634 24 59.3634 25.328C59.3634 26.656 59.0914 27.848 58.5474 28.904C58.0034 29.944 57.2514 30.76 56.2914 31.352C55.3474 31.928 54.2994 32.216 53.1474 32.216C52.1394 32.216 51.2434 32.016 50.4594 31.616C49.6754 31.2 49.0354 30.688 48.5394 30.08V38.288H45.8034V18.776H48.5394V20.72ZM56.5794 25.328C56.5794 24.416 56.3874 23.632 56.0034 22.976C55.6354 22.304 55.1394 21.8 54.5154 21.464C53.9074 21.112 53.2514 20.936 52.5474 20.936C51.8594 20.936 51.2034 21.112 50.5794 21.464C49.9714 21.816 49.4754 22.328 49.0914 23C48.7234 23.672 48.5394 24.464 48.5394 25.376C48.5394 26.288 48.7234 27.088 49.0914 27.776C49.4754 28.448 49.9714 28.96 50.5794 29.312C51.2034 29.664 51.8594 29.84 52.5474 29.84C53.2514 29.84 53.9074 29.664 54.5154 29.312C55.1394 28.944 55.6354 28.416 56.0034 27.728C56.3874 27.04 56.5794 26.24 56.5794 25.328ZM64.805 14.24V32H62.069V14.24H64.805ZM74.1332 32.216C72.8852 32.216 71.7572 31.936 70.7492 31.376C69.7412 30.8 68.9492 30 68.3732 28.976C67.7972 27.936 67.5092 26.736 67.5092 25.376C67.5092 24.032 67.8052 22.84 68.3972 21.8C68.9892 20.76 69.7972 19.96 70.8212 19.4C71.8452 18.84 72.9892 18.56 74.2532 18.56C75.5172 18.56 76.6612 18.84 77.6852 19.4C78.7092 19.96 79.5172 20.76 80.1092 21.8C80.7012 22.84 80.9972 24.032 80.9972 25.376C80.9972 26.72 80.6932 27.912 80.0852 28.952C79.4772 29.992 78.6452 30.8 77.5892 31.376C76.5492 31.936 75.3972 32.216 74.1332 32.216ZM74.1332 29.84C74.8372 29.84 75.4932 29.672 76.1012 29.336C76.7252 29 77.2292 28.496 77.6132 27.824C77.9972 27.152 78.1892 26.336 78.1892 25.376C78.1892 24.416 78.0052 23.608 77.6372 22.952C77.2692 22.28 76.7812 21.776 76.1732 21.44C75.5652 21.104 74.9092 20.936 74.2052 20.936C73.5012 20.936 72.8452 21.104 72.2372 21.44C71.6452 21.776 71.1732 22.28 70.8212 22.952C70.4692 23.608 70.2932 24.416 70.2932 25.376C70.2932 26.8 70.6532 27.904 71.3732 28.688C72.1092 29.456 73.0292 29.84 74.1332 29.84ZM86.4379 20.696C86.8379 20.024 87.3659 19.504 88.0219 19.136C88.6939 18.752 89.4859 18.56 90.3979 18.56V21.392H89.7019C88.6299 21.392 87.8139 21.664 87.2539 22.208C86.7099 22.752 86.4379 23.696 86.4379 25.04V32H83.7019V18.776H86.4379V20.696ZM105.033 25.064C105.033 25.56 105.001 26.008 104.937 26.408H94.8328C94.9128 27.464 95.3048 28.312 96.0088 28.952C96.7128 29.592 97.5768 29.912 98.6008 29.912C100.073 29.912 101.113 29.296 101.721 28.064H104.673C104.273 29.28 103.545 30.28 102.489 31.064C101.449 31.832 100.153 32.216 98.6008 32.216C97.3368 32.216 96.2008 31.936 95.1928 31.376C94.2008 30.8 93.4168 30 92.8408 28.976C92.2808 27.936 92.0008 26.736 92.0008 25.376C92.0008 24.016 92.2728 22.824 92.8168 21.8C93.3768 20.76 94.1528 19.96 95.1448 19.4C96.1528 18.84 97.3048 18.56 98.6008 18.56C99.8488 18.56 100.961 18.832 101.937 19.376C102.913 19.92 103.673 20.688 104.217 21.68C104.761 22.656 105.033 23.784 105.033 25.064ZM102.177 24.2C102.161 23.192 101.801 22.384 101.097 21.776C100.393 21.168 99.5208 20.864 98.4808 20.864C97.5368 20.864 96.7288 21.168 96.0568 21.776C95.3848 22.368 94.9848 23.176 94.8568 24.2H102.177Z" fill="url(#paint0_linear_586_37)"/>
<path d="M122.409 1.65518H157.951C162.369 1.65518 165.951 5.2369 165.951 9.65518V39.1724C165.951 43.5907 162.369 47.1724 157.951 47.1724H122.409V1.65518Z" fill="url(#paint1_linear_586_37)"/>
<path d="M155.306 23.2071C155.696 22.8166 155.696 22.1834 155.306 21.7929L148.942 15.4289C148.551 15.0384 147.918 15.0384 147.528 15.4289C147.137 15.8195 147.137 16.4526 147.528 16.8431L153.185 22.5L147.528 28.1569C147.137 28.5474 147.137 29.1805 147.528 29.5711C147.918 29.9616 148.551 29.9616 148.942 29.5711L155.306 23.2071ZM134.429 23.5H154.599V21.5H134.429V23.5Z" fill="white"/>
<defs>
<linearGradient id="paint0_linear_586_37" x1="19.4409" y1="28" x2="262" y2="28" gradientUnits="userSpaceOnUse">
<stop stop-color="#077BC3"/>
<stop offset="1" stop-color="#8ED4FF"/>
</linearGradient>
<linearGradient id="paint1_linear_586_37" x1="119.123" y1="24.8276" x2="170.469" y2="24.8276" gradientUnits="userSpaceOnUse">
<stop stop-color="#077BC3"/>
<stop offset="1" stop-color="#4EAAE3"/>
</linearGradient>
</defs>
</svg>
