<svg width="16" height="17" viewBox="0 0 16 17" fill="none" xmlns="http://www.w3.org/2000/svg">
<path fill-rule="evenodd" clip-rule="evenodd" d="M13.2503 15.3H2.75048C2.18569 15.3 1.76809 14.7075 1.98169 14.1627C2.97047 11.6433 5.29363 10.2 7.99999 10.2C10.7071 10.2 13.0303 11.6433 14.0191 14.1627C14.2327 14.7075 13.8151 15.3 13.2503 15.3ZM4.73364 5.09999C4.73364 3.22489 6.19922 1.69999 7.99999 1.69999C9.80156 1.69999 11.2663 3.22489 11.2663 5.09999C11.2663 6.97509 9.80156 8.49999 7.99999 8.49999C6.19922 8.49999 4.73364 6.97509 4.73364 5.09999ZM15.9646 14.9906C15.3711 12.1354 13.5135 10.0283 11.0695 9.07202C12.3647 7.98657 13.1199 6.2313 12.8423 4.30944C12.5207 2.07989 10.7383 0.295781 8.58798 0.0356804C5.61843 -0.32387 3.10007 2.08164 3.10007 5.09999C3.10007 6.70649 3.81526 8.13787 4.93124 9.07202C2.48568 10.0283 0.629714 12.1354 0.0353249 14.9906C-0.180671 16.0284 0.623316 17 1.6433 17H14.3567C15.3775 17 16.1806 16.0284 15.9646 14.9906Z" fill="black" fill-opacity="0.69"/>
</svg>
