<svg width="47" height="46" viewBox="0 0 47 46" fill="none" xmlns="http://www.w3.org/2000/svg">
<path d="M44.8138 22.6754C44.8138 34.0348 35.2899 43.3509 23.4069 43.3509C11.5239 43.3509 2 34.0348 2 22.6754C2 11.3161 11.5239 2 23.4069 2C35.2899 2 44.8138 11.3161 44.8138 22.6754Z" stroke="#077BC3" stroke-width="4"/>
<path d="M20.776 19.2523L23.5 13.9851L26.224 19.2523C26.6102 19.999 27.3458 20.5016 28.1817 20.59L34.2973 21.2367L29.9824 24.7956C29.2567 25.3942 28.9284 26.3496 29.133 27.2679L30.317 32.5823L24.6167 29.7365C23.9136 29.3855 23.0864 29.3855 22.3833 29.7365L23.0533 31.0785L22.3833 29.7365L16.683 32.5823L17.867 27.2679C18.0716 26.3496 17.7433 25.3942 17.0175 24.7956L12.7027 21.2367L18.8183 20.59C19.6542 20.5016 20.3898 19.999 20.776 19.2523ZM35.216 20.479L35.2153 20.4796L35.216 20.479ZM31.2567 33.0515L31.2559 33.0511L31.2567 33.0515Z" stroke="#077BC3" stroke-width="3"/>
</svg>
