<svg width="185" height="76" viewBox="0 0 185 76" fill="none" xmlns="http://www.w3.org/2000/svg">
<g filter="url(#filter0_d_377_1111)">
<rect x="3" y="4.81787" width="138.288" height="66.7072" rx="12" fill="white"/>
</g>
<path d="M53.47 40.27C52.174 40.27 51.022 40 50.014 39.46C49.006 38.92 48.22 38.158 47.656 37.174C47.092 36.178 46.81 35.026 46.81 33.718C46.81 32.41 47.092 31.258 47.656 30.262C48.22 29.266 49.006 28.498 50.014 27.958C51.022 27.418 52.174 27.148 53.47 27.148C55.21 27.148 56.656 27.58 57.808 28.444V30.208C56.764 29.296 55.372 28.84 53.632 28.84C52.684 28.84 51.832 29.038 51.076 29.434C50.32 29.83 49.726 30.4 49.294 31.144C48.874 31.876 48.664 32.734 48.664 33.718C48.664 34.702 48.874 35.566 49.294 36.31C49.714 37.054 50.296 37.624 51.04 38.02C51.784 38.416 52.624 38.614 53.56 38.614C54.652 38.614 55.546 38.392 56.242 37.948V34.654H53.848V33.16H58.078V38.92C57.514 39.388 56.848 39.73 56.08 39.946C55.324 40.162 54.454 40.27 53.47 40.27ZM60.0548 31.36H61.8188V32.908C62.1788 32.38 62.6828 31.99 63.3308 31.738C63.9908 31.486 64.7528 31.36 65.6168 31.36V32.782C64.6928 32.782 63.9008 32.932 63.2408 33.232C62.5808 33.532 62.1248 34.006 61.8728 34.654V40H60.0548V31.36ZM71.4513 40.27C69.8553 40.27 68.6013 39.874 67.6893 39.082C66.7893 38.278 66.3393 37.15 66.3393 35.698C66.3393 34.282 66.7413 33.16 67.5453 32.332C68.3613 31.504 69.5193 31.09 71.0193 31.09C72.0153 31.09 72.8613 31.282 73.5573 31.666C74.2533 32.038 74.7753 32.56 75.1233 33.232C75.4833 33.892 75.6633 34.648 75.6633 35.5V36.4H68.0673C68.1273 37.216 68.4693 37.828 69.0933 38.236C69.7293 38.632 70.5873 38.83 71.6673 38.83C72.2193 38.83 72.7773 38.782 73.3413 38.686C73.9053 38.578 74.4033 38.44 74.8353 38.272V39.73C74.4513 39.886 73.9413 40.012 73.3053 40.108C72.6813 40.216 72.0633 40.27 71.4513 40.27ZM73.9533 35.122C73.9293 34.306 73.6593 33.676 73.1433 33.232C72.6393 32.776 71.9193 32.548 70.9833 32.548C70.0713 32.548 69.3633 32.782 68.8593 33.25C68.3553 33.718 68.0913 34.342 68.0673 35.122H73.9533ZM80.7465 40.27C79.7025 40.27 78.8625 40.006 78.2265 39.478C77.6025 38.938 77.2905 38.212 77.2905 37.3C77.2905 36.34 77.5905 35.602 78.1905 35.086C78.8025 34.558 79.6665 34.294 80.7825 34.294C81.9705 34.294 82.9785 34.534 83.8065 35.014V34.564C83.8065 33.88 83.5965 33.376 83.1765 33.052C82.7685 32.716 82.1205 32.548 81.2325 32.548C80.7045 32.548 80.1885 32.602 79.6845 32.71C79.1925 32.806 78.7485 32.944 78.3525 33.124V31.648C78.7125 31.48 79.1805 31.348 79.7565 31.252C80.3325 31.144 80.8905 31.09 81.4305 31.09C82.8585 31.09 83.9145 31.408 84.5985 32.044C85.2945 32.668 85.6425 33.538 85.6425 34.654V40H83.9325V39.028C83.5605 39.436 83.1165 39.748 82.6005 39.964C82.0965 40.168 81.4785 40.27 80.7465 40.27ZM81.1965 38.884C81.7725 38.884 82.2945 38.77 82.7625 38.542C83.2305 38.314 83.5785 37.996 83.8065 37.588V36.418C83.0265 35.914 82.1565 35.662 81.1965 35.662C80.5005 35.662 79.9785 35.8 79.6305 36.076C79.2945 36.34 79.1265 36.748 79.1265 37.3C79.1265 38.356 79.8165 38.884 81.1965 38.884ZM90.7715 40.27C89.8955 40.27 89.2175 40.018 88.7375 39.514C88.2695 39.01 88.0355 38.296 88.0355 37.372V32.764H86.7215V31.36H88.0355V28.768H89.8715V31.36H91.9955V32.764H89.8715V37.246C89.8715 37.822 89.9795 38.23 90.1955 38.47C90.4235 38.71 90.8315 38.83 91.4195 38.83C91.7675 38.83 92.1155 38.752 92.4635 38.596V40.036C92.0075 40.192 91.4435 40.27 90.7715 40.27Z" fill="black"/>
<path d="M17.3201 60.2715V51.5442H22.7917V52.6777H18.6369V55.3368H22.5062V56.4661H18.6369V59.138H22.8429V60.2715H17.3201ZM26.5932 60.4164C26.1784 60.4164 25.8034 60.3397 25.4682 60.1863C25.1329 60.03 24.8673 59.8042 24.6713 59.5087C24.4781 59.2132 24.3815 58.851 24.3815 58.4221C24.3815 58.0527 24.4525 57.7488 24.5946 57.5101C24.7366 57.2715 24.9284 57.0826 25.1699 56.9434C25.4113 56.8042 25.6812 56.699 25.9795 56.628C26.2778 56.557 26.5818 56.503 26.8915 56.4661C27.2835 56.4206 27.6017 56.3837 27.846 56.3553C28.0903 56.324 28.2679 56.2743 28.3787 56.2061C28.4895 56.138 28.5449 56.0272 28.5449 55.8738V55.8439C28.5449 55.4718 28.4398 55.1834 28.2295 54.9789C28.0221 54.7743 27.7125 54.6721 27.3005 54.6721C26.8716 54.6721 26.5335 54.7672 26.2863 54.9576C26.042 55.1451 25.873 55.3539 25.7792 55.584L24.5818 55.3113C24.7238 54.9135 24.9312 54.5925 25.204 54.3482C25.4795 54.101 25.7963 53.9221 26.1542 53.8113C26.5122 53.6976 26.8886 53.6408 27.2835 53.6408C27.5449 53.6408 27.8219 53.6721 28.1145 53.7346C28.4099 53.7942 28.6855 53.905 28.9412 54.0669C29.1997 54.2289 29.4113 54.4604 29.5761 54.7615C29.7409 55.0598 29.8233 55.4476 29.8233 55.9249V60.2715H28.579V59.3766H28.5278C28.4454 59.5414 28.3219 59.7033 28.1571 59.8624C27.9923 60.0215 27.7807 60.1536 27.5221 60.2587C27.2636 60.3638 26.954 60.4164 26.5932 60.4164ZM26.8701 59.3936C27.2224 59.3936 27.5236 59.324 27.7736 59.1848C28.0264 59.0456 28.2182 58.8638 28.3488 58.6394C28.4824 58.4121 28.5491 58.1692 28.5491 57.9107V57.0669C28.5037 57.1124 28.4156 57.155 28.2849 57.1948C28.1571 57.2317 28.0108 57.2644 27.846 57.2928C27.6812 57.3184 27.5207 57.3425 27.3645 57.3652C27.2082 57.3851 27.0775 57.4022 26.9724 57.4164C26.7253 57.4476 26.4994 57.5002 26.2949 57.574C26.0932 57.6479 25.9312 57.7544 25.8091 57.8936C25.6898 58.03 25.6301 58.2118 25.6301 58.4391C25.6301 58.7544 25.7466 58.9931 25.9795 59.155C26.2125 59.3141 26.5094 59.3936 26.8701 59.3936ZM31.7604 60.2715V53.726H32.9919V54.7658H33.0601C33.1794 54.4135 33.3896 54.1365 33.6908 53.9348C33.9947 53.7303 34.3385 53.628 34.722 53.628C34.8016 53.628 34.8953 53.6309 35.0033 53.6365C35.1141 53.6422 35.2007 53.6493 35.2632 53.6578V54.8766C35.2121 54.8624 35.1212 54.8468 34.9905 54.8297C34.8598 54.8098 34.7291 54.7999 34.5984 54.7999C34.2973 54.7999 34.0288 54.8638 33.793 54.9917C33.5601 55.1167 33.3754 55.2914 33.2391 55.5158C33.1027 55.7374 33.0345 55.9902 33.0345 56.2743V60.2715H31.7604ZM37.88 56.3851V60.2715H36.6058V53.726H37.8288V54.7914H37.9098C38.0604 54.4448 38.2962 54.1664 38.6172 53.9561C38.9411 53.7459 39.3487 53.6408 39.8402 53.6408C40.2862 53.6408 40.6769 53.7346 41.0121 53.9221C41.3473 54.1067 41.6073 54.3823 41.7919 54.7488C41.9766 55.1152 42.0689 55.5684 42.0689 56.1081V60.2715H40.7948V56.2615C40.7948 55.7871 40.6712 55.4164 40.424 55.1493C40.1769 54.8794 39.8374 54.7445 39.4055 54.7445C39.1101 54.7445 38.8473 54.8084 38.6172 54.9363C38.3899 55.0641 38.2095 55.2516 38.076 55.4988C37.9453 55.7431 37.88 56.0385 37.88 56.3851ZM48.8525 60.2715L46.9264 53.726H48.2431L49.5258 58.5328H49.5897L50.8767 53.726H52.1934L53.4718 58.5115H53.5358L54.8099 53.726H56.1267L54.2048 60.2715H52.9051L51.5755 55.5456H51.4775L50.148 60.2715H48.8525ZM58.85 56.3851V60.2715H57.5758V51.5442H58.8329V54.7914H58.9139C59.0673 54.4391 59.3017 54.1593 59.617 53.9519C59.9324 53.7445 60.3443 53.6408 60.8528 53.6408C61.3017 53.6408 61.6937 53.7331 62.029 53.9178C62.367 54.1025 62.6284 54.378 62.813 54.7445C63.0005 55.1081 63.0943 55.5627 63.0943 56.1081V60.2715H61.8201V56.2615C61.8201 55.7814 61.6966 55.4093 61.4494 55.1451C61.2023 54.878 60.8585 54.7445 60.4182 54.7445C60.117 54.7445 59.8471 54.8084 59.6085 54.9363C59.3727 55.0641 59.1866 55.2516 59.0503 55.4988C58.9167 55.7431 58.85 56.0385 58.85 56.3851ZM65.0346 60.2715V53.726H66.3087V60.2715H65.0346ZM65.678 52.7161C65.4565 52.7161 65.2661 52.6422 65.107 52.4945C64.9508 52.3439 64.8726 52.1649 64.8726 51.9576C64.8726 51.7473 64.9508 51.5684 65.107 51.4206C65.2661 51.2701 65.4565 51.1948 65.678 51.1948C65.8996 51.1948 66.0886 51.2701 66.2448 51.4206C66.4039 51.5684 66.4834 51.7473 66.4834 51.9576C66.4834 52.1649 66.4039 52.3439 66.2448 52.4945C66.0886 52.6422 65.8996 52.7161 65.678 52.7161ZM69.537 51.5442V60.2715H68.2629V51.5442H69.537ZM74.3122 60.4036C73.6673 60.4036 73.1119 60.2658 72.646 59.9902C72.1829 59.7118 71.825 59.3212 71.5721 58.8184C71.3221 58.3127 71.1971 57.7203 71.1971 57.0414C71.1971 56.3709 71.3221 55.78 71.5721 55.2686C71.825 54.7573 72.1772 54.3581 72.6289 54.0712C73.0835 53.7843 73.6147 53.6408 74.2227 53.6408C74.592 53.6408 74.95 53.7019 75.2965 53.824C75.6431 53.9462 75.9542 54.138 76.2298 54.3993C76.5053 54.6607 76.7227 55.0002 76.8818 55.4178C77.0409 55.8326 77.1204 56.3368 77.1204 56.9306V57.3823H71.9173V56.4277H75.8718C75.8718 56.0925 75.8036 55.7956 75.6673 55.5371C75.5309 55.2757 75.3392 55.0698 75.092 54.9192C74.8477 54.7686 74.5607 54.6934 74.2312 54.6934C73.8732 54.6934 73.5607 54.7814 73.2937 54.9576C73.0295 55.1309 72.825 55.3581 72.6801 55.6394C72.538 55.9178 72.467 56.2203 72.467 56.5471V57.2928C72.467 57.7303 72.5437 58.1025 72.6971 58.4093C72.8534 58.7161 73.0707 58.9505 73.3491 59.1124C73.6275 59.2715 73.9528 59.351 74.325 59.351C74.5664 59.351 74.7866 59.3169 74.9855 59.2488C75.1843 59.1777 75.3562 59.0726 75.5011 58.9334C75.646 58.7942 75.7568 58.6223 75.8335 58.4178L77.0394 58.6351C76.9428 58.9902 76.7696 59.3013 76.5196 59.5684C76.2724 59.8326 75.9613 60.0385 75.5863 60.1863C75.2142 60.3311 74.7894 60.4036 74.3122 60.4036ZM82.9953 62.726C82.8049 62.726 82.6317 62.7104 82.4754 62.6792C82.3192 62.6507 82.2027 62.6195 82.126 62.5854L82.4328 61.5414C82.6657 61.6039 82.8731 61.6309 83.0549 61.6223C83.2368 61.6138 83.3973 61.5456 83.5365 61.4178C83.6785 61.29 83.8035 61.0811 83.9115 60.7914L84.0692 60.3567L81.6743 53.726H83.0379L84.6956 58.8056H84.7638L86.4214 53.726H87.7893L85.0919 61.1451C84.9669 61.486 84.8078 61.7743 84.6146 62.0101C84.4214 62.2488 84.1913 62.4277 83.9243 62.5471C83.6572 62.6664 83.3476 62.726 82.9953 62.726ZM91.7612 60.4036C91.1476 60.4036 90.6121 60.263 90.1547 59.9817C89.6973 59.7005 89.3422 59.307 89.0893 58.8013C88.8365 58.2956 88.7101 57.7047 88.7101 57.0286C88.7101 56.3496 88.8365 55.7559 89.0893 55.2473C89.3422 54.7388 89.6973 54.3439 90.1547 54.0627C90.6121 53.7814 91.1476 53.6408 91.7612 53.6408C92.3748 53.6408 92.9104 53.7814 93.3677 54.0627C93.8251 54.3439 94.1802 54.7388 94.4331 55.2473C94.6859 55.7559 94.8123 56.3496 94.8123 57.0286C94.8123 57.7047 94.6859 58.2956 94.4331 58.8013C94.1802 59.307 93.8251 59.7005 93.3677 59.9817C92.9104 60.263 92.3748 60.4036 91.7612 60.4036ZM91.7655 59.334C92.1632 59.334 92.4927 59.2289 92.7541 59.0186C93.0155 58.8084 93.2087 58.5286 93.3337 58.1792C93.4615 57.8297 93.5254 57.4448 93.5254 57.0243C93.5254 56.6067 93.4615 56.2232 93.3337 55.8738C93.2087 55.5215 93.0155 55.2388 92.7541 55.0257C92.4927 54.8127 92.1632 54.7061 91.7655 54.7061C91.3649 54.7061 91.0325 54.8127 90.7683 55.0257C90.507 55.2388 90.3123 55.5215 90.1845 55.8738C90.0595 56.2232 89.997 56.6067 89.997 57.0243C89.997 57.4448 90.0595 57.8297 90.1845 58.1792C90.3123 58.5286 90.507 58.8084 90.7683 59.0186C91.0325 59.2289 91.3649 59.334 91.7655 59.334ZM100.621 57.557V53.726H101.899V60.2715H100.646V59.138H100.578C100.428 59.4874 100.186 59.7786 99.8538 60.0115C99.5243 60.2417 99.1138 60.3567 98.6223 60.3567C98.2019 60.3567 97.8297 60.2644 97.5058 60.0797C97.1848 59.8922 96.932 59.6152 96.7473 59.2488C96.5655 58.8823 96.4746 58.4292 96.4746 57.8894V53.726H97.7487V57.736C97.7487 58.182 97.8723 58.5371 98.1195 58.8013C98.3666 59.0655 98.6877 59.1976 99.0825 59.1976C99.3212 59.1976 99.5584 59.138 99.7942 59.0186C100.033 58.8993 100.23 58.7189 100.387 58.4775C100.546 58.236 100.624 57.9292 100.621 57.557ZM108.541 56.3851V60.2715H107.267V51.5442H108.524V54.7914H108.605C108.759 54.4391 108.993 54.1593 109.308 53.9519C109.624 53.7445 110.036 53.6408 110.544 53.6408C110.993 53.6408 111.385 53.7331 111.72 53.9178C112.058 54.1025 112.32 54.378 112.504 54.7445C112.692 55.1081 112.786 55.5627 112.786 56.1081V60.2715H111.511V56.2615C111.511 55.7814 111.388 55.4093 111.141 55.1451C110.893 54.878 110.55 54.7445 110.109 54.7445C109.808 54.7445 109.538 54.8084 109.3 54.9363C109.064 55.0641 108.878 55.2516 108.742 55.4988C108.608 55.7431 108.541 56.0385 108.541 56.3851ZM114.726 60.2715V53.726H116V60.2715H114.726ZM115.369 52.7161C115.148 52.7161 114.957 52.6422 114.798 52.4945C114.642 52.3439 114.564 52.1649 114.564 51.9576C114.564 51.7473 114.642 51.5684 114.798 51.4206C114.957 51.2701 115.148 51.1948 115.369 51.1948C115.591 51.1948 115.78 51.2701 115.936 51.4206C116.095 51.5684 116.175 51.7473 116.175 51.9576C116.175 52.1649 116.095 52.3439 115.936 52.4945C115.78 52.6422 115.591 52.7161 115.369 52.7161ZM117.954 60.2715V53.726H119.186V54.7658H119.254C119.373 54.4135 119.583 54.1365 119.885 53.9348C120.188 53.7303 120.532 53.628 120.916 53.628C120.995 53.628 121.089 53.6309 121.197 53.6365C121.308 53.6422 121.394 53.6493 121.457 53.6578V54.8766C121.406 54.8624 121.315 54.8468 121.184 54.8297C121.054 54.8098 120.923 54.7999 120.792 54.7999C120.491 54.7999 120.223 54.8638 119.987 54.9917C119.754 55.1167 119.569 55.2914 119.433 55.5158C119.296 55.7374 119.228 55.9902 119.228 56.2743V60.2715H117.954ZM125.386 60.4036C124.741 60.4036 124.186 60.2658 123.72 59.9902C123.257 59.7118 122.899 59.3212 122.646 58.8184C122.396 58.3127 122.271 57.7203 122.271 57.0414C122.271 56.3709 122.396 55.78 122.646 55.2686C122.899 54.7573 123.251 54.3581 123.703 54.0712C124.158 53.7843 124.689 53.6408 125.297 53.6408C125.666 53.6408 126.024 53.7019 126.371 53.824C126.717 53.9462 127.028 54.138 127.304 54.3993C127.579 54.6607 127.797 55.0002 127.956 55.4178C128.115 55.8326 128.194 56.3368 128.194 56.9306V57.3823H122.991V56.4277H126.946C126.946 56.0925 126.878 55.7956 126.741 55.5371C126.605 55.2757 126.413 55.0698 126.166 54.9192C125.922 54.7686 125.635 54.6934 125.305 54.6934C124.947 54.6934 124.635 54.7814 124.368 54.9576C124.104 55.1309 123.899 55.3581 123.754 55.6394C123.612 55.9178 123.541 56.2203 123.541 56.5471V57.2928C123.541 57.7303 123.618 58.1025 123.771 58.4093C123.927 58.7161 124.145 58.9505 124.423 59.1124C124.702 59.2715 125.027 59.351 125.399 59.351C125.64 59.351 125.861 59.3169 126.06 59.2488C126.258 59.1777 126.43 59.0726 126.575 58.9334C126.72 58.7942 126.831 58.6223 126.908 58.4178L128.114 58.6351C128.017 58.9902 127.844 59.3013 127.594 59.5684C127.346 59.8326 127.035 60.0385 126.66 60.1863C126.288 60.3311 125.864 60.4036 125.386 60.4036Z" fill="#525961"/>
<defs>
<filter id="filter0_d_377_1111" x="0" y="0.817871" width="146.289" height="74.707" filterUnits="userSpaceOnUse" color-interpolation-filters="sRGB">
<feFlood flood-opacity="0" result="BackgroundImageFix"/>
<feColorMatrix in="SourceAlpha" type="matrix" values="0 0 0 0 0 0 0 0 0 0 0 0 0 0 0 0 0 0 127 0" result="hardAlpha"/>
<feOffset dx="1"/>
<feGaussianBlur stdDeviation="2"/>
<feComposite in2="hardAlpha" operator="out"/>
<feColorMatrix type="matrix" values="0 0 0 0 0 0 0 0 0 0 0 0 0 0 0 0 0 0 0.25 0"/>
<feBlend mode="normal" in2="BackgroundImageFix" result="effect1_dropShadow_377_1111"/>
<feBlend mode="normal" in="SourceGraphic" in2="effect1_dropShadow_377_1111" result="shape"/>
</filter>
</defs>
</svg>
