<svg width="36" height="36" viewBox="0 0 36 36" fill="none" xmlns="http://www.w3.org/2000/svg">
<path d="M7 28V29H8H28H29V28C29 21.9477 24.0523 17 18 17C11.9477 17 7 21.9477 7 28ZM1 18C1 8.65229 8.65229 1 18 1C27.3477 1 35 8.65229 35 18C35 27.3477 27.3477 35 18 35C8.65229 35 1 27.3477 1 18ZM23 11C23 8.24772 20.7523 6 18 6C15.2477 6 13 8.24771 13 11C13 13.7523 15.2477 16 18 16C20.7523 16 23 13.7523 23 11Z" stroke="#095F95" stroke-width="2"/>
<rect x="8" y="28" width="20" height="2" fill="white"/>
</svg>
