<svg width="21" height="20" viewBox="0 0 21 20" fill="none" xmlns="http://www.w3.org/2000/svg">
<path fill-rule="evenodd" clip-rule="evenodd" d="M3.9375 3.125H17.0625C17.9353 3.125 18.7688 3.45625 19.3856 4.0375C19.9959 4.625 20.3438 5.41875 20.3438 6.25V13.75C20.3438 14.5813 19.9959 15.375 19.3856 15.9625C18.7688 16.5438 17.9353 16.875 17.0625 16.875H3.9375C3.06469 16.875 2.23125 16.5438 1.61437 15.9625C1.00406 15.375 0.65625 14.5813 0.65625 13.75V6.25C0.65625 5.41875 1.00406 4.625 1.61437 4.0375C2.23125 3.45625 3.06469 3.125 3.9375 3.125ZM3.9375 4.375H17.0625C17.5875 4.375 18.0863 4.575 18.4538 4.925C18.8213 5.275 19.0312 5.75 19.0312 6.25V13.75C19.0312 14.25 18.8213 14.725 18.4538 15.075C18.0863 15.425 17.5875 15.625 17.0625 15.625H3.9375C3.4125 15.625 2.91375 15.425 2.54625 15.075C2.17875 14.725 1.96875 14.25 1.96875 13.75V6.25C1.96875 5.75 2.17875 5.275 2.54625 4.925C2.91375 4.575 3.4125 4.375 3.9375 4.375Z" fill="black" fill-opacity="0.82"/>
<path d="M19.3928 5.69396C19.5503 5.61896 19.7275 5.60646 19.8981 5.65646C20.0622 5.71271 20.2 5.82521 20.2722 5.96896C20.351 6.11896 20.3641 6.28771 20.3116 6.45021C20.2525 6.60646 20.1344 6.73772 19.9835 6.80647L11.9706 10.6252C11.9641 10.6252 11.9575 10.6315 11.951 10.6315C11.4981 10.8315 10.9994 10.9315 10.5006 10.9252C10.0019 10.9315 9.50314 10.8315 9.05033 10.6315C9.04377 10.6315 9.0372 10.6252 9.03064 10.6252L1.01783 6.80647C0.866891 6.73772 0.748766 6.60646 0.689703 6.45021C0.637203 6.28771 0.650328 6.11896 0.729078 5.96896C0.801266 5.82521 0.939078 5.71271 1.10314 5.65646C1.27377 5.60646 1.45095 5.61896 1.60845 5.69396L9.6147 9.50022C9.89033 9.62522 10.1922 9.68147 10.5006 9.67522C10.8091 9.68147 11.111 9.62522 11.3866 9.50022L19.3928 5.69396ZM7.21939 13.1252C7.39658 13.1252 7.56064 13.194 7.68533 13.3065C7.80345 13.4252 7.87564 13.5815 7.87564 13.7502C7.87564 13.919 7.80345 14.0752 7.68533 14.194C7.56064 14.3065 7.39658 14.3752 7.21939 14.3752H3.93814C3.76095 14.3752 3.59689 14.3065 3.4722 14.194C3.35408 14.0752 3.28189 13.919 3.28189 13.7502C3.28189 13.5815 3.35408 13.4252 3.4722 13.3065C3.59689 13.194 3.76095 13.1252 3.93814 13.1252H7.21939Z" fill="black" fill-opacity="0.82"/>
</svg>
