<svg width="16" height="16" viewBox="0 0 16 16" fill="none" xmlns="http://www.w3.org/2000/svg">
<path fill-rule="evenodd" clip-rule="evenodd" d="M13.2503 14.3997H2.75048C2.18569 14.3997 1.76809 13.8421 1.98169 13.3293C2.97047 10.9582 5.29363 9.59982 7.99999 9.59982C10.7071 9.59982 13.0303 10.9582 14.0191 13.3293C14.2327 13.8421 13.8151 14.3997 13.2503 14.3997ZM4.73364 4.7999C4.73364 3.03513 6.19922 1.59996 7.99999 1.59996C9.80156 1.59996 11.2663 3.03513 11.2663 4.7999C11.2663 6.56467 9.80156 7.99985 7.99999 7.99985C6.19922 7.99985 4.73364 6.56467 4.73364 4.7999ZM15.9646 14.1085C15.3711 11.4214 13.5135 9.4382 11.0695 8.53822C12.3647 7.51664 13.1199 5.86464 12.8423 4.05587C12.5207 1.95751 10.7383 0.278377 8.58798 0.0335809C5.61843 -0.304813 3.10007 1.95915 3.10007 4.7999C3.10007 6.31188 3.81526 7.65903 4.93124 8.53822C2.48568 9.4382 0.629714 11.4214 0.0353249 14.1085C-0.180671 15.0853 0.623316 15.9997 1.6433 15.9997H14.3567C15.3775 15.9997 16.1806 15.0853 15.9646 14.1085Z" fill="black" fill-opacity="0.69"/>
</svg>
