<svg width="408" height="247" viewBox="0 0 408 247" fill="none" xmlns="http://www.w3.org/2000/svg">
<g filter="url(#filter0_d_394_1167)">
<path d="M5 34C5 26.4293 5.00212 20.8518 5.57687 16.5769C6.14775 12.3308 7.26702 9.51977 9.3934 7.3934C11.5198 5.26702 14.3308 4.14775 18.5769 3.57687C22.8518 3.00212 28.4293 3 36 3H372C379.571 3 385.148 3.00212 389.423 3.57687C393.669 4.14775 396.48 5.26702 398.607 7.3934C400.733 9.51977 401.852 12.3308 402.423 16.5769C402.998 20.8518 403 26.4293 403 34V238.249C402.479 238.336 401.705 238.457 400.677 238.594C398.573 238.876 395.406 239.229 391.179 239.511C382.724 240.075 370.025 240.353 353.093 239.204C319.229 236.905 268.427 228.894 200.774 206.022C132.816 183.047 83.4485 191.082 51.0361 204.935C34.8411 211.857 22.9007 220.222 15.0031 226.863C11.0541 230.184 8.11506 233.075 6.15919 235.141C5.72431 235.601 5.33801 236.019 5 236.393V34Z" stroke="#077BC3" stroke-width="2" shape-rendering="crispEdges"/>
</g>
<defs>
<filter id="filter0_d_394_1167" x="0" y="0" width="408" height="247" filterUnits="userSpaceOnUse" color-interpolation-filters="sRGB">
<feFlood flood-opacity="0" result="BackgroundImageFix"/>
<feColorMatrix in="SourceAlpha" type="matrix" values="0 0 0 0 0 0 0 0 0 0 0 0 0 0 0 0 0 0 127 0" result="hardAlpha"/>
<feOffset dy="2"/>
<feGaussianBlur stdDeviation="2"/>
<feComposite in2="hardAlpha" operator="out"/>
<feColorMatrix type="matrix" values="0 0 0 0 0.668584 0 0 0 0 0.848329 0 0 0 0 0.959896 0 0 0 1 0"/>
<feBlend mode="normal" in2="BackgroundImageFix" result="effect1_dropShadow_394_1167"/>
<feBlend mode="normal" in="SourceGraphic" in2="effect1_dropShadow_394_1167" result="shape"/>
</filter>
</defs>
</svg>
