<svg width="1026" height="577" viewBox="0 0 1026 577" fill="none" xmlns="http://www.w3.org/2000/svg">
<path d="M2.5 569.119V72C2.5 54.9588 2.50531 42.4293 3.79573 32.8313C5.07647 23.3053 7.58177 17.0421 12.3119 12.3119C17.0421 7.58177 23.3053 5.07647 32.8313 3.79573C42.4293 2.50531 54.9588 2.5 72 2.5H954C971.041 2.5 983.571 2.50531 993.169 3.79573C1002.69 5.07647 1008.96 7.58177 1013.69 12.3119C1018.42 17.0421 1020.92 23.3053 1022.2 32.8313C1023.49 42.4293 1023.5 54.9588 1023.5 72V574.446C1023.02 574.435 1022.47 574.423 1021.86 574.409C1020.95 574.388 1019.9 574.364 1018.71 574.335C1013.96 574.222 1007.06 574.049 998.447 573.805C981.219 573.318 957.147 572.552 929.771 571.438C875.005 569.208 807.071 565.586 754.262 560.014C672.086 551.343 607.246 527.85 544.579 505.144C532.25 500.677 520.005 496.241 507.728 491.953C433.066 465.879 357.497 445.451 255.694 458.019C154.092 470.562 89.7112 499.811 50.668 526.05C31.1515 539.166 17.9851 551.518 9.67628 560.628C6.67204 563.922 4.30353 566.792 2.5 569.119Z" stroke="#077BC3" stroke-width="5"/>
</svg>
