<svg width="1026" height="577" viewBox="0 0 1026 577" fill="none" xmlns="http://www.w3.org/2000/svg">
<path d="M1023 573.931C1022.98 573.93 1022.96 573.93 1022.95 573.929C1022.43 573.917 1021.86 573.903 1021.23 573.888C1018.09 573.811 1013.51 573.693 1007.73 573.529C996.18 573.201 979.861 572.689 960.8 571.952C922.67 570.478 873.594 568.105 829.745 564.51C745.727 557.622 662.46 534.272 579.353 510.966C553.831 503.809 528.324 496.657 502.816 489.986C394.466 461.653 286.294 442.111 178.273 469.089C126.044 482.134 80.9426 508.61 48.9474 531.758C32.9376 543.341 20.1783 554.113 11.4146 561.997C7.98361 565.083 5.16383 567.728 3 569.806V104C3 79.4022 3.00637 61.2556 4.87705 47.3416C6.73613 33.514 10.3869 24.3167 17.3518 17.3518C24.3167 10.3869 33.514 6.73613 47.3416 4.87705C61.2556 3.00637 79.4022 3 104 3H922C946.598 3 964.744 3.00637 978.658 4.87705C992.486 6.73613 1001.68 10.3869 1008.65 17.3518C1015.61 24.3167 1019.26 33.514 1021.12 47.3416C1022.99 61.2556 1023 79.4022 1023 104V573.931Z" stroke="#077BC3" stroke-width="6"/>
</svg>
