<svg width="1026" height="577" viewBox="0 0 1026 577" fill="none" xmlns="http://www.w3.org/2000/svg">
<path d="M32 1H994C1001.57 1 1007.15 1.00212 1011.42 1.57687C1015.67 2.14775 1018.48 3.26702 1020.61 5.3934C1022.73 7.51977 1023.85 10.3308 1024.42 14.5769C1025 18.8518 1025 24.4293 1025 32V571.542C1024.69 571.595 1024.29 571.661 1023.8 571.738C1022.44 571.951 1020.41 572.25 1017.69 572.593C1012.26 573.277 1004.1 574.133 993.221 574.816C971.462 576.182 938.816 576.854 895.312 574.075C808.306 568.516 677.862 549.147 504.207 493.89C330.263 438.54 204.048 457.93 121.282 491.224C79.9092 507.867 49.4131 527.977 29.2532 543.935C19.1732 551.913 11.6767 558.855 6.69592 563.806C4.20549 566.282 2.34388 568.261 1.10261 569.623C1.06793 569.661 1.03372 569.699 1 569.736V32C1 24.4292 1.00212 18.8518 1.57687 14.5769C2.14775 10.3308 3.26702 7.51978 5.3934 5.3934C7.51977 3.26702 10.3308 2.14775 14.5769 1.57687C18.8518 1.00212 24.4293 1 32 1Z" stroke="#077BC3" stroke-width="2"/>
</svg>
