<svg width="185" height="76" viewBox="0 0 185 76" fill="none" xmlns="http://www.w3.org/2000/svg">
<g filter="url(#filter0_d_377_1121)">
<rect x="3" y="4.81787" width="138.288" height="66.7072" rx="12" fill="white"/>
</g>
<path d="M46.81 27.418H48.718L51.526 36.976L54.298 27.418H55.738L58.492 36.976L61.3 27.418H63.208L59.536 40H57.79L55 30.496L52.228 40H50.482L46.81 27.418ZM68.3881 40.27C67.4161 40.27 66.5581 40.09 65.8141 39.73C65.0821 39.358 64.5061 38.83 64.0861 38.146C63.6781 37.45 63.4741 36.634 63.4741 35.698C63.4741 34.774 63.6781 33.964 64.0861 33.268C64.4941 32.572 65.0701 32.038 65.8141 31.666C66.5581 31.282 67.4161 31.09 68.3881 31.09C69.3601 31.09 70.2181 31.282 70.9621 31.666C71.7061 32.038 72.2821 32.572 72.6901 33.268C73.1101 33.964 73.3201 34.774 73.3201 35.698C73.3201 36.634 73.1101 37.45 72.6901 38.146C72.2821 38.83 71.7061 39.358 70.9621 39.73C70.2181 40.09 69.3601 40.27 68.3881 40.27ZM68.3881 38.83C69.3241 38.83 70.0681 38.542 70.6201 37.966C71.1721 37.39 71.4481 36.634 71.4481 35.698C71.4481 34.726 71.1721 33.958 70.6201 33.394C70.0681 32.83 69.3241 32.548 68.3881 32.548C67.4521 32.548 66.7081 32.83 66.1561 33.394C65.6041 33.958 65.3281 34.726 65.3281 35.698C65.3281 36.634 65.6041 37.39 66.1561 37.966C66.7081 38.542 67.4521 38.83 68.3881 38.83ZM73.7573 31.36H75.6113L77.5553 37.768L79.4813 31.36H81.1193L83.0453 37.768L84.9893 31.36H86.8613L84.0533 40H82.3073L80.3093 33.556L78.3113 40H76.5473L73.7573 31.36ZM88.6857 27.418H90.4497V36.4H88.6857V27.418ZM89.5497 40.27C89.2497 40.27 88.9977 40.168 88.7937 39.964C88.5897 39.76 88.4877 39.508 88.4877 39.208C88.4877 38.908 88.5897 38.656 88.7937 38.452C88.9977 38.248 89.2497 38.146 89.5497 38.146C89.8497 38.146 90.1017 38.248 90.3057 38.452C90.5217 38.656 90.6297 38.908 90.6297 39.208C90.6297 39.508 90.5217 39.76 90.3057 39.964C90.1017 40.168 89.8497 40.27 89.5497 40.27Z" fill="black"/>
<path d="M17.3201 60.2715V51.5442H22.7321V52.6777H18.6369V55.3368H22.3443V56.4661H18.6369V60.2715H17.3201ZM24.4071 60.2715V53.726H25.6386V54.7658H25.7068C25.8261 54.4135 26.0363 54.1365 26.3375 53.9348C26.6415 53.7303 26.9852 53.628 27.3687 53.628C27.4483 53.628 27.542 53.6309 27.65 53.6365C27.7608 53.6422 27.8474 53.6493 27.9099 53.6578V54.8766C27.8588 54.8624 27.7679 54.8468 27.6372 54.8297C27.5065 54.8098 27.3758 54.7999 27.2451 54.7999C26.944 54.7999 26.6755 54.8638 26.4398 54.9917C26.2068 55.1167 26.0221 55.2914 25.8858 55.5158C25.7494 55.7374 25.6812 55.9902 25.6812 56.2743V60.2715H24.4071ZM31.8392 60.4036C31.1943 60.4036 30.6389 60.2658 30.173 59.9902C29.7099 59.7118 29.352 59.3212 29.0991 58.8184C28.8491 58.3127 28.7241 57.7203 28.7241 57.0414C28.7241 56.3709 28.8491 55.78 29.0991 55.2686C29.352 54.7573 29.7043 54.3581 30.156 54.0712C30.6105 53.7843 31.1418 53.6408 31.7497 53.6408C32.119 53.6408 32.477 53.7019 32.8236 53.824C33.1702 53.9462 33.4812 54.138 33.7568 54.3993C34.0324 54.6607 34.2497 55.0002 34.4088 55.4178C34.5679 55.8326 34.6474 56.3368 34.6474 56.9306V57.3823H29.4443V56.4277H33.3989C33.3989 56.0925 33.3307 55.7956 33.1943 55.5371C33.0579 55.2757 32.8662 55.0698 32.619 54.9192C32.3747 54.7686 32.0878 54.6934 31.7582 54.6934C31.4003 54.6934 31.0878 54.7814 30.8207 54.9576C30.5565 55.1309 30.352 55.3581 30.2071 55.6394C30.065 55.9178 29.994 56.2203 29.994 56.5471V57.2928C29.994 57.7303 30.0707 58.1025 30.2241 58.4093C30.3804 58.7161 30.5977 58.9505 30.8761 59.1124C31.1545 59.2715 31.4798 59.351 31.852 59.351C32.0935 59.351 32.3136 59.3169 32.5125 59.2488C32.7114 59.1777 32.8832 59.0726 33.0281 58.9334C33.173 58.7942 33.2838 58.6223 33.3605 58.4178L34.5665 58.6351C34.4699 58.9902 34.2966 59.3013 34.0466 59.5684C33.7994 59.8326 33.4883 60.0385 33.1133 60.1863C32.7412 60.3311 32.3165 60.4036 31.8392 60.4036ZM39.1222 60.4036C38.4773 60.4036 37.9219 60.2658 37.456 59.9902C36.9929 59.7118 36.6349 59.3212 36.3821 58.8184C36.1321 58.3127 36.0071 57.7203 36.0071 57.0414C36.0071 56.3709 36.1321 55.78 36.3821 55.2686C36.6349 54.7573 36.9872 54.3581 37.4389 54.0712C37.8935 53.7843 38.4247 53.6408 39.0327 53.6408C39.402 53.6408 39.7599 53.7019 40.1065 53.824C40.4531 53.9462 40.7642 54.138 41.0398 54.3993C41.3153 54.6607 41.5327 55.0002 41.6918 55.4178C41.8509 55.8326 41.9304 56.3368 41.9304 56.9306V57.3823H36.7273V56.4277H40.6818C40.6818 56.0925 40.6136 55.7956 40.4773 55.5371C40.3409 55.2757 40.1492 55.0698 39.902 54.9192C39.6577 54.7686 39.3707 54.6934 39.0412 54.6934C38.6832 54.6934 38.3707 54.7814 38.1037 54.9576C37.8395 55.1309 37.6349 55.3581 37.4901 55.6394C37.348 55.9178 37.277 56.2203 37.277 56.5471V57.2928C37.277 57.7303 37.3537 58.1025 37.5071 58.4093C37.6634 58.7161 37.8807 58.9505 38.1591 59.1124C38.4375 59.2715 38.7628 59.351 39.1349 59.351C39.3764 59.351 39.5966 59.3169 39.7955 59.2488C39.9943 59.1777 40.1662 59.0726 40.3111 58.9334C40.456 58.7942 40.5668 58.6223 40.6435 58.4178L41.8494 58.6351C41.7528 58.9902 41.5796 59.3013 41.3296 59.5684C41.0824 59.8326 40.7713 60.0385 40.3963 60.1863C40.0242 60.3311 39.5994 60.4036 39.1222 60.4036ZM44.8583 51.5442V60.2715H43.5841V51.5442H44.8583ZM48.7172 60.4164C48.3025 60.4164 47.9275 60.3397 47.5922 60.1863C47.257 60.03 46.9914 59.8042 46.7953 59.5087C46.6022 59.2132 46.5056 58.851 46.5056 58.4221C46.5056 58.0527 46.5766 57.7488 46.7186 57.5101C46.8607 57.2715 47.0525 57.0826 47.2939 56.9434C47.5354 56.8042 47.8053 56.699 48.1036 56.628C48.4019 56.557 48.7059 56.503 49.0155 56.4661C49.4076 56.4206 49.7257 56.3837 49.9701 56.3553C50.2144 56.324 50.3919 56.2743 50.5027 56.2061C50.6135 56.138 50.6689 56.0272 50.6689 55.8738V55.8439C50.6689 55.4718 50.5638 55.1834 50.3536 54.9789C50.1462 54.7743 49.8365 54.6721 49.4246 54.6721C48.9956 54.6721 48.6576 54.7672 48.4104 54.9576C48.1661 55.1451 47.9971 55.3539 47.9033 55.584L46.7059 55.3113C46.8479 54.9135 47.0553 54.5925 47.328 54.3482C47.6036 54.101 47.9203 53.9221 48.2783 53.8113C48.6363 53.6976 49.0127 53.6408 49.4076 53.6408C49.6689 53.6408 49.9459 53.6721 50.2385 53.7346C50.534 53.7942 50.8096 53.905 51.0652 54.0669C51.3238 54.2289 51.5354 54.4604 51.7002 54.7615C51.865 55.0598 51.9473 55.4476 51.9473 55.9249V60.2715H50.703V59.3766H50.6519C50.5695 59.5414 50.4459 59.7033 50.2811 59.8624C50.1164 60.0215 49.9047 60.1536 49.6462 60.2587C49.3877 60.3638 49.078 60.4164 48.7172 60.4164ZM48.9942 59.3936C49.3465 59.3936 49.6476 59.324 49.8976 59.1848C50.1505 59.0456 50.3422 58.8638 50.4729 58.6394C50.6064 58.4121 50.6732 58.1692 50.6732 57.9107V57.0669C50.6277 57.1124 50.5397 57.155 50.409 57.1948C50.2811 57.2317 50.1348 57.2644 49.9701 57.2928C49.8053 57.3184 49.6448 57.3425 49.4885 57.3652C49.3323 57.3851 49.2016 57.4022 49.0965 57.4164C48.8493 57.4476 48.6235 57.5002 48.4189 57.574C48.2172 57.6479 48.0553 57.7544 47.9331 57.8936C47.8138 58.03 47.7542 58.2118 47.7542 58.4391C47.7542 58.7544 47.8706 58.9931 48.1036 59.155C48.3365 59.3141 48.6334 59.3936 48.9942 59.3936ZM55.1586 56.3851V60.2715H53.8844V53.726H55.1074V54.7914H55.1884C55.339 54.4448 55.5748 54.1664 55.8958 53.9561C56.2197 53.7459 56.6273 53.6408 57.1188 53.6408C57.5648 53.6408 57.9554 53.7346 58.2907 53.9221C58.6259 54.1067 58.8858 54.3823 59.0705 54.7488C59.2552 55.1152 59.3475 55.5684 59.3475 56.1081V60.2715H58.0733V56.2615C58.0733 55.7871 57.9498 55.4164 57.7026 55.1493C57.4554 54.8794 57.116 54.7445 56.6841 54.7445C56.3887 54.7445 56.1259 54.8084 55.8958 54.9363C55.6685 55.0641 55.4881 55.2516 55.3546 55.4988C55.2239 55.7431 55.1586 56.0385 55.1586 56.3851ZM64.0534 60.4036C63.4199 60.4036 62.8744 60.2601 62.417 59.9732C61.9625 59.6834 61.6131 59.2843 61.3687 58.7757C61.1244 58.2672 61.0023 57.6848 61.0023 57.0286C61.0023 56.3638 61.1273 55.7772 61.3773 55.2686C61.6273 54.7573 61.9795 54.3581 62.4341 54.0712C62.8886 53.7843 63.4241 53.6408 64.0406 53.6408C64.5378 53.6408 64.981 53.7331 65.3702 53.9178C65.7594 54.0996 66.0733 54.3553 66.3119 54.6848C66.5534 55.0144 66.6969 55.3993 66.7423 55.8397H65.5023C65.4341 55.5328 65.2778 55.2686 65.0335 55.0471C64.792 54.8255 64.4682 54.7147 64.0619 54.7147C63.7068 54.7147 63.3957 54.8084 63.1287 54.9959C62.8645 55.1806 62.6585 55.4448 62.5108 55.7885C62.3631 56.1294 62.2892 56.5328 62.2892 56.9988C62.2892 57.476 62.3616 57.888 62.5065 58.2346C62.6514 58.5811 62.856 58.8496 63.1202 59.04C63.3872 59.2303 63.7011 59.3255 64.0619 59.3255C64.3034 59.3255 64.5222 59.2814 64.7182 59.1934C64.917 59.1025 65.0832 58.9732 65.2168 58.8056C65.3531 58.638 65.4483 58.4363 65.5023 58.2005H66.7423C66.6969 58.6238 66.5591 59.0016 66.329 59.334C66.0989 59.6664 65.7906 59.9277 65.4043 60.1181C65.0207 60.3084 64.5704 60.4036 64.0534 60.4036ZM68.3449 60.2715V53.726H69.619V60.2715H68.3449ZM68.9884 52.7161C68.7668 52.7161 68.5764 52.6422 68.4173 52.4945C68.2611 52.3439 68.183 52.1649 68.183 51.9576C68.183 51.7473 68.2611 51.5684 68.4173 51.4206C68.5764 51.2701 68.7668 51.1948 68.9884 51.1948C69.2099 51.1948 69.3989 51.2701 69.5551 51.4206C69.7142 51.5684 69.7938 51.7473 69.7938 51.9576C69.7938 52.1649 69.7142 52.3439 69.5551 52.4945C69.3989 52.6422 69.2099 52.7161 68.9884 52.7161ZM72.8473 56.3851V60.2715H71.5732V53.726H72.7962V54.7914H72.8772C73.0277 54.4448 73.2635 54.1664 73.5845 53.9561C73.9084 53.7459 74.3161 53.6408 74.8075 53.6408C75.2536 53.6408 75.6442 53.7346 75.9794 53.9221C76.3147 54.1067 76.5746 54.3823 76.7593 54.7488C76.9439 55.1152 77.0362 55.5684 77.0362 56.1081V60.2715H75.7621V56.2615C75.7621 55.7871 75.6385 55.4164 75.3914 55.1493C75.1442 54.8794 74.8047 54.7445 74.3729 54.7445C74.0774 54.7445 73.8147 54.8084 73.5845 54.9363C73.3573 55.0641 73.1769 55.2516 73.0433 55.4988C72.9127 55.7431 72.8473 56.0385 72.8473 56.3851ZM81.7294 62.8624C81.2095 62.8624 80.762 62.7942 80.387 62.6578C80.0149 62.5215 79.7109 62.3411 79.4751 62.1167C79.2393 61.8922 79.0632 61.6465 78.9467 61.3794L80.0419 60.9277C80.1186 61.0527 80.2208 61.1848 80.3487 61.324C80.4794 61.4661 80.6555 61.5868 80.8771 61.6863C81.1015 61.7857 81.3899 61.8354 81.7422 61.8354C82.2251 61.8354 82.6243 61.7175 82.9396 61.4817C83.2549 61.2488 83.4126 60.8766 83.4126 60.3652V59.0783H83.3316C83.2549 59.2175 83.1441 59.3723 82.9993 59.5428C82.8572 59.7132 82.6612 59.861 82.4112 59.986C82.1612 60.111 81.8359 60.1735 81.4353 60.1735C80.9183 60.1735 80.4524 60.0527 80.0376 59.8113C79.6257 59.5669 79.299 59.2076 79.0575 58.7331C78.8189 58.2559 78.6995 57.6692 78.6995 56.9732C78.6995 56.2772 78.8174 55.6806 79.0532 55.1834C79.2919 54.6863 79.6186 54.3056 80.0333 54.0414C80.4481 53.7743 80.9183 53.6408 81.4439 53.6408C81.8501 53.6408 82.1782 53.709 82.4282 53.8453C82.6782 53.9789 82.8728 54.1351 83.012 54.3141C83.1541 54.4931 83.2635 54.6507 83.3402 54.7871H83.4339V53.726H84.6825V60.4164C84.6825 60.9789 84.5518 61.4405 84.2904 61.8013C84.0291 62.1621 83.6754 62.4292 83.2294 62.6025C82.7862 62.7757 82.2862 62.8624 81.7294 62.8624ZM81.7166 59.1167C82.0831 59.1167 82.3927 59.0314 82.6456 58.861C82.9012 58.6877 83.0944 58.4405 83.2251 58.1195C83.3586 57.7956 83.4254 57.4078 83.4254 56.9561C83.4254 56.5158 83.3601 56.128 83.2294 55.7928C83.0987 55.4576 82.9069 55.1962 82.6541 55.0087C82.4012 54.8184 82.0887 54.7232 81.7166 54.7232C81.3331 54.7232 81.0135 54.8226 80.7578 55.0215C80.5021 55.2175 80.3089 55.4846 80.1782 55.8226C80.0504 56.1607 79.9865 56.5385 79.9865 56.9561C79.9865 57.3851 80.0518 57.7615 80.1825 58.0854C80.3132 58.4093 80.5064 58.6621 80.762 58.8439C81.0206 59.0257 81.3387 59.1167 81.7166 59.1167ZM90.0471 60.2715V53.726H91.3212V60.2715H90.0471ZM90.6905 52.7161C90.469 52.7161 90.2786 52.6422 90.1195 52.4945C89.9633 52.3439 89.8851 52.1649 89.8851 51.9576C89.8851 51.7473 89.9633 51.5684 90.1195 51.4206C90.2786 51.2701 90.469 51.1948 90.6905 51.1948C90.9121 51.1948 91.1011 51.2701 91.2573 51.4206C91.4164 51.5684 91.4959 51.7473 91.4959 51.9576C91.4959 52.1649 91.4164 52.3439 91.2573 52.4945C91.1011 52.6422 90.9121 52.7161 90.6905 52.7161ZM98.1802 55.324L97.0254 55.5286C96.9771 55.3809 96.9004 55.2402 96.7953 55.1067C96.693 54.9732 96.5538 54.8638 96.3776 54.7786C96.2015 54.6934 95.9813 54.6507 95.7171 54.6507C95.3563 54.6507 95.0552 54.7317 94.8137 54.8936C94.5722 55.0527 94.4515 55.2587 94.4515 55.5115C94.4515 55.7303 94.5325 55.9064 94.6944 56.04C94.8563 56.1735 95.1177 56.2828 95.4785 56.3681L96.5183 56.6067C97.1205 56.7459 97.5694 56.9604 97.8649 57.2502C98.1603 57.54 98.308 57.9164 98.308 58.3794C98.308 58.7715 98.1944 59.1209 97.9671 59.4277C97.7427 59.7317 97.4288 59.9703 97.0254 60.1436C96.6248 60.3169 96.1603 60.4036 95.6319 60.4036C94.8989 60.4036 94.3009 60.2473 93.8379 59.9348C93.3748 59.6195 93.0907 59.1721 92.9856 58.5925L94.2171 58.405C94.2938 58.726 94.4515 58.9689 94.6901 59.1337C94.9288 59.2956 95.2399 59.3766 95.6234 59.3766C96.041 59.3766 96.3748 59.29 96.6248 59.1167C96.8748 58.9405 96.9998 58.726 96.9998 58.4732C96.9998 58.2686 96.9231 58.0968 96.7697 57.9576C96.6191 57.8184 96.3876 57.7132 96.0751 57.6422L94.9671 57.3993C94.3563 57.2601 93.9046 57.0385 93.612 56.7346C93.3222 56.4306 93.1774 56.0456 93.1774 55.5797C93.1774 55.1934 93.2853 54.8553 93.5012 54.5655C93.7171 54.2757 94.0154 54.0499 94.3961 53.888C94.7768 53.7232 95.2129 53.6408 95.7043 53.6408C96.4117 53.6408 96.9685 53.7942 97.3748 54.101C97.781 54.405 98.0495 54.8127 98.1802 55.324ZM106.186 60.4036C105.541 60.4036 104.985 60.2658 104.52 59.9902C104.056 59.7118 103.699 59.3212 103.446 58.8184C103.196 58.3127 103.071 57.7203 103.071 57.0414C103.071 56.3709 103.196 55.78 103.446 55.2686C103.699 54.7573 104.051 54.3581 104.503 54.0712C104.957 53.7843 105.488 53.6408 106.096 53.6408C106.466 53.6408 106.824 53.7019 107.17 53.824C107.517 53.9462 107.828 54.138 108.103 54.3993C108.379 54.6607 108.596 55.0002 108.755 55.4178C108.914 55.8326 108.994 56.3368 108.994 56.9306V57.3823H103.791V56.4277H107.745C107.745 56.0925 107.677 55.7956 107.541 55.5371C107.405 55.2757 107.213 55.0698 106.966 54.9192C106.721 54.7686 106.434 54.6934 106.105 54.6934C105.747 54.6934 105.434 54.7814 105.167 54.9576C104.903 55.1309 104.699 55.3581 104.554 55.6394C104.412 55.9178 104.341 56.2203 104.341 56.5471V57.2928C104.341 57.7303 104.417 58.1025 104.571 58.4093C104.727 58.7161 104.944 58.9505 105.223 59.1124C105.501 59.2715 105.826 59.351 106.199 59.351C106.44 59.351 106.66 59.3169 106.859 59.2488C107.058 59.1777 107.23 59.0726 107.375 58.9334C107.52 58.7942 107.63 58.6223 107.707 58.4178L108.913 58.6351C108.816 58.9902 108.643 59.3013 108.393 59.5684C108.146 59.8326 107.835 60.0385 107.46 60.1863C107.088 60.3311 106.663 60.4036 106.186 60.4036ZM112.553 60.4164C112.138 60.4164 111.763 60.3397 111.428 60.1863C111.092 60.03 110.827 59.8042 110.631 59.5087C110.437 59.2132 110.341 58.851 110.341 58.4221C110.341 58.0527 110.412 57.7488 110.554 57.5101C110.696 57.2715 110.888 57.0826 111.129 56.9434C111.371 56.8042 111.641 56.699 111.939 56.628C112.237 56.557 112.541 56.503 112.851 56.4661C113.243 56.4206 113.561 56.3837 113.805 56.3553C114.05 56.324 114.227 56.2743 114.338 56.2061C114.449 56.138 114.504 56.0272 114.504 55.8738V55.8439C114.504 55.4718 114.399 55.1834 114.189 54.9789C113.982 54.7743 113.672 54.6721 113.26 54.6721C112.831 54.6721 112.493 54.7672 112.246 54.9576C112.001 55.1451 111.832 55.3539 111.739 55.584L110.541 55.3113C110.683 54.9135 110.891 54.5925 111.163 54.3482C111.439 54.101 111.756 53.9221 112.114 53.8113C112.472 53.6976 112.848 53.6408 113.243 53.6408C113.504 53.6408 113.781 53.6721 114.074 53.7346C114.369 53.7942 114.645 53.905 114.901 54.0669C115.159 54.2289 115.371 54.4604 115.535 54.7615C115.7 55.0598 115.783 55.4476 115.783 55.9249V60.2715H114.538V59.3766H114.487C114.405 59.5414 114.281 59.7033 114.116 59.8624C113.952 60.0215 113.74 60.1536 113.482 60.2587C113.223 60.3638 112.913 60.4164 112.553 60.4164ZM112.83 59.3936C113.182 59.3936 113.483 59.324 113.733 59.1848C113.986 59.0456 114.178 58.8638 114.308 58.6394C114.442 58.4121 114.508 58.1692 114.508 57.9107V57.0669C114.463 57.1124 114.375 57.155 114.244 57.1948C114.116 57.2317 113.97 57.2644 113.805 57.2928C113.641 57.3184 113.48 57.3425 113.324 57.3652C113.168 57.3851 113.037 57.4022 112.932 57.4164C112.685 57.4476 112.459 57.5002 112.254 57.574C112.053 57.6479 111.891 57.7544 111.768 57.8936C111.649 58.03 111.589 58.2118 111.589 58.4391C111.589 58.7544 111.706 58.9931 111.939 59.155C112.172 59.3141 112.469 59.3936 112.83 59.3936ZM122.625 55.324L121.47 55.5286C121.421 55.3809 121.345 55.2402 121.24 55.1067C121.137 54.9732 120.998 54.8638 120.822 54.7786C120.646 54.6934 120.426 54.6507 120.162 54.6507C119.801 54.6507 119.5 54.7317 119.258 54.8936C119.017 55.0527 118.896 55.2587 118.896 55.5115C118.896 55.7303 118.977 55.9064 119.139 56.04C119.301 56.1735 119.562 56.2828 119.923 56.3681L120.963 56.6067C121.565 56.7459 122.014 56.9604 122.309 57.2502C122.605 57.54 122.752 57.9164 122.752 58.3794C122.752 58.7715 122.639 59.1209 122.412 59.4277C122.187 59.7317 121.873 59.9703 121.47 60.1436C121.069 60.3169 120.605 60.4036 120.076 60.4036C119.343 60.4036 118.745 60.2473 118.282 59.9348C117.819 59.6195 117.535 59.1721 117.43 58.5925L118.662 58.405C118.738 58.726 118.896 58.9689 119.135 59.1337C119.373 59.2956 119.684 59.3766 120.068 59.3766C120.485 59.3766 120.819 59.29 121.069 59.1167C121.319 58.9405 121.444 58.726 121.444 58.4732C121.444 58.2686 121.367 58.0968 121.214 57.9576C121.063 57.8184 120.832 57.7132 120.519 57.6422L119.412 57.3993C118.801 57.2601 118.349 57.0385 118.056 56.7346C117.767 56.4306 117.622 56.0456 117.622 55.5797C117.622 55.1934 117.73 54.8553 117.946 54.5655C118.162 54.2757 118.46 54.0499 118.84 53.888C119.221 53.7232 119.657 53.6408 120.149 53.6408C120.856 53.6408 121.413 53.7942 121.819 54.101C122.225 54.405 122.494 54.8127 122.625 55.324ZM125.199 62.726C125.008 62.726 124.835 62.7104 124.679 62.6792C124.523 62.6507 124.406 62.6195 124.329 62.5854L124.636 61.5414C124.869 61.6039 125.077 61.6309 125.258 61.6223C125.44 61.6138 125.601 61.5456 125.74 61.4178C125.882 61.29 126.007 61.0811 126.115 60.7914L126.273 60.3567L123.878 53.726H125.241L126.899 58.8056H126.967L128.625 53.726H129.993L127.295 61.1451C127.17 61.486 127.011 61.7743 126.818 62.0101C126.625 62.2488 126.395 62.4277 126.128 62.5471C125.861 62.6664 125.551 62.726 125.199 62.726Z" fill="#525961"/>
<defs>
<filter id="filter0_d_377_1121" x="0" y="0.817871" width="146.289" height="74.707" filterUnits="userSpaceOnUse" color-interpolation-filters="sRGB">
<feFlood flood-opacity="0" result="BackgroundImageFix"/>
<feColorMatrix in="SourceAlpha" type="matrix" values="0 0 0 0 0 0 0 0 0 0 0 0 0 0 0 0 0 0 127 0" result="hardAlpha"/>
<feOffset dx="1"/>
<feGaussianBlur stdDeviation="2"/>
<feComposite in2="hardAlpha" operator="out"/>
<feColorMatrix type="matrix" values="0 0 0 0 0 0 0 0 0 0 0 0 0 0 0 0 0 0 0.25 0"/>
<feBlend mode="normal" in2="BackgroundImageFix" result="effect1_dropShadow_377_1121"/>
<feBlend mode="normal" in="SourceGraphic" in2="effect1_dropShadow_377_1121" result="shape"/>
</filter>
</defs>
</svg>
