<svg width="512" height="528" viewBox="0 0 512 528" fill="none" xmlns="http://www.w3.org/2000/svg">
<path d="M503.5 351.5C490 385 484 458.5 260 527.5C205.5 396.5 0 495.514 0 329C0 162.486 97.0764 17.0001 260 17.0001C541.5 -0.499865 511 258 503.5 351.5Z" fill="#F1F9FF"/>
<path d="M486.618 356.342C486.157 357.146 485.844 358.167 485.587 359.336C485.328 360.51 485.113 361.895 484.875 363.449L484.85 363.613C484.376 366.705 483.789 370.528 482.568 375.004C480.086 384.1 474.968 395.932 462.793 409.593C438.466 436.889 385.928 471.518 269.852 506.092C255.547 473.372 232.118 456.51 205.053 447.073C181.731 438.941 155.669 436.315 130.446 433.772C126.277 433.352 122.13 432.934 118.023 432.494C88.9939 429.384 61.9479 425.169 42.1434 411.395C22.4182 397.676 9.75 374.371 9.75 332.728C9.75 249.225 30.5265 171.917 72.0771 112.743C113.613 53.5911 175.93 12.5223 259.119 1.48601C332.222 -2.8949 385.52 12.6033 423.724 39.3711C461.934 66.1438 485.12 104.243 497.896 145.19C510.674 186.144 513.031 229.922 509.596 267.99C506.16 306.074 496.934 338.359 486.618 356.342Z" stroke="#8EBCDE" stroke-width="1.5"/>
</svg>
