<?xml version="1.0" encoding="UTF-8"?>
<svg version="1.1" xmlns="http://www.w3.org/2000/svg" width="256" height="256">
<path d="M0 0 C22.03852652 18.81159856 36.46579334 41.06373377 44.3515625 68.91015625 C44.69316406 70.08835937 45.03476563 71.2665625 45.38671875 72.48046875 C52.92056498 104.36791093 46.53869956 140.38566089 29.7109375 168.21484375 C11.42243893 197.30470432 -15.82417005 216.61472176 -48.6484375 225.91015625 C-49.82664063 226.25175781 -51.00484375 226.59335938 -52.21875 226.9453125 C-78.47842447 233.1495213 -108.14583514 229.67794972 -132.6484375 218.91015625 C-133.30263672 218.62688477 -133.95683594 218.34361328 -134.63085938 218.05175781 C-164.72593234 204.76588414 -188.43262339 179.18859339 -200.51953125 148.71386719 C-202.47890077 143.51521742 -204.1350825 138.25415274 -205.6484375 132.91015625 C-205.99003906 131.73195312 -206.33164063 130.55375 -206.68359375 129.33984375 C-214.21743998 97.45240157 -207.83557456 61.43465161 -191.0078125 33.60546875 C-172.71931393 4.51560818 -145.47270495 -14.79440926 -112.6484375 -24.08984375 C-111.47023438 -24.43144531 -110.29203125 -24.77304687 -109.078125 -25.125 C-71.91216204 -33.90596927 -29.43835184 -24.14652242 0 0 Z M-105.20507812 24.55639648 C-107.08647697 27.62448956 -107.10676205 29.6189552 -107.0390625 33.20703125 C-107.02617188 34.41230469 -107.01328125 35.61757813 -107 36.859375 C-106.94972656 38.74076172 -106.94972656 38.74076172 -106.8984375 40.66015625 C-106.88039062 41.92988281 -106.86234375 43.19960937 -106.84375 44.5078125 C-106.79660903 47.64268702 -106.73081414 50.77604185 -106.6484375 53.91015625 C-107.369104 53.8944458 -108.08977051 53.87873535 -108.83227539 53.86254883 C-112.12508165 53.79985138 -115.41776188 53.7610553 -118.7109375 53.72265625 C-119.84466797 53.69751953 -120.97839844 53.67238281 -122.14648438 53.64648438 C-128.40739394 53.59172423 -133.20279496 53.66996117 -138.6484375 56.91015625 C-141.06974081 60.54211121 -140.85866535 62.29364973 -140.7734375 66.59765625 C-140.74636719 68.36689453 -140.74636719 68.36689453 -140.71875 70.171875 C-140.69554687 71.07550781 -140.67234375 71.97914062 -140.6484375 72.91015625 C-141.26332031 72.87535156 -141.87820312 72.84054688 -142.51171875 72.8046875 C-143.72408203 72.76408203 -143.72408203 72.76408203 -144.9609375 72.72265625 C-145.76144531 72.68785156 -146.56195313 72.65304688 -147.38671875 72.6171875 C-150.22360024 72.9846592 -150.89284258 73.69556506 -152.6484375 75.91015625 C-153.10649744 77.91168059 -153.10649744 77.91168059 -153.05249023 80.13452148 C-153.06517441 80.98227646 -153.07785858 81.83003143 -153.09092712 82.70347595 C-153.08799149 83.61601639 -153.08505585 84.52855682 -153.08203125 85.46875 C-153.0872731 86.40944839 -153.09251495 87.35014679 -153.09791565 88.3193512 C-153.10433956 90.30900078 -153.10299409 92.29868833 -153.09448242 94.28833008 C-153.08597876 97.33288251 -153.11471836 100.3755552 -153.14648438 103.41992188 C-153.14809662 105.35286402 -153.14751841 107.28580949 -153.14453125 109.21875 C-153.15576523 110.1292662 -153.16699921 111.03978241 -153.17857361 111.97789001 C-153.13738856 117.05334297 -153.13738856 117.05334297 -150.88305664 121.50024414 C-147.30527553 123.75761177 -144.80212777 123.18706893 -140.6484375 122.91015625 C-140.66938477 123.58071045 -140.69033203 124.25126465 -140.71191406 124.94213867 C-140.79529777 127.99382405 -140.84716766 131.04526942 -140.8984375 134.09765625 C-140.93195313 135.15275391 -140.96546875 136.20785156 -141 137.29492188 C-141.12859953 143.48853881 -141.12859953 143.48853881 -138.7578125 149.0859375 C-135.44478276 151.9510947 -133.58819238 152.03333956 -129.28076172 152.02368164 C-127.59924515 152.02356834 -127.59924515 152.02356834 -125.88375854 152.02345276 C-124.66914948 152.01829147 -123.45454041 152.01313019 -122.203125 152.0078125 C-120.96297638 152.00639755 -119.72282776 152.0049826 -118.44509888 152.00352478 C-115.14725617 151.99886721 -111.84946204 151.98988064 -108.55163574 151.9788208 C-105.18677363 151.96859356 -101.82190442 151.96402434 -98.45703125 151.95898438 C-91.85414757 151.94793894 -85.25129651 151.93118872 -78.6484375 151.91015625 C-78.6484375 154.22015625 -78.6484375 156.53015625 -78.6484375 158.91015625 C-79.31488281 159.13703125 -79.98132813 159.36390625 -80.66796875 159.59765625 C-84.52847462 161.29769553 -87.85396606 163.54606313 -91.3359375 165.91015625 C-92.01205078 166.36132812 -92.68816406 166.8125 -93.38476562 167.27734375 C-96.01469284 169.04632962 -98.4007041 170.66242285 -100.6484375 172.91015625 C-100.32802353 175.51296193 -100.32802353 175.51296193 -99.6484375 177.91015625 C-96.83566437 178.72202416 -95.24186107 179.15678344 -92.49194336 178.01391602 C-91.78948486 177.54783936 -91.08702637 177.0817627 -90.36328125 176.6015625 C-89.58533203 176.10205078 -88.80738281 175.60253906 -88.00585938 175.08789062 C-86.80799805 174.28834961 -86.80799805 174.28834961 -85.5859375 173.47265625 C-83.9961381 172.42428251 -82.40125401 171.38356859 -80.80078125 170.3515625 C-80.09945068 169.88435791 -79.39812012 169.41715332 -78.67553711 168.93579102 C-76.6484375 167.91015625 -76.6484375 167.91015625 -72.6484375 167.91015625 C-70.74145508 168.81225586 -70.74145508 168.81225586 -68.79296875 170.0625 C-67.73625977 170.73249023 -67.73625977 170.73249023 -66.65820312 171.41601562 C-65.93310547 171.88845703 -65.20800781 172.36089844 -64.4609375 172.84765625 C-63.35588867 173.55051758 -63.35588867 173.55051758 -62.22851562 174.26757812 C-56.85590721 177.70268654 -56.85590721 177.70268654 -55.6484375 178.91015625 C-53.19033752 179.16023355 -53.19033752 179.16023355 -50.6484375 178.91015625 C-49.9884375 178.25015625 -49.3284375 177.59015625 -48.6484375 176.91015625 C-48.62718802 174.42247794 -48.62718802 174.42247794 -49.6484375 171.91015625 C-51.611951 170.00328473 -51.611951 170.00328473 -54.1484375 168.47265625 C-55.045625 167.88484375 -55.9428125 167.29703125 -56.8671875 166.69140625 C-57.785 166.10359375 -58.7028125 165.51578125 -59.6484375 164.91015625 C-61.31569005 163.76517558 -62.9824024 162.61940768 -64.6484375 161.47265625 C-67.41039092 159.43147861 -67.41039092 159.43147861 -70.6484375 158.91015625 C-70.6484375 156.60015625 -70.6484375 154.29015625 -70.6484375 151.91015625 C-69.95796829 151.9190387 -69.26749908 151.92792114 -68.55610657 151.93707275 C-61.36992673 152.02556441 -54.18390168 152.08589856 -46.99731445 152.12988281 C-44.31515927 152.1477395 -41.6333829 152.17557061 -38.95141602 152.21191406 C-35.09640684 152.26043167 -31.24197752 152.28312619 -27.38671875 152.30078125 C-26.18759354 152.32142639 -24.98846832 152.34207153 -23.75300598 152.36334229 C-17.27742667 152.43517711 -17.27742667 152.43517711 -11.41479492 150.01074219 C-8.17350404 146.15613724 -8.48205018 142.81357073 -8.45556641 137.97558594 C-8.44738892 137.15587814 -8.43921143 136.33617035 -8.43078613 135.49162292 C-8.40592087 132.7717665 -8.38941234 130.05196234 -8.375 127.33203125 C-8.36701448 125.93936413 -8.36701448 125.93936413 -8.35886765 124.51856232 C-8.33212983 119.60336634 -8.31275785 114.68819582 -8.29833984 109.77294922 C-8.28169969 104.69739801 -8.23692912 99.6224971 -8.1859684 94.54719162 C-8.15229922 90.64379131 -8.14076272 86.74054531 -8.13511276 82.83701324 C-8.12839827 80.96631151 -8.11317102 79.09561999 -8.08922195 77.22505951 C-8.05757696 74.60360392 -8.05753238 71.9839014 -8.06494141 69.36230469 C-8.04853607 68.59220566 -8.03213074 67.82210663 -8.01522827 67.02867126 C-8.08254581 61.19751321 -9.63404231 58.83403165 -13.6484375 54.91015625 C-16.8406439 53.4749538 -20.25873702 53.79550086 -23.7265625 53.8125 C-25.46679688 53.81733398 -25.46679688 53.81733398 -27.2421875 53.82226562 C-29.05203125 53.83483398 -29.05203125 53.83483398 -30.8984375 53.84765625 C-32.73148438 53.85442383 -32.73148438 53.85442383 -34.6015625 53.86132812 C-37.61723696 53.8731081 -40.63281248 53.88955772 -43.6484375 53.91015625 C-43.54402344 53.01554687 -43.43960938 52.1209375 -43.33203125 51.19921875 C-42.80017385 43.78978704 -42.80017385 43.78978704 -45.37109375 37 C-47.68251531 34.43483748 -50.03635003 32.16976032 -52.6484375 29.91015625 C-53.20053894 29.337742 -53.75264038 28.76532776 -54.32147217 28.17556763 C-58.68333299 23.86463309 -61.69928536 22.10661734 -67.85577393 22.01448059 C-68.72063416 22.03806137 -69.58549438 22.06164215 -70.4765625 22.0859375 C-71.38799011 22.08635544 -72.29941772 22.08677338 -73.23846436 22.08720398 C-75.15130961 22.09553754 -77.06414956 22.12084253 -78.9765625 22.16235352 C-81.90489991 22.22278962 -84.82893765 22.22390818 -87.7578125 22.21679688 C-89.62242783 22.23219625 -91.48701908 22.25095879 -93.3515625 22.2734375 C-94.22451965 22.27475174 -95.09747681 22.27606598 -95.99688721 22.27742004 C-99.74847856 22.38006457 -102.00466235 22.49562456 -105.20507812 24.55639648 Z " fill="#9C26B0" transform="translate(208.6484375,27.08984375)"/>
<path d="M0 0 C4.31248609 -0.02886537 8.62494762 -0.04675255 12.9375 -0.0625 C14.16919922 -0.07087891 15.40089844 -0.07925781 16.66992188 -0.08789062 C17.83974609 -0.09111328 19.00957031 -0.09433594 20.21484375 -0.09765625 C21.84087524 -0.10551147 21.84087524 -0.10551147 23.49975586 -0.11352539 C26 0 26 0 27 1 C27.09500705 3.46448128 27.12556678 5.9007083 27.11352539 8.36547852 C27.11364593 9.14866172 27.11376646 9.93184492 27.11389065 10.73876095 C27.11314152 13.28550448 27.10551331 15.83217573 27.09765625 18.37890625 C27.09618683 19.94657353 27.09516612 21.51424131 27.09460449 23.08190918 C27.08935161 28.90878025 27.07539052 34.73564082 27.0625 40.5625 C27.041875 53.576875 27.02125 66.59125 27 80 C-11.28 80 -49.56 80 -89 80 C-89 73.4 -89 66.8 -89 60 C-84.19190183 61.60269939 -83.09510028 65.98960841 -80.81640625 70.3125 C-79.28011763 73.13180618 -79.28011763 73.13180618 -76.77734375 73.875 C-76.19082031 73.91625 -75.60429688 73.9575 -75 74 C-74.06100025 72.60517513 -73.12387489 71.20908834 -72.1875 69.8125 C-71.66542969 69.03519531 -71.14335938 68.25789063 -70.60546875 67.45703125 C-68.91392008 65.03567209 -68.91392008 65.03567209 -67.86328125 62.23828125 C-66 60 -66 60 -64.12573242 59.56079102 C-61.73982064 59.38868652 -59.39195907 59.35243435 -57 59.375 C-55.37494783 59.375 -53.74983527 59.3624871 -52.125 59.3359375 C-51.04605469 59.34439697 -51.04605469 59.34439697 -49.9453125 59.35302734 C-47.35004382 58.88204861 -46.51962773 58.14448328 -45 56 C-44.49669238 53.58936558 -44.49669238 53.58936558 -44.48828125 50.89453125 C-44.45283203 49.91162109 -44.41738281 48.92871094 -44.38085938 47.91601562 C-44.35830078 46.89185547 -44.33574219 45.86769531 -44.3125 44.8125 C-44.27833984 43.77673828 -44.24417969 42.74097656 -44.20898438 41.67382812 C-44.12647358 39.1159934 -44.05733428 36.55850277 -44 34 C-42.68 34 -41.36 34 -40 34 C-39.505 38.95 -39.505 38.95 -39 44 C-31.58540058 44.02312883 -24.17080889 44.04091785 -16.75618076 44.05181217 C-13.31359652 44.05703982 -9.87103688 44.06413531 -6.4284668 44.07543945 C-2.47444957 44.08834235 1.47955756 44.09322918 5.43359375 44.09765625 C6.67523788 44.10281754 7.91688202 44.10797882 9.19615173 44.11329651 C10.90781273 44.11340981 10.90781273 44.11340981 12.65405273 44.11352539 C13.664431 44.115746 14.67480927 44.11796661 15.71580505 44.12025452 C17.96580854 44.25717605 17.96580854 44.25717605 19 43 C19.10087212 40.49075847 19.13972032 38.00963616 19.1328125 35.5 C19.13424759 34.37368164 19.13424759 34.37368164 19.13571167 33.22460938 C19.13639338 31.63411373 19.13453972 30.04361533 19.13037109 28.453125 C19.12502267 26.01035345 19.13031634 23.56776579 19.13671875 21.125 C19.13605797 19.58333293 19.1347768 18.04166597 19.1328125 16.5 C19.13584885 15.39688477 19.13584885 15.39688477 19.13894653 14.27148438 C19.43056513 10.84753658 19.43056513 10.84753658 18 8 C16.65984779 7.84417697 15.31241097 7.74955858 13.96484375 7.68359375 C13.15595703 7.64169922 12.34707031 7.59980469 11.51367188 7.55664062 C10.2384668 7.49766602 10.2384668 7.49766602 8.9375 7.4375 C8.08349609 7.39431641 7.22949219 7.35113281 6.34960938 7.30664062 C4.23327963 7.20023298 2.11666187 7.09958269 0 7 C0 4.69 0 2.38 0 0 Z M-38.83984375 52.35920715 C-40.27708767 54.0240649 -40.27708767 54.0240649 -39.8125 56.625 C-39.25355766 59.16552003 -39.25355766 59.16552003 -37 60 C-35.2901201 60.10070285 -33.57635424 60.13836067 -31.86352539 60.14526367 C-30.79223892 60.15164352 -29.72095245 60.15802338 -28.61720276 60.16459656 C-26.87502724 60.16626579 -26.87502724 60.16626579 -25.09765625 60.16796875 C-23.90901474 60.17129715 -22.72037323 60.17462555 -21.49571228 60.17805481 C-18.97802112 60.18312499 -16.46032322 60.18546311 -13.94262695 60.18530273 C-10.08208188 60.18748891 -6.22182258 60.20564312 -2.36132812 60.22460938 C0.08072819 60.22754328 2.52278586 60.22952809 4.96484375 60.23046875 C6.12426987 60.23765427 7.28369598 60.24483978 8.47825623 60.25224304 C9.55269485 60.24916641 10.62713348 60.24608978 11.73413086 60.24291992 C12.68074081 60.24434494 13.62735077 60.24576996 14.60264587 60.24723816 C17.26353838 60.16116476 17.26353838 60.16116476 20 58 C20.5 55.5 20.5 55.5 20 53 C16.67821887 50.78547925 15.62113646 50.74424383 11.75 50.7253418 C10.67878906 50.71580978 9.60757813 50.70627777 8.50390625 50.69645691 C7.34761719 50.69736832 6.19132812 50.69827972 5 50.69921875 C3.81277344 50.69493362 2.62554687 50.6906485 1.40234375 50.68623352 C-1.10936851 50.680487 -3.62109741 50.67999231 -6.1328125 50.68432617 C-9.98466224 50.68748741 -13.83574521 50.66402532 -17.6875 50.63867188 C-20.12499903 50.63639913 -22.56250013 50.63569527 -25 50.63671875 C-26.15628906 50.627509 -27.31257813 50.61829926 -28.50390625 50.60881042 C-29.57511719 50.61503922 -30.64632812 50.62126801 -31.75 50.62768555 C-33.16539062 50.62674141 -33.16539062 50.62674141 -34.609375 50.6257782 C-37.05228339 50.81932624 -37.05228339 50.81932624 -38.83984375 52.35920715 Z M-38 66 C-40.264384 68.69155201 -40.264384 68.69155201 -39.75 71.0625 C-39.07467282 73.19476975 -39.07467282 73.19476975 -37 75 C-34.63593511 75.31333392 -34.63593511 75.31333392 -31.86352539 75.2746582 C-30.25659569 75.28895622 -30.25659569 75.28895622 -28.61720276 75.30354309 C-27.45575241 75.30263168 -26.29430206 75.30172028 -25.09765625 75.30078125 C-23.31469398 75.30720894 -23.31469398 75.30720894 -21.49571228 75.31376648 C-18.97802366 75.31951819 -16.46031842 75.32000389 -13.94262695 75.31567383 C-10.0819066 75.31251587 -6.22195352 75.33595682 -2.36132812 75.36132812 C0.0807282 75.36360115 2.52278659 75.3643046 4.96484375 75.36328125 C6.12426987 75.372491 7.28369598 75.38170074 8.47825623 75.39118958 C9.55269485 75.38496078 10.62713348 75.37873199 11.73413086 75.37231445 C12.68074081 75.37294388 13.62735077 75.3735733 14.60264587 75.3742218 C17.05176151 75.18097908 17.05176151 75.18097908 18.84474182 73.64079285 C20.28471816 71.97359782 20.28471816 71.97359782 19.75 69.375 C19.22254355 67.0687593 19.22254355 67.0687593 18 66 C16.2618027 65.89066701 14.51917862 65.85092052 12.77758789 65.83886719 C11.1056411 65.82445587 11.1056411 65.82445587 9.3999176 65.80975342 C8.18642136 65.80550354 6.97292511 65.80125366 5.72265625 65.796875 C3.86742592 65.78832489 3.86742592 65.78832489 1.97471619 65.77960205 C-0.6472996 65.77013521 -3.26932737 65.76361142 -5.89135742 65.75976562 C-8.58713218 65.75536755 -11.28258927 65.74142953 -13.97827148 65.71875 C-17.84889545 65.68842375 -21.71911452 65.6777327 -25.58984375 65.671875 C-26.80131577 65.6595282 -28.01278778 65.6471814 -29.26097107 65.63446045 C-30.9376461 65.6389621 -30.9376461 65.6389621 -32.64819336 65.64355469 C-33.63556992 65.63990906 -34.62294647 65.63626343 -35.64024353 65.63250732 C-36.41896317 65.75377991 -37.1976828 65.87505249 -38 66 Z " fill="#9B25AE" transform="translate(165,90)"/>
<path d="M0 0 C8.25 0 16.5 0 25 0 C25.375 7.3125 25.375 7.3125 25.47802734 9.6027832 C25.69161718 13.21109834 25.95368971 14.93053457 28 18 C31.46712111 19.15570704 34.5414956 19.32835293 38.1875 19.5625 C41.5596875 19.7790625 41.5596875 19.7790625 45 20 C45 25.94 45 31.88 45 38 C41.87724609 38.09087891 41.87724609 38.09087891 38.69140625 38.18359375 C36.68252498 38.24615407 34.67364459 38.30874775 32.66479492 38.37231445 C31.26510801 38.41571434 29.86536641 38.45738564 28.46557617 38.49731445 C26.45738505 38.55489445 24.44938851 38.61914 22.44140625 38.68359375 C20.62684937 38.73858032 20.62684937 38.73858032 18.77563477 38.79467773 C16.09294544 38.68938266 16.09294544 38.68938266 15 40 C14.76321284 42.69235776 14.57801975 45.36498156 14.4375 48.0625 C14.39431641 48.82111328 14.35113281 49.57972656 14.30664062 50.36132812 C14.20026367 52.24065438 14.09960066 54.12030244 14 56 C12.68 56 11.36 56 10 56 C9.95101562 55.15695313 9.90203125 54.31390625 9.8515625 53.4453125 C9.73941406 51.80175781 9.73941406 51.80175781 9.625 50.125 C9.55539063 49.03445312 9.48578125 47.94390625 9.4140625 46.8203125 C9.26746509 43.86953526 9.26746509 43.86953526 7 42 C4.69 41.67 2.38 41.34 0 41 C0 27.47 0 13.94 0 0 Z " fill="#9C26AF" transform="translate(111,59)"/>
<path d="M0 0 C15.84 0 31.68 0 48 0 C48 10.56 48 21.12 48 32 C39.6875 32.3125 39.6875 32.3125 37.08081055 32.38793945 C36.39801025 32.42105225 35.71520996 32.45416504 35.01171875 32.48828125 C33.96697388 32.52755737 33.96697388 32.52755737 32.90112305 32.56762695 C28.39833759 33.59169695 26.33792884 38.37217939 24 42 C22.04595302 40.23205273 20.79878054 38.66195132 19.4375 36.375 C18.22087094 33.88809625 18.22087094 33.88809625 16 33 C13.28573859 32.76759495 10.59366233 32.58091198 7.875 32.4375 C5.27625 32.293125 2.6775 32.14875 0 32 C0 21.44 0 10.88 0 0 Z M14 2 C10.23621943 6.20557874 10.58002811 10.73619294 10.6875 16.0625 C10.68427734 16.86494141 10.68105469 17.66738281 10.67773438 18.49414062 C10.59852776 24.10989655 10.59852776 24.10989655 13 29 C15.51154745 30.02074317 16.62202123 30.14423152 19.18237305 29.16723633 C21.69240372 27.72846075 24.19911572 26.28853492 26.6875 24.8125 C28.00717773 24.0690332 28.00717773 24.0690332 29.35351562 23.31054688 C30.18947266 22.82263672 31.02542969 22.33472656 31.88671875 21.83203125 C32.65201904 21.38577393 33.41731934 20.9395166 34.20581055 20.47973633 C36.12867995 19.12136974 36.12867995 19.12136974 36.88183594 16.97802734 C37.23869505 14.72759192 37.23869505 14.72759192 35.00390625 12.51953125 C31.79221835 9.8257228 28.58408654 7.7254121 24.9375 5.6875 C24.32583984 5.32849609 23.71417969 4.96949219 23.08398438 4.59960938 C19.69969541 2.67879672 17.98642033 2 14 2 Z " fill="#9B26B0" transform="translate(65,109)"/>
<path d="M0 0 C13.86 0 27.72 0 42 0 C42 6.6 42 13.2 42 20 C28.14 20 14.28 20 0 20 C0 13.4 0 6.8 0 0 Z " fill="#9C27B0" transform="translate(134,106)"/>
<path d="M0 0 C1.5631897 0.00785522 1.5631897 0.00785522 3.15795898 0.01586914 C4.28266602 0.0190918 5.40737305 0.02231445 6.56616211 0.02563477 C7.75016602 0.03401367 8.93416992 0.04239258 10.15405273 0.05102539 C11.34192383 0.05553711 12.52979492 0.06004883 13.75366211 0.06469727 C16.69967499 0.07652864 19.64558954 0.09301252 22.59155273 0.11352539 C22.59155273 3.41352539 22.59155273 6.71352539 22.59155273 10.11352539 C14.01155273 10.11352539 5.43155273 10.11352539 -3.40844727 10.11352539 C-3.40844727 0.16066173 -3.40844727 0.16066173 0 0 Z " fill="#9C26AF" transform="translate(79.408447265625,89.886474609375)"/>
<path d="M0 0 C3.23585361 1.61792681 4.83246068 2.55804109 7.25 5 C8.03117188 5.7734375 8.03117188 5.7734375 8.828125 6.5625 C10 8 10 8 10 10 C6.7 10 3.4 10 0 10 C0 6.7 0 3.4 0 0 Z " fill="#9C24AE" transform="translate(145,60)"/>
<path d="M0 0 C0.99 0.33 1.98 0.66 3 1 C3 1.66 3 2.32 3 3 C2.01 3 1.02 3 0 3 C0 2.01 0 1.02 0 0 Z " fill="#A427B9" transform="translate(85,123)"/>
</svg>
