<svg width="200" height="282" viewBox="0 0 200 282" fill="none" xmlns="http://www.w3.org/2000/svg">
<path d="M99.8781 281.288L18.4859 258.695L0.347656 55.2798H199.652L181.495 258.664L99.8781 281.288Z" fill="#264DE4"/>
<path d="M165.951 245.713L181.466 71.9116H100V263.994L165.951 245.713Z" fill="#2965F1"/>
<path d="M41.9293 147.356L44.1652 172.304H100V147.356H41.9293ZM37.4355 96.8604L39.7035 121.808H100V96.8604H37.4355ZM100 212.148L99.891 212.177L72.1035 204.675L70.327 184.778H45.2801L48.7754 223.95L99.8855 238.136L100 238.105V212.148Z" fill="#EBEBEB"/>
<path d="M157.912 147.356L162.415 96.8604H99.9139V121.808H135.072L132.801 147.356H99.9139V172.304H130.638L127.741 204.659L99.9131 212.169V238.124L151.064 223.95L151.439 219.735L157.303 154.055L157.912 147.356Z" fill="white"/>
</svg>
