<svg width="200" height="200" viewBox="0 0 200 200" fill="none" xmlns="http://www.w3.org/2000/svg">
<path d="M153.125 0H46.875C20.9867 0 0 20.9867 0 46.875V153.125C0 179.013 20.9867 200 46.875 200H153.125C179.013 200 200 179.013 200 153.125V46.875C200 20.9867 179.013 0 153.125 0Z" fill="#E14E1D"/>
<path d="M37.5 29.6875L44.2266 105.151H130.719L127.816 137.518L99.968 145.048L72.1719 137.529L70.3133 116.746H45.2656L48.8477 156.809L99.9625 171.006L151.142 156.809L158.004 80.1992H67.05L64.7664 54.6445H160.265L162.5 29.6875H37.5Z" fill="white"/>
<path d="M100 29.6875H37.5L44.2266 105.151H100V80.1992H67.05L64.7664 54.6445H100V29.6875ZM100 145.037L99.968 145.048L72.1719 137.529L70.3133 116.746H45.2656L48.8477 156.809L99.9625 171.006L100.001 170.995L100 145.037Z" fill="#EBEBEB"/>
</svg>
