<svg width="22" height="22" viewBox="0 0 22 22" fill="none" xmlns="http://www.w3.org/2000/svg">
<path d="M15.081 11.781C15.1811 11.6764 15.2596 11.553 15.312 11.418C15.422 11.1502 15.422 10.8498 15.312 10.582C15.2596 10.447 15.1811 10.3236 15.081 10.219L11.781 6.919C11.5739 6.71187 11.2929 6.5955 11 6.5955C10.7071 6.5955 10.4261 6.71187 10.219 6.919C10.0119 7.12614 9.8955 7.40707 9.8955 7.7C9.8955 7.99294 10.0119 8.27387 10.219 8.481L11.649 9.9H7.7C7.40827 9.9 7.12848 10.0159 6.92219 10.2222C6.7159 10.4285 6.6 10.7083 6.6 11C6.6 11.2917 6.7159 11.5715 6.92219 11.7778C7.12848 11.9841 7.40827 12.1 7.7 12.1H11.649L10.219 13.519C10.1159 13.6213 10.0341 13.7429 9.97822 13.877C9.92238 14.011 9.89363 14.1548 9.89363 14.3C9.89363 14.4452 9.92238 14.589 9.97822 14.723C10.0341 14.8571 10.1159 14.9787 10.219 15.081C10.3213 15.1841 10.4429 15.2659 10.577 15.3218C10.711 15.3776 10.8548 15.4064 11 15.4064C11.1452 15.4064 11.289 15.3776 11.423 15.3218C11.5571 15.2659 11.6787 15.1841 11.781 15.081L15.081 11.781ZM22 11C22 8.82441 21.3549 6.69767 20.1462 4.88873C18.9375 3.07979 17.2195 1.66989 15.2095 0.83733C13.1995 0.00476612 10.9878 -0.213071 8.85401 0.211367C6.72022 0.635804 4.76021 1.68345 3.22183 3.22183C1.68345 4.76021 0.635804 6.72022 0.211367 8.85401C-0.213071 10.9878 0.00476612 13.1995 0.83733 15.2095C1.66989 17.2195 3.07979 18.9375 4.88873 20.1462C6.69767 21.3549 8.82441 22 11 22C13.9174 22 16.7153 20.8411 18.7782 18.7782C20.8411 16.7153 22 13.9174 22 11ZM2.2 11C2.2 9.25953 2.71612 7.55814 3.68307 6.11099C4.65003 4.66383 6.0244 3.53592 7.63239 2.86986C9.24038 2.20381 11.0098 2.02954 12.7168 2.36909C14.4238 2.70864 15.9918 3.54676 17.2225 4.77746C18.4532 6.00817 19.2914 7.57618 19.6309 9.28321C19.9705 10.9902 19.7962 12.7596 19.1301 14.3676C18.4641 15.9756 17.3362 17.35 15.889 18.3169C14.4419 19.2839 12.7405 19.8 11 19.8C8.6661 19.8 6.42778 18.8729 4.77746 17.2225C3.12714 15.5722 2.2 13.3339 2.2 11Z" fill="black"/>
</svg>
