<svg width="342" height="342" viewBox="0 0 342 342" fill="none" xmlns="http://www.w3.org/2000/svg">
<g clip-path="url(#clip0_327_1088)">
<path d="M123.379 268.226C122.637 267.014 121.054 266.636 119.845 267.38C118.636 268.124 118.258 269.71 119 270.921L124.925 280.574C125.667 281.787 127.25 282.164 128.461 281.421C129.67 280.677 130.047 279.09 129.305 277.879L123.379 268.226Z" fill="#90A4AE"/>
<path fill-rule="evenodd" clip-rule="evenodd" d="M106.526 222.691C119.191 222.691 129.459 232.976 129.459 245.661C129.459 258.347 119.191 268.632 106.526 268.632C93.8607 268.632 83.5938 258.347 83.5938 245.661C83.5938 232.976 93.8607 222.691 106.526 222.691Z" fill="#80DEEA"/>
<path fill-rule="evenodd" clip-rule="evenodd" d="M42.6971 251.407L53.2609 249.962L53.373 252.796C53.4308 254.237 53.6815 257.371 54.7123 258.51C55.5072 259.391 56.5892 259.635 57.7421 259.635C58.669 259.635 59.586 259.469 60.3793 258.966C60.9928 258.576 61.4134 258.09 61.6526 257.4C62.1177 256.056 62.1507 253.797 62.1507 252.385V217.581H73.4698V252.037C73.4698 255.321 73.1763 259.136 71.8387 262.174C70.6644 264.832 68.7776 266.902 66.2327 268.301C63.6268 269.736 60.7306 270.306 57.775 270.306C53.5033 270.306 49.4361 269.153 46.469 265.939C43.4063 262.621 42.5734 257.989 42.6558 253.612L42.6971 251.407Z" fill="#FF6F00"/>
<mask id="mask0_327_1088" style="mask-type:luminance" maskUnits="userSpaceOnUse" x="138" y="217" width="42" height="53">
<path d="M138.911 217.526H179.378V269.64H138.911V217.526Z" fill="white"/>
</mask>
<g mask="url(#mask0_327_1088)">
<path fill-rule="evenodd" clip-rule="evenodd" d="M173.165 241.569C174.456 242.407 175.612 243.451 176.584 244.728C178.512 247.259 179.396 250.205 179.396 253.38C179.396 255.913 178.855 258.351 177.74 260.627C176.735 262.672 175.381 264.527 173.551 265.905C171.773 267.245 169.678 268.103 167.532 268.651C164.903 269.324 162.065 269.515 159.36 269.515H138.979V217.585H159.078C162.258 217.585 165.741 217.931 168.684 219.216C171.306 220.361 173.402 222.163 174.908 224.596C176.333 226.895 177.133 229.422 177.133 232.13C177.133 234.639 176.43 236.984 175.122 239.12C174.565 240.03 173.905 240.843 173.165 241.569ZM150.307 237.245H157.838C159.297 237.245 161.588 237.23 162.995 236.808C163.831 236.557 164.671 236.151 165.2 235.425C165.739 234.685 165.901 233.761 165.901 232.861C165.901 231.896 165.708 230.962 165.189 230.139C164.755 229.453 164.176 229.038 163.402 228.792C161.742 228.266 158.803 228.258 157.066 228.258H150.307V237.245ZM150.307 258.842H159.36C160.491 258.842 162.002 258.865 163.115 258.666C164.031 258.501 164.984 258.22 165.781 257.724C166.417 257.331 166.881 256.749 167.232 256.099C167.686 255.26 167.847 254.326 167.847 253.38C167.847 252.262 167.607 251.219 166.967 250.292C166.368 249.426 165.561 248.89 164.565 248.564C162.815 247.991 160.361 247.917 158.534 247.917H150.307V258.842Z" fill="#FF6F00"/>
</g>
<path fill-rule="evenodd" clip-rule="evenodd" d="M91.4327 221.076C97.964 217.053 105.759 215.805 113.213 217.589C120.624 219.359 126.883 224.035 131.001 230.424C131.125 230.617 131.049 230.488 131.168 230.698C134.988 237.26 136.332 244.956 134.564 252.373C132.796 259.793 128.128 266.062 121.752 270.189C121.556 270.316 121.681 270.237 121.477 270.357C114.924 274.18 107.241 275.528 99.8376 273.758C92.4289 271.985 86.1747 267.307 82.0531 260.925C81.9244 260.727 82.0019 260.852 81.8848 260.651C78.0617 254.087 76.7209 246.389 78.4889 238.972C80.2685 231.501 84.8998 225.097 91.4327 221.076ZM110.862 227.493C106.029 226.339 100.989 227.142 96.755 229.749C92.5245 232.354 89.5294 236.49 88.3765 241.329C87.227 246.155 88.0236 251.189 90.6064 255.423L90.6328 255.465C93.2222 259.712 97.3636 262.698 102.189 263.852C107.009 265.003 112.031 264.198 116.263 261.617L116.306 261.589C120.55 259.002 123.523 254.85 124.675 250.016C125.826 245.187 125.013 240.157 122.441 235.916L122.417 235.873C119.837 231.62 115.686 228.646 110.862 227.493Z" fill="#FFA000"/>
<mask id="mask1_327_1088" style="mask-type:luminance" maskUnits="userSpaceOnUse" x="121" y="274" width="27" height="34">
<path d="M121.239 274.444H147.778V307.917H121.239V274.444Z" fill="white"/>
</mask>
<g mask="url(#mask1_327_1088)">
<path d="M122.62 278.973L128.981 275.056C130.19 274.311 131.775 274.69 132.519 275.902C132.532 275.924 132.544 275.945 132.555 275.965L147.327 300.037L145.136 301.386L147.327 300.035C148.07 301.247 147.693 302.834 146.482 303.579C146.462 303.593 146.441 303.604 146.419 303.616L140.056 307.535C138.847 308.28 137.264 307.901 136.52 306.69C136.509 306.669 136.496 306.647 136.482 306.626L121.713 282.554L123.901 281.207L121.711 282.554C120.969 281.344 121.347 279.755 122.556 279.011C122.577 278.998 122.597 278.985 122.62 278.973Z" fill="#5D4037"/>
</g>
<path d="M121.368 279.744C120.159 280.489 119.78 282.074 120.523 283.286C121.267 284.495 122.851 284.875 124.06 284.131L132.862 278.711C134.071 277.967 134.449 276.382 133.705 275.17C132.963 273.958 131.379 273.58 130.17 274.324L121.368 279.744Z" fill="#6D4C41"/>
<path d="M89.5625 243.81C89.4867 244.407 89.9089 244.95 90.5043 245.026C91.0997 245.102 91.6423 244.679 91.7182 244.084C92.208 240.236 94.0899 236.867 96.8211 234.46C99.5458 232.054 103.121 230.612 106.997 230.612C107.365 230.612 107.715 230.624 108.045 230.645C108.404 230.67 108.752 230.705 109.089 230.751C109.684 230.832 110.232 230.413 110.312 229.816C110.392 229.22 109.974 228.671 109.379 228.592C108.973 228.536 108.577 228.495 108.19 228.47C107.776 228.44 107.377 228.427 106.997 228.427C102.574 228.427 98.4935 230.073 95.3813 232.819C92.269 235.565 90.1216 239.411 89.5625 243.81Z" fill="#ECEFF1"/>
</g>
<defs>
<clipPath id="clip0_327_1088">
<rect width="342" height="342" fill="white"/>
</clipPath>
</defs>
</svg>
