<svg width="103" height="183" viewBox="0 0 103 183" fill="none" xmlns="http://www.w3.org/2000/svg">
<path d="M101.872 85.6215C101.96 86.9186 102.02 88.223 102.049 89.5343L101.049 89.5568C101.064 90.2029 101.071 90.8507 101.071 91.5C101.071 92.1494 101.064 92.7972 101.049 93.4432L102.049 93.4658C102.02 94.777 101.96 96.0815 101.872 97.3785L100.875 97.3108C100.787 98.6033 100.67 99.8885 100.525 101.166L101.518 101.279C101.37 102.581 101.192 103.875 100.986 105.161L99.9988 105.002C99.7937 106.282 99.5598 107.552 99.2979 108.813L100.277 109.016C100.011 110.299 99.7155 111.572 99.3924 112.834L98.4236 112.586C98.1029 113.84 97.7542 115.083 97.3782 116.316L98.3347 116.607C97.953 117.859 97.5434 119.099 97.1067 120.328L96.1644 119.993C95.7315 121.211 95.2716 122.418 94.7854 123.612L95.7116 123.989C95.2187 125.2 94.6991 126.399 94.1534 127.584L93.245 127.166C92.7047 128.34 92.1386 129.501 91.5473 130.649L92.4362 131.107C91.8378 132.268 91.2137 133.416 90.5649 134.55L89.697 134.053C89.0554 135.174 88.3893 136.281 87.6992 137.373L88.5446 137.907C87.8472 139.011 87.1257 140.101 86.3806 141.174L85.5591 140.604C84.8229 141.665 84.0636 142.71 83.2818 143.74L84.0782 144.345C83.2889 145.384 82.4769 146.408 81.6429 147.415L80.8728 146.777C80.0492 147.771 79.2039 148.749 78.3375 149.71L79.0802 150.38C78.2063 151.349 77.3112 152.301 76.3957 153.235L75.6814 152.535C74.778 153.457 73.8542 154.362 72.911 155.248L73.5958 155.977C72.6454 156.87 71.6754 157.745 70.6864 158.601L70.032 157.845C69.0562 158.69 68.0618 159.516 67.0494 160.323L67.6727 161.105C66.6531 161.918 65.6154 162.712 64.5602 163.485L63.9688 162.679C62.9281 163.442 61.8702 164.186 60.7958 164.91L61.3545 165.74C60.2731 166.468 59.1751 167.177 58.0612 167.865L57.5358 167.014C56.4374 167.692 55.3234 168.35 54.1943 168.987L54.6858 169.858C53.5508 170.498 52.4008 171.118 51.2363 171.716L50.7794 170.827C49.6321 171.416 48.4707 171.984 47.2956 172.531L47.7175 173.438C46.5363 173.987 45.3416 174.515 44.1338 175.021L43.7475 174.099C42.5577 174.597 41.3551 175.074 40.1404 175.528L40.4908 176.465C39.2704 176.921 38.0378 177.356 36.7937 177.767L36.4797 176.818C35.2545 177.223 34.0179 177.606 32.7706 177.966L33.0481 178.927C31.7975 179.288 30.5362 179.627 29.2648 179.942L29.0243 178.971C27.7734 179.281 26.5126 179.568 25.2424 179.832L25.446 180.812C24.1717 181.076 22.8881 181.318 21.5956 181.536L21.4292 180.55C20.1578 180.765 18.8778 180.956 17.5897 181.124L17.7189 182.116C16.4274 182.284 15.1279 182.429 13.8208 182.55L13.7287 181.554C12.4463 181.673 11.1566 181.768 9.85994 181.84L9.91506 182.838C8.61734 182.91 7.31282 182.958 6.002 182.982L5.98364 181.982C5.33588 181.994 4.68655 182 4.03571 182C3.38488 182 2.73556 181.994 2.0878 181.982L2.06944 182.982C0.758621 182.958 -0.545898 182.91 -1.84363 182.838L-1.78851 181.84C-3.08514 181.768 -4.37489 181.673 -5.65726 181.554L-5.74936 182.55C-7.05646 182.429 -8.35601 182.284 -9.6475 182.116L-9.51825 181.124C-10.8064 180.956 -12.0864 180.765 -13.3578 180.55L-13.5242 181.536C-14.8166 181.318 -16.1003 181.076 -17.3745 180.812L-17.171 179.832C-18.4412 179.568 -19.702 179.281 -20.9528 178.971L-21.1934 179.942C-22.4648 179.627 -23.7261 179.288 -24.9766 178.927L-24.6992 177.966C-25.9465 177.606 -27.183 177.223 -28.4082 176.818L-28.7223 177.767C-29.9664 177.356 -31.1989 176.921 -32.4193 176.465L-32.069 175.528C-33.2837 175.074 -34.4862 174.597 -35.6761 174.099L-36.0624 175.021C-37.2701 174.515 -38.4649 173.987 -39.6461 173.438L-39.2242 172.531C-40.3992 171.984 -41.5607 171.416 -42.708 170.827L-43.1649 171.716C-44.3293 171.118 -45.4794 170.498 -46.6143 169.858L-46.1229 168.987C-47.252 168.35 -48.366 167.692 -49.4643 167.014L-49.9898 167.865C-51.1037 167.177 -52.2017 166.468 -53.2831 165.74L-52.7243 164.91C-53.7988 164.186 -54.8567 163.442 -55.8974 162.679L-56.4888 163.485C-57.5439 162.712 -58.5817 161.918 -59.6013 161.105L-58.9779 160.323C-59.9904 159.516 -60.9848 158.69 -61.9605 157.845L-62.615 158.601C-63.604 157.745 -64.574 156.87 -65.5243 155.977L-64.8395 155.248C-65.7828 154.362 -66.7065 153.457 -67.61 152.535L-68.3243 153.235C-69.2398 152.301 -70.1349 151.349 -71.0088 150.38L-70.2661 149.71C-71.1325 148.749 -71.9778 147.771 -72.8014 146.777L-73.5715 147.415C-74.4055 146.408 -75.2175 145.384 -76.0068 144.345L-75.2104 143.74C-75.9922 142.71 -76.7515 141.665 -77.4876 140.604L-78.3092 141.174C-79.0542 140.101 -79.7758 139.011 -80.4732 137.907L-79.6278 137.373C-80.3179 136.281 -80.984 135.174 -81.6256 134.053L-82.4935 134.55C-83.1423 133.416 -83.7663 132.268 -84.3648 131.107L-83.4759 130.649C-84.0672 129.501 -84.6333 128.34 -85.1736 127.166L-86.082 127.584C-86.6277 126.399 -87.1473 125.2 -87.6402 123.989L-86.714 123.612C-87.2002 122.418 -87.6601 121.211 -88.093 119.993L-89.0352 120.328C-89.472 119.099 -89.8815 117.859 -90.2633 116.607L-89.3068 116.316C-89.6828 115.083 -90.0315 113.84 -90.3522 112.586L-91.321 112.834C-91.6441 111.572 -91.9392 110.299 -92.2055 109.016L-91.2264 108.813C-91.4884 107.552 -91.7222 106.282 -91.9274 105.002L-92.9148 105.161C-93.121 103.875 -93.2985 102.581 -93.4467 101.279L-92.4531 101.166C-92.5985 99.8885 -92.7154 98.6033 -92.8032 97.3108L-93.8009 97.3786C-93.8891 96.0815 -93.9482 94.777 -93.9778 93.4658L-92.9781 93.4432C-92.9927 92.7972 -93 92.1494 -93 91.5C-93 90.8507 -92.9927 90.2029 -92.9781 89.5568L-93.9778 89.5343C-93.9482 88.2231 -93.8891 86.9186 -93.8009 85.6215L-92.8032 85.6893C-92.7154 84.3968 -92.5985 83.1116 -92.4531 81.8345L-93.4467 81.7214C-93.2985 80.419 -93.121 79.1248 -92.9148 77.8394L-91.9274 77.9977C-91.7222 76.7186 -91.4884 75.4482 -91.2264 74.1871L-92.2055 73.9838C-91.9392 72.7013 -91.6441 71.4285 -91.321 70.1658L-90.3522 70.4137C-90.0315 69.1603 -89.6828 67.9171 -89.3068 66.6845L-90.2633 66.3928C-89.8815 65.1414 -89.472 63.9009 -89.0352 62.6721L-88.093 63.0069C-87.6601 61.7889 -87.2002 60.5823 -86.714 59.3878L-87.6402 59.0108C-87.1473 57.7999 -86.6277 56.6014 -86.082 55.4157L-85.1736 55.8338C-84.6333 54.6601 -84.0672 53.4991 -83.4759 52.3515L-84.3648 51.8934C-83.7663 50.7319 -83.1423 49.5839 -82.4935 48.4502L-81.6256 48.947C-80.984 47.826 -80.3179 46.719 -79.6278 45.6267L-80.4732 45.0926C-79.7758 43.9887 -79.0542 42.8996 -78.3092 41.826L-77.4876 42.3961C-76.7515 41.3353 -75.9922 40.2897 -75.2104 39.26L-76.0068 38.6552C-75.2175 37.6156 -74.4055 36.5921 -73.5715 35.5852L-72.8014 36.2231C-71.9778 35.2288 -71.1325 34.2509 -70.2661 33.29L-71.0088 32.6203C-70.1349 31.6511 -69.2398 30.699 -68.3242 29.7647L-67.61 30.4646C-66.7065 29.5426 -65.7828 28.6381 -64.8395 27.7517L-65.5243 27.023C-64.574 26.1298 -63.604 25.2549 -62.615 24.3988L-61.9605 25.1549C-60.9848 24.3102 -59.9904 23.484 -58.9779 22.6769L-59.6013 21.895C-58.5817 21.0822 -57.5439 20.2885 -56.4888 19.5146L-55.8974 20.321C-54.8567 19.5577 -53.7988 18.8138 -52.7243 18.0899L-53.2831 17.2605C-52.2017 16.5319 -51.1037 15.8234 -49.9898 15.1355L-49.4643 15.9864C-48.366 15.3081 -47.252 14.6501 -46.1229 14.013L-46.6143 13.1421C-45.4794 12.5016 -44.3293 11.8821 -43.1649 11.2839L-42.708 12.1734C-41.5607 11.5841 -40.3992 11.0158 -39.2242 10.469L-39.6461 9.56239C-38.4649 9.01278 -37.2701 8.48477 -36.0624 7.9789L-35.6761 8.90126C-34.4862 8.40289 -33.2837 7.92622 -32.069 7.47179L-32.4193 6.53519C-31.1989 6.07863 -29.9664 5.64431 -28.7223 5.23277L-28.4082 6.18218C-27.1831 5.77689 -25.9465 5.3939 -24.6992 5.03374L-24.9766 4.07299C-23.7261 3.71189 -22.4648 3.37352 -21.1934 3.0584L-20.9528 4.02903C-19.702 3.71901 -18.4412 3.4317 -17.171 3.16761L-17.3745 2.18854C-16.1003 1.92361 -14.8166 1.68182 -13.5242 1.46368L-13.3578 2.44974C-12.0864 2.23515 -10.8064 2.04367 -9.51825 1.87577L-9.6475 0.884154C-8.35601 0.715817 -7.05647 0.570964 -5.74937 0.450072L-5.65727 1.44582C-4.3749 1.32722 -3.08515 1.23189 -1.78851 1.16031L-1.84364 0.16183C-0.545914 0.0901878 0.758606 0.0421064 2.06943 0.0180375L2.08778 1.01787C2.73555 1.00598 3.38487 1 4.03571 1C4.68655 1 5.33587 1.00597 5.98363 1.01787L6.00198 0.0180373C7.31281 0.0421061 8.61732 0.0901874 9.91505 0.16183L9.85993 1.16031C11.1566 1.23189 12.4463 1.32722 13.7287 1.44582L13.8208 0.450071C15.1279 0.570964 16.4274 0.715817 17.7189 0.884154L17.5897 1.87577C18.8778 2.04367 20.1578 2.23515 21.4292 2.44974L21.5956 1.46368C22.8881 1.68182 24.1717 1.92361 25.446 2.18854L25.2424 3.16761C26.5126 3.4317 27.7734 3.71901 29.0243 4.02903L29.2648 3.0584C30.5362 3.37352 31.7975 3.71189 33.048 4.07299L32.7706 5.03374C34.0179 5.3939 35.2545 5.77689 36.4797 6.18218L36.7937 5.23277C38.0378 5.64431 39.2704 6.07863 40.4908 6.53519L40.1404 7.47179C41.3551 7.92622 42.5577 8.40289 43.7475 8.90126L44.1338 7.9789C45.3416 8.48477 46.5363 9.01278 47.7175 9.56239L47.2956 10.469C48.4707 11.0158 49.6321 11.5841 50.7794 12.1734L51.2363 11.2839C52.4008 11.8821 53.5508 12.5016 54.6858 13.1421L54.1943 14.013C55.3234 14.6501 56.4374 15.3081 57.5358 15.9864L58.0612 15.1355C59.1751 15.8234 60.2731 16.5319 61.3545 17.2605L60.7957 18.0899C61.8702 18.8138 62.9281 19.5577 63.9688 20.321L64.5602 19.5146C65.6154 20.2885 66.6531 21.0822 67.6727 21.895L67.0494 22.6769C68.0618 23.484 69.0562 24.3102 70.0319 25.1549L70.6864 24.3988C71.6754 25.2549 72.6454 26.1298 73.5958 27.023L72.911 27.7517C73.8542 28.6381 74.778 29.5426 75.6814 30.4646L76.3957 29.7647C77.3112 30.699 78.2063 31.6511 79.0802 32.6203L78.3375 33.29C79.2039 34.2509 80.0492 35.2288 80.8728 36.2231L81.6429 35.5852C82.4769 36.5921 83.2889 37.6156 84.0782 38.6552L83.2818 39.26C84.0636 40.2897 84.8229 41.3353 85.5591 42.3961L86.3806 41.826C87.1256 42.8996 87.8472 43.9887 88.5446 45.0926L87.6992 45.6267C88.3893 46.719 89.0554 47.826 89.697 48.947L90.5649 48.4503C91.2137 49.5839 91.8378 50.7319 92.4362 51.8934L91.5473 52.3515C92.1386 53.4991 92.7047 54.6601 93.245 55.8338L94.1534 55.4157C94.6991 56.6014 95.2187 57.7999 95.7116 59.0108L94.7854 59.3878C95.2716 60.5823 95.7315 61.7889 96.1644 63.0069L97.1067 62.6721C97.5434 63.9009 97.953 65.1414 98.3347 66.3928L97.3782 66.6845C97.7542 67.9171 98.1029 69.1603 98.4236 70.4137L99.3924 70.1658C99.7155 71.4285 100.011 72.7013 100.277 73.9838L99.2979 74.1871C99.5598 75.4482 99.7937 76.7186 99.9988 77.9977L100.986 77.8393C101.192 79.1248 101.37 80.419 101.518 81.7213L100.525 81.8344C100.67 83.1116 100.787 84.3968 100.875 85.6893L101.872 85.6215Z" fill="#AACBFF"/>
<path d="M101.872 85.6215C101.96 86.9186 102.02 88.223 102.049 89.5343L101.049 89.5568C101.064 90.2029 101.071 90.8507 101.071 91.5C101.071 92.1494 101.064 92.7972 101.049 93.4432L102.049 93.4658C102.02 94.777 101.96 96.0815 101.872 97.3785L100.875 97.3108C100.787 98.6033 100.67 99.8885 100.525 101.166L101.518 101.279C101.37 102.581 101.192 103.875 100.986 105.161L99.9988 105.002C99.7937 106.282 99.5598 107.552 99.2979 108.813L100.277 109.016C100.011 110.299 99.7155 111.572 99.3924 112.834L98.4236 112.586C98.1029 113.84 97.7542 115.083 97.3782 116.316L98.3347 116.607C97.953 117.859 97.5434 119.099 97.1067 120.328L96.1644 119.993C95.7315 121.211 95.2716 122.418 94.7854 123.612L95.7116 123.989C95.2187 125.2 94.6991 126.399 94.1534 127.584L93.245 127.166C92.7047 128.34 92.1386 129.501 91.5473 130.649L92.4362 131.107C91.8378 132.268 91.2137 133.416 90.5649 134.55L89.697 134.053C89.0554 135.174 88.3893 136.281 87.6992 137.373L88.5446 137.907C87.8472 139.011 87.1257 140.101 86.3806 141.174L85.5591 140.604C84.8229 141.665 84.0636 142.71 83.2818 143.74L84.0782 144.345C83.2889 145.384 82.4769 146.408 81.6429 147.415L80.8728 146.777C80.0492 147.771 79.2039 148.749 78.3375 149.71L79.0802 150.38C78.2063 151.349 77.3112 152.301 76.3957 153.235L75.6814 152.535C74.778 153.457 73.8542 154.362 72.911 155.248L73.5958 155.977C72.6454 156.87 71.6754 157.745 70.6864 158.601L70.032 157.845C69.0562 158.69 68.0618 159.516 67.0494 160.323L67.6727 161.105C66.6531 161.918 65.6154 162.712 64.5602 163.485L63.9688 162.679C62.9281 163.442 61.8702 164.186 60.7958 164.91L61.3545 165.74C60.2731 166.468 59.1751 167.177 58.0612 167.865L57.5358 167.014C56.4374 167.692 55.3234 168.35 54.1943 168.987L54.6858 169.858C53.5508 170.498 52.4008 171.118 51.2363 171.716L50.7794 170.827C49.6321 171.416 48.4707 171.984 47.2956 172.531L47.7175 173.438C46.5363 173.987 45.3416 174.515 44.1338 175.021L43.7475 174.099C42.5577 174.597 41.3551 175.074 40.1404 175.528L40.4908 176.465C39.2704 176.921 38.0378 177.356 36.7937 177.767L36.4797 176.818C35.2545 177.223 34.0179 177.606 32.7706 177.966L33.0481 178.927C31.7975 179.288 30.5362 179.627 29.2648 179.942L29.0243 178.971C27.7734 179.281 26.5126 179.568 25.2424 179.832L25.446 180.812C24.1717 181.076 22.8881 181.318 21.5956 181.536L21.4292 180.55C20.1578 180.765 18.8778 180.956 17.5897 181.124L17.7189 182.116C16.4274 182.284 15.1279 182.429 13.8208 182.55L13.7287 181.554C12.4463 181.673 11.1566 181.768 9.85994 181.84L9.91506 182.838C8.61734 182.91 7.31282 182.958 6.002 182.982L5.98364 181.982C5.33588 181.994 4.68655 182 4.03571 182C3.38488 182 2.73556 181.994 2.0878 181.982L2.06944 182.982C0.758621 182.958 -0.545898 182.91 -1.84363 182.838L-1.78851 181.84C-3.08514 181.768 -4.37489 181.673 -5.65726 181.554L-5.74936 182.55C-7.05646 182.429 -8.35601 182.284 -9.6475 182.116L-9.51825 181.124C-10.8064 180.956 -12.0864 180.765 -13.3578 180.55L-13.5242 181.536C-14.8166 181.318 -16.1003 181.076 -17.3745 180.812L-17.171 179.832C-18.4412 179.568 -19.702 179.281 -20.9528 178.971L-21.1934 179.942C-22.4648 179.627 -23.7261 179.288 -24.9766 178.927L-24.6992 177.966C-25.9465 177.606 -27.183 177.223 -28.4082 176.818L-28.7223 177.767C-29.9664 177.356 -31.1989 176.921 -32.4193 176.465L-32.069 175.528C-33.2837 175.074 -34.4862 174.597 -35.6761 174.099L-36.0624 175.021C-37.2701 174.515 -38.4649 173.987 -39.6461 173.438L-39.2242 172.531C-40.3992 171.984 -41.5607 171.416 -42.708 170.827L-43.1649 171.716C-44.3293 171.118 -45.4794 170.498 -46.6143 169.858L-46.1229 168.987C-47.252 168.35 -48.366 167.692 -49.4643 167.014L-49.9898 167.865C-51.1037 167.177 -52.2017 166.468 -53.2831 165.74L-52.7243 164.91C-53.7988 164.186 -54.8567 163.442 -55.8974 162.679L-56.4888 163.485C-57.5439 162.712 -58.5817 161.918 -59.6013 161.105L-58.9779 160.323C-59.9904 159.516 -60.9848 158.69 -61.9605 157.845L-62.615 158.601C-63.604 157.745 -64.574 156.87 -65.5243 155.977L-64.8395 155.248C-65.7828 154.362 -66.7065 153.457 -67.61 152.535L-68.3243 153.235C-69.2398 152.301 -70.1349 151.349 -71.0088 150.38L-70.2661 149.71C-71.1325 148.749 -71.9778 147.771 -72.8014 146.777L-73.5715 147.415C-74.4055 146.408 -75.2175 145.384 -76.0068 144.345L-75.2104 143.74C-75.9922 142.71 -76.7515 141.665 -77.4876 140.604L-78.3092 141.174C-79.0542 140.101 -79.7758 139.011 -80.4732 137.907L-79.6278 137.373C-80.3179 136.281 -80.984 135.174 -81.6256 134.053L-82.4935 134.55C-83.1423 133.416 -83.7663 132.268 -84.3648 131.107L-83.4759 130.649C-84.0672 129.501 -84.6333 128.34 -85.1736 127.166L-86.082 127.584C-86.6277 126.399 -87.1473 125.2 -87.6402 123.989L-86.714 123.612C-87.2002 122.418 -87.6601 121.211 -88.093 119.993L-89.0352 120.328C-89.472 119.099 -89.8815 117.859 -90.2633 116.607L-89.3068 116.316C-89.6828 115.083 -90.0315 113.84 -90.3522 112.586L-91.321 112.834C-91.6441 111.572 -91.9392 110.299 -92.2055 109.016L-91.2264 108.813C-91.4884 107.552 -91.7222 106.282 -91.9274 105.002L-92.9148 105.161C-93.121 103.875 -93.2985 102.581 -93.4467 101.279L-92.4531 101.166C-92.5985 99.8885 -92.7154 98.6033 -92.8032 97.3108L-93.8009 97.3786C-93.8891 96.0815 -93.9482 94.777 -93.9778 93.4658L-92.9781 93.4432C-92.9927 92.7972 -93 92.1494 -93 91.5C-93 90.8507 -92.9927 90.2029 -92.9781 89.5568L-93.9778 89.5343C-93.9482 88.2231 -93.8891 86.9186 -93.8009 85.6215L-92.8032 85.6893C-92.7154 84.3968 -92.5985 83.1116 -92.4531 81.8345L-93.4467 81.7214C-93.2985 80.419 -93.121 79.1248 -92.9148 77.8394L-91.9274 77.9977C-91.7222 76.7186 -91.4884 75.4482 -91.2264 74.1871L-92.2055 73.9838C-91.9392 72.7013 -91.6441 71.4285 -91.321 70.1658L-90.3522 70.4137C-90.0315 69.1603 -89.6828 67.9171 -89.3068 66.6845L-90.2633 66.3928C-89.8815 65.1414 -89.472 63.9009 -89.0352 62.6721L-88.093 63.0069C-87.6601 61.7889 -87.2002 60.5823 -86.714 59.3878L-87.6402 59.0108C-87.1473 57.7999 -86.6277 56.6014 -86.082 55.4157L-85.1736 55.8338C-84.6333 54.6601 -84.0672 53.4991 -83.4759 52.3515L-84.3648 51.8934C-83.7663 50.7319 -83.1423 49.5839 -82.4935 48.4502L-81.6256 48.947C-80.984 47.826 -80.3179 46.719 -79.6278 45.6267L-80.4732 45.0926C-79.7758 43.9887 -79.0542 42.8996 -78.3092 41.826L-77.4876 42.3961C-76.7515 41.3353 -75.9922 40.2897 -75.2104 39.26L-76.0068 38.6552C-75.2175 37.6156 -74.4055 36.5921 -73.5715 35.5852L-72.8014 36.2231C-71.9778 35.2288 -71.1325 34.2509 -70.2661 33.29L-71.0088 32.6203C-70.1349 31.6511 -69.2398 30.699 -68.3242 29.7647L-67.61 30.4646C-66.7065 29.5426 -65.7828 28.6381 -64.8395 27.7517L-65.5243 27.023C-64.574 26.1298 -63.604 25.2549 -62.615 24.3988L-61.9605 25.1549C-60.9848 24.3102 -59.9904 23.484 -58.9779 22.6769L-59.6013 21.895C-58.5817 21.0822 -57.5439 20.2885 -56.4888 19.5146L-55.8974 20.321C-54.8567 19.5577 -53.7988 18.8138 -52.7243 18.0899L-53.2831 17.2605C-52.2017 16.5319 -51.1037 15.8234 -49.9898 15.1355L-49.4643 15.9864C-48.366 15.3081 -47.252 14.6501 -46.1229 14.013L-46.6143 13.1421C-45.4794 12.5016 -44.3293 11.8821 -43.1649 11.2839L-42.708 12.1734C-41.5607 11.5841 -40.3992 11.0158 -39.2242 10.469L-39.6461 9.56239C-38.4649 9.01278 -37.2701 8.48477 -36.0624 7.9789L-35.6761 8.90126C-34.4862 8.40289 -33.2837 7.92622 -32.069 7.47179L-32.4193 6.53519C-31.1989 6.07863 -29.9664 5.64431 -28.7223 5.23277L-28.4082 6.18218C-27.1831 5.77689 -25.9465 5.3939 -24.6992 5.03374L-24.9766 4.07299C-23.7261 3.71189 -22.4648 3.37352 -21.1934 3.0584L-20.9528 4.02903C-19.702 3.71901 -18.4412 3.4317 -17.171 3.16761L-17.3745 2.18854C-16.1003 1.92361 -14.8166 1.68182 -13.5242 1.46368L-13.3578 2.44974C-12.0864 2.23515 -10.8064 2.04367 -9.51825 1.87577L-9.6475 0.884154C-8.35601 0.715817 -7.05647 0.570964 -5.74937 0.450072L-5.65727 1.44582C-4.3749 1.32722 -3.08515 1.23189 -1.78851 1.16031L-1.84364 0.16183C-0.545914 0.0901878 0.758606 0.0421064 2.06943 0.0180375L2.08778 1.01787C2.73555 1.00598 3.38487 1 4.03571 1C4.68655 1 5.33587 1.00597 5.98363 1.01787L6.00198 0.0180373C7.31281 0.0421061 8.61732 0.0901874 9.91505 0.16183L9.85993 1.16031C11.1566 1.23189 12.4463 1.32722 13.7287 1.44582L13.8208 0.450071C15.1279 0.570964 16.4274 0.715817 17.7189 0.884154L17.5897 1.87577C18.8778 2.04367 20.1578 2.23515 21.4292 2.44974L21.5956 1.46368C22.8881 1.68182 24.1717 1.92361 25.446 2.18854L25.2424 3.16761C26.5126 3.4317 27.7734 3.71901 29.0243 4.02903L29.2648 3.0584C30.5362 3.37352 31.7975 3.71189 33.048 4.07299L32.7706 5.03374C34.0179 5.3939 35.2545 5.77689 36.4797 6.18218L36.7937 5.23277C38.0378 5.64431 39.2704 6.07863 40.4908 6.53519L40.1404 7.47179C41.3551 7.92622 42.5577 8.40289 43.7475 8.90126L44.1338 7.9789C45.3416 8.48477 46.5363 9.01278 47.7175 9.56239L47.2956 10.469C48.4707 11.0158 49.6321 11.5841 50.7794 12.1734L51.2363 11.2839C52.4008 11.8821 53.5508 12.5016 54.6858 13.1421L54.1943 14.013C55.3234 14.6501 56.4374 15.3081 57.5358 15.9864L58.0612 15.1355C59.1751 15.8234 60.2731 16.5319 61.3545 17.2605L60.7957 18.0899C61.8702 18.8138 62.9281 19.5577 63.9688 20.321L64.5602 19.5146C65.6154 20.2885 66.6531 21.0822 67.6727 21.895L67.0494 22.6769C68.0618 23.484 69.0562 24.3102 70.0319 25.1549L70.6864 24.3988C71.6754 25.2549 72.6454 26.1298 73.5958 27.023L72.911 27.7517C73.8542 28.6381 74.778 29.5426 75.6814 30.4646L76.3957 29.7647C77.3112 30.699 78.2063 31.6511 79.0802 32.6203L78.3375 33.29C79.2039 34.2509 80.0492 35.2288 80.8728 36.2231L81.6429 35.5852C82.4769 36.5921 83.2889 37.6156 84.0782 38.6552L83.2818 39.26C84.0636 40.2897 84.8229 41.3353 85.5591 42.3961L86.3806 41.826C87.1256 42.8996 87.8472 43.9887 88.5446 45.0926L87.6992 45.6267C88.3893 46.719 89.0554 47.826 89.697 48.947L90.5649 48.4503C91.2137 49.5839 91.8378 50.7319 92.4362 51.8934L91.5473 52.3515C92.1386 53.4991 92.7047 54.6601 93.245 55.8338L94.1534 55.4157C94.6991 56.6014 95.2187 57.7999 95.7116 59.0108L94.7854 59.3878C95.2716 60.5823 95.7315 61.7889 96.1644 63.0069L97.1067 62.6721C97.5434 63.9009 97.953 65.1414 98.3347 66.3928L97.3782 66.6845C97.7542 67.9171 98.1029 69.1603 98.4236 70.4137L99.3924 70.1658C99.7155 71.4285 100.011 72.7013 100.277 73.9838L99.2979 74.1871C99.5598 75.4482 99.7937 76.7186 99.9988 77.9977L100.986 77.8393C101.192 79.1248 101.37 80.419 101.518 81.7213L100.525 81.8344C100.67 83.1116 100.787 84.3968 100.875 85.6893L101.872 85.6215Z" fill="#AACBFF"/>
<path d="M101.872 85.6215C101.96 86.9186 102.02 88.223 102.049 89.5343L101.049 89.5568C101.064 90.2029 101.071 90.8507 101.071 91.5C101.071 92.1494 101.064 92.7972 101.049 93.4432L102.049 93.4658C102.02 94.777 101.96 96.0815 101.872 97.3785L100.875 97.3108C100.787 98.6033 100.67 99.8885 100.525 101.166L101.518 101.279C101.37 102.581 101.192 103.875 100.986 105.161L99.9988 105.002C99.7937 106.282 99.5598 107.552 99.2979 108.813L100.277 109.016C100.011 110.299 99.7155 111.572 99.3924 112.834L98.4236 112.586C98.1029 113.84 97.7542 115.083 97.3782 116.316L98.3347 116.607C97.953 117.859 97.5434 119.099 97.1067 120.328L96.1644 119.993C95.7315 121.211 95.2716 122.418 94.7854 123.612L95.7116 123.989C95.2187 125.2 94.6991 126.399 94.1534 127.584L93.245 127.166C92.7047 128.34 92.1386 129.501 91.5473 130.649L92.4362 131.107C91.8378 132.268 91.2137 133.416 90.5649 134.55L89.697 134.053C89.0554 135.174 88.3893 136.281 87.6992 137.373L88.5446 137.907C87.8472 139.011 87.1257 140.101 86.3806 141.174L85.5591 140.604C84.8229 141.665 84.0636 142.71 83.2818 143.74L84.0782 144.345C83.2889 145.384 82.4769 146.408 81.6429 147.415L80.8728 146.777C80.0492 147.771 79.2039 148.749 78.3375 149.71L79.0802 150.38C78.2063 151.349 77.3112 152.301 76.3957 153.235L75.6814 152.535C74.778 153.457 73.8542 154.362 72.911 155.248L73.5958 155.977C72.6454 156.87 71.6754 157.745 70.6864 158.601L70.032 157.845C69.0562 158.69 68.0618 159.516 67.0494 160.323L67.6727 161.105C66.6531 161.918 65.6154 162.712 64.5602 163.485L63.9688 162.679C62.9281 163.442 61.8702 164.186 60.7958 164.91L61.3545 165.74C60.2731 166.468 59.1751 167.177 58.0612 167.865L57.5358 167.014C56.4374 167.692 55.3234 168.35 54.1943 168.987L54.6858 169.858C53.5508 170.498 52.4008 171.118 51.2363 171.716L50.7794 170.827C49.6321 171.416 48.4707 171.984 47.2956 172.531L47.7175 173.438C46.5363 173.987 45.3416 174.515 44.1338 175.021L43.7475 174.099C42.5577 174.597 41.3551 175.074 40.1404 175.528L40.4908 176.465C39.2704 176.921 38.0378 177.356 36.7937 177.767L36.4797 176.818C35.2545 177.223 34.0179 177.606 32.7706 177.966L33.0481 178.927C31.7975 179.288 30.5362 179.627 29.2648 179.942L29.0243 178.971C27.7734 179.281 26.5126 179.568 25.2424 179.832L25.446 180.812C24.1717 181.076 22.8881 181.318 21.5956 181.536L21.4292 180.55C20.1578 180.765 18.8778 180.956 17.5897 181.124L17.7189 182.116C16.4274 182.284 15.1279 182.429 13.8208 182.55L13.7287 181.554C12.4463 181.673 11.1566 181.768 9.85994 181.84L9.91506 182.838C8.61734 182.91 7.31282 182.958 6.002 182.982L5.98364 181.982C5.33588 181.994 4.68655 182 4.03571 182C3.38488 182 2.73556 181.994 2.0878 181.982L2.06944 182.982C0.758621 182.958 -0.545898 182.91 -1.84363 182.838L-1.78851 181.84C-3.08514 181.768 -4.37489 181.673 -5.65726 181.554L-5.74936 182.55C-7.05646 182.429 -8.35601 182.284 -9.6475 182.116L-9.51825 181.124C-10.8064 180.956 -12.0864 180.765 -13.3578 180.55L-13.5242 181.536C-14.8166 181.318 -16.1003 181.076 -17.3745 180.812L-17.171 179.832C-18.4412 179.568 -19.702 179.281 -20.9528 178.971L-21.1934 179.942C-22.4648 179.627 -23.7261 179.288 -24.9766 178.927L-24.6992 177.966C-25.9465 177.606 -27.183 177.223 -28.4082 176.818L-28.7223 177.767C-29.9664 177.356 -31.1989 176.921 -32.4193 176.465L-32.069 175.528C-33.2837 175.074 -34.4862 174.597 -35.6761 174.099L-36.0624 175.021C-37.2701 174.515 -38.4649 173.987 -39.6461 173.438L-39.2242 172.531C-40.3992 171.984 -41.5607 171.416 -42.708 170.827L-43.1649 171.716C-44.3293 171.118 -45.4794 170.498 -46.6143 169.858L-46.1229 168.987C-47.252 168.35 -48.366 167.692 -49.4643 167.014L-49.9898 167.865C-51.1037 167.177 -52.2017 166.468 -53.2831 165.74L-52.7243 164.91C-53.7988 164.186 -54.8567 163.442 -55.8974 162.679L-56.4888 163.485C-57.5439 162.712 -58.5817 161.918 -59.6013 161.105L-58.9779 160.323C-59.9904 159.516 -60.9848 158.69 -61.9605 157.845L-62.615 158.601C-63.604 157.745 -64.574 156.87 -65.5243 155.977L-64.8395 155.248C-65.7828 154.362 -66.7065 153.457 -67.61 152.535L-68.3243 153.235C-69.2398 152.301 -70.1349 151.349 -71.0088 150.38L-70.2661 149.71C-71.1325 148.749 -71.9778 147.771 -72.8014 146.777L-73.5715 147.415C-74.4055 146.408 -75.2175 145.384 -76.0068 144.345L-75.2104 143.74C-75.9922 142.71 -76.7515 141.665 -77.4876 140.604L-78.3092 141.174C-79.0542 140.101 -79.7758 139.011 -80.4732 137.907L-79.6278 137.373C-80.3179 136.281 -80.984 135.174 -81.6256 134.053L-82.4935 134.55C-83.1423 133.416 -83.7663 132.268 -84.3648 131.107L-83.4759 130.649C-84.0672 129.501 -84.6333 128.34 -85.1736 127.166L-86.082 127.584C-86.6277 126.399 -87.1473 125.2 -87.6402 123.989L-86.714 123.612C-87.2002 122.418 -87.6601 121.211 -88.093 119.993L-89.0352 120.328C-89.472 119.099 -89.8815 117.859 -90.2633 116.607L-89.3068 116.316C-89.6828 115.083 -90.0315 113.84 -90.3522 112.586L-91.321 112.834C-91.6441 111.572 -91.9392 110.299 -92.2055 109.016L-91.2264 108.813C-91.4884 107.552 -91.7222 106.282 -91.9274 105.002L-92.9148 105.161C-93.121 103.875 -93.2985 102.581 -93.4467 101.279L-92.4531 101.166C-92.5985 99.8885 -92.7154 98.6033 -92.8032 97.3108L-93.8009 97.3786C-93.8891 96.0815 -93.9482 94.777 -93.9778 93.4658L-92.9781 93.4432C-92.9927 92.7972 -93 92.1494 -93 91.5C-93 90.8507 -92.9927 90.2029 -92.9781 89.5568L-93.9778 89.5343C-93.9482 88.2231 -93.8891 86.9186 -93.8009 85.6215L-92.8032 85.6893C-92.7154 84.3968 -92.5985 83.1116 -92.4531 81.8345L-93.4467 81.7214C-93.2985 80.419 -93.121 79.1248 -92.9148 77.8394L-91.9274 77.9977C-91.7222 76.7186 -91.4884 75.4482 -91.2264 74.1871L-92.2055 73.9838C-91.9392 72.7013 -91.6441 71.4285 -91.321 70.1658L-90.3522 70.4137C-90.0315 69.1603 -89.6828 67.9171 -89.3068 66.6845L-90.2633 66.3928C-89.8815 65.1414 -89.472 63.9009 -89.0352 62.6721L-88.093 63.0069C-87.6601 61.7889 -87.2002 60.5823 -86.714 59.3878L-87.6402 59.0108C-87.1473 57.7999 -86.6277 56.6014 -86.082 55.4157L-85.1736 55.8338C-84.6333 54.6601 -84.0672 53.4991 -83.4759 52.3515L-84.3648 51.8934C-83.7663 50.7319 -83.1423 49.5839 -82.4935 48.4502L-81.6256 48.947C-80.984 47.826 -80.3179 46.719 -79.6278 45.6267L-80.4732 45.0926C-79.7758 43.9887 -79.0542 42.8996 -78.3092 41.826L-77.4876 42.3961C-76.7515 41.3353 -75.9922 40.2897 -75.2104 39.26L-76.0068 38.6552C-75.2175 37.6156 -74.4055 36.5921 -73.5715 35.5852L-72.8014 36.2231C-71.9778 35.2288 -71.1325 34.2509 -70.2661 33.29L-71.0088 32.6203C-70.1349 31.6511 -69.2398 30.699 -68.3242 29.7647L-67.61 30.4646C-66.7065 29.5426 -65.7828 28.6381 -64.8395 27.7517L-65.5243 27.023C-64.574 26.1298 -63.604 25.2549 -62.615 24.3988L-61.9605 25.1549C-60.9848 24.3102 -59.9904 23.484 -58.9779 22.6769L-59.6013 21.895C-58.5817 21.0822 -57.5439 20.2885 -56.4888 19.5146L-55.8974 20.321C-54.8567 19.5577 -53.7988 18.8138 -52.7243 18.0899L-53.2831 17.2605C-52.2017 16.5319 -51.1037 15.8234 -49.9898 15.1355L-49.4643 15.9864C-48.366 15.3081 -47.252 14.6501 -46.1229 14.013L-46.6143 13.1421C-45.4794 12.5016 -44.3293 11.8821 -43.1649 11.2839L-42.708 12.1734C-41.5607 11.5841 -40.3992 11.0158 -39.2242 10.469L-39.6461 9.56239C-38.4649 9.01278 -37.2701 8.48477 -36.0624 7.9789L-35.6761 8.90126C-34.4862 8.40289 -33.2837 7.92622 -32.069 7.47179L-32.4193 6.53519C-31.1989 6.07863 -29.9664 5.64431 -28.7223 5.23277L-28.4082 6.18218C-27.1831 5.77689 -25.9465 5.3939 -24.6992 5.03374L-24.9766 4.07299C-23.7261 3.71189 -22.4648 3.37352 -21.1934 3.0584L-20.9528 4.02903C-19.702 3.71901 -18.4412 3.4317 -17.171 3.16761L-17.3745 2.18854C-16.1003 1.92361 -14.8166 1.68182 -13.5242 1.46368L-13.3578 2.44974C-12.0864 2.23515 -10.8064 2.04367 -9.51825 1.87577L-9.6475 0.884154C-8.35601 0.715817 -7.05647 0.570964 -5.74937 0.450072L-5.65727 1.44582C-4.3749 1.32722 -3.08515 1.23189 -1.78851 1.16031L-1.84364 0.16183C-0.545914 0.0901878 0.758606 0.0421064 2.06943 0.0180375L2.08778 1.01787C2.73555 1.00598 3.38487 1 4.03571 1C4.68655 1 5.33587 1.00597 5.98363 1.01787L6.00198 0.0180373C7.31281 0.0421061 8.61732 0.0901874 9.91505 0.16183L9.85993 1.16031C11.1566 1.23189 12.4463 1.32722 13.7287 1.44582L13.8208 0.450071C15.1279 0.570964 16.4274 0.715817 17.7189 0.884154L17.5897 1.87577C18.8778 2.04367 20.1578 2.23515 21.4292 2.44974L21.5956 1.46368C22.8881 1.68182 24.1717 1.92361 25.446 2.18854L25.2424 3.16761C26.5126 3.4317 27.7734 3.71901 29.0243 4.02903L29.2648 3.0584C30.5362 3.37352 31.7975 3.71189 33.048 4.07299L32.7706 5.03374C34.0179 5.3939 35.2545 5.77689 36.4797 6.18218L36.7937 5.23277C38.0378 5.64431 39.2704 6.07863 40.4908 6.53519L40.1404 7.47179C41.3551 7.92622 42.5577 8.40289 43.7475 8.90126L44.1338 7.9789C45.3416 8.48477 46.5363 9.01278 47.7175 9.56239L47.2956 10.469C48.4707 11.0158 49.6321 11.5841 50.7794 12.1734L51.2363 11.2839C52.4008 11.8821 53.5508 12.5016 54.6858 13.1421L54.1943 14.013C55.3234 14.6501 56.4374 15.3081 57.5358 15.9864L58.0612 15.1355C59.1751 15.8234 60.2731 16.5319 61.3545 17.2605L60.7957 18.0899C61.8702 18.8138 62.9281 19.5577 63.9688 20.321L64.5602 19.5146C65.6154 20.2885 66.6531 21.0822 67.6727 21.895L67.0494 22.6769C68.0618 23.484 69.0562 24.3102 70.0319 25.1549L70.6864 24.3988C71.6754 25.2549 72.6454 26.1298 73.5958 27.023L72.911 27.7517C73.8542 28.6381 74.778 29.5426 75.6814 30.4646L76.3957 29.7647C77.3112 30.699 78.2063 31.6511 79.0802 32.6203L78.3375 33.29C79.2039 34.2509 80.0492 35.2288 80.8728 36.2231L81.6429 35.5852C82.4769 36.5921 83.2889 37.6156 84.0782 38.6552L83.2818 39.26C84.0636 40.2897 84.8229 41.3353 85.5591 42.3961L86.3806 41.826C87.1256 42.8996 87.8472 43.9887 88.5446 45.0926L87.6992 45.6267C88.3893 46.719 89.0554 47.826 89.697 48.947L90.5649 48.4503C91.2137 49.5839 91.8378 50.7319 92.4362 51.8934L91.5473 52.3515C92.1386 53.4991 92.7047 54.6601 93.245 55.8338L94.1534 55.4157C94.6991 56.6014 95.2187 57.7999 95.7116 59.0108L94.7854 59.3878C95.2716 60.5823 95.7315 61.7889 96.1644 63.0069L97.1067 62.6721C97.5434 63.9009 97.953 65.1414 98.3347 66.3928L97.3782 66.6845C97.7542 67.9171 98.1029 69.1603 98.4236 70.4137L99.3924 70.1658C99.7155 71.4285 100.011 72.7013 100.277 73.9838L99.2979 74.1871C99.5598 75.4482 99.7937 76.7186 99.9988 77.9977L100.986 77.8393C101.192 79.1248 101.37 80.419 101.518 81.7213L100.525 81.8344C100.67 83.1116 100.787 84.3968 100.875 85.6893L101.872 85.6215Z" stroke="#077BC3" stroke-width="2" stroke-dasharray="4 4"/>
<g filter="url(#filter0_f_327_1140)">
<ellipse cx="2.9463" cy="92.0943" rx="70.6621" ry="65.9513" fill="#BCD6FF"/>
</g>
<defs>
<filter id="filter0_f_327_1140" x="-73.1158" y="20.7429" width="152.124" height="142.703" filterUnits="userSpaceOnUse" color-interpolation-filters="sRGB">
<feFlood flood-opacity="0" result="BackgroundImageFix"/>
<feBlend mode="normal" in="SourceGraphic" in2="BackgroundImageFix" result="shape"/>
<feGaussianBlur stdDeviation="2.7" result="effect1_foregroundBlur_327_1140"/>
</filter>
</defs>
</svg>
