<svg width="265" height="79" viewBox="0 0 265 79" fill="none" xmlns="http://www.w3.org/2000/svg">
<rect x="0.1" y="0.511026" width="230.8" height="78.389" rx="7.9" fill="white" stroke="#1371AB" stroke-width="0.2"/>
<rect x="14" y="14.2796" width="58" height="51.7763" rx="6" fill="#E7F6FF"/>
<path d="M87.744 33.1792V34.6672H83.024V37.9472H86.704V39.4352H83.024V44.2992H81.2V33.1792H87.744ZM88.8264 39.8512C88.8264 38.9658 89.0077 38.1818 89.3704 37.4992C89.7437 36.8165 90.245 36.2885 90.8744 35.9152C91.5144 35.5312 92.2184 35.3392 92.9864 35.3392C93.6797 35.3392 94.2824 35.4778 94.7944 35.7552C95.317 36.0218 95.733 36.3578 96.0424 36.7632V35.4832H97.8824V44.2992H96.0424V42.9872C95.733 43.4032 95.3117 43.7498 94.7784 44.0272C94.245 44.3045 93.637 44.4432 92.9544 44.4432C92.197 44.4432 91.5037 44.2512 90.8744 43.8672C90.245 43.4725 89.7437 42.9285 89.3704 42.2352C89.0077 41.5312 88.8264 40.7365 88.8264 39.8512ZM96.0424 39.8832C96.0424 39.2752 95.9144 38.7472 95.6584 38.2992C95.413 37.8512 95.0877 37.5098 94.6824 37.2752C94.277 37.0405 93.8397 36.9232 93.3704 36.9232C92.901 36.9232 92.4637 37.0405 92.0584 37.2752C91.653 37.4992 91.3224 37.8352 91.0664 38.2832C90.821 38.7205 90.6984 39.2432 90.6984 39.8512C90.6984 40.4592 90.821 40.9925 91.0664 41.4512C91.3224 41.9098 91.653 42.2618 92.0584 42.5072C92.4744 42.7418 92.9117 42.8592 93.3704 42.8592C93.8397 42.8592 94.277 42.7418 94.6824 42.5072C95.0877 42.2725 95.413 41.9312 95.6584 41.4832C95.9144 41.0245 96.0424 40.4912 96.0424 39.8832ZM103.478 44.4432C102.785 44.4432 102.161 44.3205 101.606 44.0752C101.062 43.8192 100.63 43.4778 100.31 43.0512C99.9901 42.6138 99.8195 42.1285 99.7981 41.5952H101.686C101.718 41.9685 101.894 42.2832 102.214 42.5392C102.545 42.7845 102.955 42.9072 103.446 42.9072C103.958 42.9072 104.353 42.8112 104.63 42.6192C104.918 42.4165 105.062 42.1605 105.062 41.8512C105.062 41.5205 104.902 41.2752 104.582 41.1152C104.273 40.9552 103.777 40.7792 103.094 40.5872C102.433 40.4058 101.894 40.2298 101.478 40.0592C101.062 39.8885 100.699 39.6272 100.39 39.2752C100.091 38.9232 99.9421 38.4592 99.9421 37.8832C99.9421 37.4138 100.081 36.9872 100.358 36.6032C100.635 36.2085 101.03 35.8992 101.542 35.6752C102.065 35.4512 102.662 35.3392 103.334 35.3392C104.337 35.3392 105.142 35.5952 105.75 36.1072C106.369 36.6085 106.699 37.2965 106.742 38.1712H104.918C104.886 37.7765 104.726 37.4618 104.438 37.2272C104.15 36.9925 103.761 36.8752 103.27 36.8752C102.79 36.8752 102.422 36.9658 102.166 37.1472C101.91 37.3285 101.782 37.5685 101.782 37.8672C101.782 38.1018 101.867 38.2992 102.038 38.4592C102.209 38.6192 102.417 38.7472 102.662 38.8432C102.907 38.9285 103.27 39.0405 103.75 39.1792C104.39 39.3498 104.913 39.5258 105.318 39.7072C105.734 39.8778 106.091 40.1338 106.39 40.4752C106.689 40.8165 106.843 41.2698 106.854 41.8352C106.854 42.3365 106.715 42.7845 106.438 43.1792C106.161 43.5738 105.766 43.8832 105.254 44.1072C104.753 44.3312 104.161 44.4432 103.478 44.4432ZM110.953 36.9712V41.8512C110.953 42.1818 111.028 42.4218 111.177 42.5712C111.337 42.7098 111.604 42.7792 111.977 42.7792H113.097V44.2992H111.657C110.836 44.2992 110.206 44.1072 109.769 43.7232C109.332 43.3392 109.113 42.7152 109.113 41.8512V36.9712H108.073V35.4832H109.113V33.2912H110.953V35.4832H113.097V36.9712H110.953ZM122.858 39.6752C122.858 40.0058 122.837 40.3045 122.794 40.5712H116.058C116.111 41.2752 116.373 41.8405 116.842 42.2672C117.311 42.6938 117.887 42.9072 118.57 42.9072C119.551 42.9072 120.245 42.4965 120.65 41.6752H122.618C122.351 42.4858 121.866 43.1525 121.162 43.6752C120.469 44.1872 119.605 44.4432 118.57 44.4432C117.727 44.4432 116.97 44.2565 116.298 43.8832C115.637 43.4992 115.114 42.9658 114.73 42.2832C114.357 41.5898 114.17 40.7898 114.17 39.8832C114.17 38.9765 114.351 38.1818 114.714 37.4992C115.087 36.8058 115.605 36.2725 116.266 35.8992C116.938 35.5258 117.706 35.3392 118.57 35.3392C119.402 35.3392 120.143 35.5205 120.794 35.8832C121.445 36.2458 121.951 36.7578 122.314 37.4192C122.677 38.0698 122.858 38.8218 122.858 39.6752ZM120.954 39.0992C120.943 38.4272 120.703 37.8885 120.234 37.4832C119.765 37.0778 119.183 36.8752 118.49 36.8752C117.861 36.8752 117.322 37.0778 116.874 37.4832C116.426 37.8778 116.159 38.4165 116.074 39.0992H120.954ZM126.477 36.7632C126.744 36.3152 127.096 35.9685 127.533 35.7232C127.981 35.4672 128.509 35.3392 129.117 35.3392V37.2272H128.653C127.938 37.2272 127.394 37.4085 127.021 37.7712C126.658 38.1338 126.477 38.7632 126.477 39.6592V44.2992H124.653V35.4832H126.477V36.7632ZM143.83 33.1792V44.2992H142.006V39.4352H136.774V44.2992H134.95V33.1792H136.774V37.9472H142.006V33.1792H143.83ZM147.159 34.3152C146.829 34.3152 146.551 34.2032 146.327 33.9792C146.103 33.7552 145.991 33.4778 145.991 33.1472C145.991 32.8165 146.103 32.5392 146.327 32.3152C146.551 32.0912 146.829 31.9792 147.159 31.9792C147.479 31.9792 147.751 32.0912 147.975 32.3152C148.199 32.5392 148.311 32.8165 148.311 33.1472C148.311 33.4778 148.199 33.7552 147.975 33.9792C147.751 34.2032 147.479 34.3152 147.159 34.3152ZM148.055 35.4832V44.2992H146.231V35.4832H148.055ZM152.274 36.7632C152.541 36.3152 152.893 35.9685 153.33 35.7232C153.778 35.4672 154.306 35.3392 154.914 35.3392V37.2272H154.45C153.735 37.2272 153.191 37.4085 152.818 37.7712C152.455 38.1338 152.274 38.7632 152.274 39.6592V44.2992H150.45V35.4832H152.274V36.7632ZM157.519 34.3152C157.188 34.3152 156.911 34.2032 156.687 33.9792C156.463 33.7552 156.351 33.4778 156.351 33.1472C156.351 32.8165 156.463 32.5392 156.687 32.3152C156.911 32.0912 157.188 31.9792 157.519 31.9792C157.839 31.9792 158.111 32.0912 158.335 32.3152C158.559 32.5392 158.671 32.8165 158.671 33.1472C158.671 33.4778 158.559 33.7552 158.335 33.9792C158.111 34.2032 157.839 34.3152 157.519 34.3152ZM158.415 35.4832V44.2992H156.591V35.4832H158.415ZM165.257 35.3392C165.951 35.3392 166.569 35.4832 167.113 35.7712C167.668 36.0592 168.1 36.4858 168.409 37.0512C168.719 37.6165 168.873 38.2992 168.873 39.0992V44.2992H167.065V39.3712C167.065 38.5818 166.868 37.9792 166.473 37.5632C166.079 37.1365 165.54 36.9232 164.857 36.9232C164.175 36.9232 163.631 37.1365 163.225 37.5632C162.831 37.9792 162.633 38.5818 162.633 39.3712V44.2992H160.809V35.4832H162.633V36.4912C162.932 36.1285 163.311 35.8458 163.769 35.6432C164.239 35.4405 164.735 35.3392 165.257 35.3392ZM174.752 35.3392C175.435 35.3392 176.037 35.4778 176.56 35.7552C177.093 36.0218 177.509 36.3578 177.808 36.7632V35.4832H179.648V44.4432C179.648 45.2538 179.477 45.9738 179.136 46.6032C178.795 47.2432 178.299 47.7445 177.648 48.1072C177.008 48.4698 176.24 48.6512 175.344 48.6512C174.149 48.6512 173.157 48.3685 172.368 47.8032C171.579 47.2485 171.131 46.4912 171.024 45.5312H172.832C172.971 45.9898 173.264 46.3578 173.712 46.6352C174.171 46.9232 174.715 47.0672 175.344 47.0672C176.08 47.0672 176.672 46.8432 177.12 46.3952C177.579 45.9472 177.808 45.2965 177.808 44.4432V42.9712C177.499 43.3872 177.077 43.7392 176.544 44.0272C176.021 44.3045 175.424 44.4432 174.752 44.4432C173.984 44.4432 173.28 44.2512 172.64 43.8672C172.011 43.4725 171.509 42.9285 171.136 42.2352C170.773 41.5312 170.592 40.7365 170.592 39.8512C170.592 38.9658 170.773 38.1818 171.136 37.4992C171.509 36.8165 172.011 36.2885 172.64 35.9152C173.28 35.5312 173.984 35.3392 174.752 35.3392ZM177.808 39.8832C177.808 39.2752 177.68 38.7472 177.424 38.2992C177.179 37.8512 176.853 37.5098 176.448 37.2752C176.043 37.0405 175.605 36.9232 175.136 36.9232C174.667 36.9232 174.229 37.0405 173.824 37.2752C173.419 37.4992 173.088 37.8352 172.832 38.2832C172.587 38.7205 172.464 39.2432 172.464 39.8512C172.464 40.4592 172.587 40.9925 172.832 41.4512C173.088 41.9098 173.419 42.2618 173.824 42.5072C174.24 42.7418 174.677 42.8592 175.136 42.8592C175.605 42.8592 176.043 42.7418 176.448 42.5072C176.853 42.2725 177.179 41.9312 177.424 41.4832C177.68 41.0245 177.808 40.4912 177.808 39.8832Z" fill="#077BC3"/>
</svg>
