<svg width="313" height="80" viewBox="0 0 313 80" fill="none" xmlns="http://www.w3.org/2000/svg">
<rect x="0.1" y="0.731393" width="230.8" height="79.1686" rx="7.9" fill="white" stroke="#1371AB" stroke-width="0.2"/>
<rect x="14" y="14.6376" width="58" height="52.2899" rx="6" fill="#E7F6FF"/>
<path d="M88.384 33.6563V35.1443H85.424V44.7763H83.6V35.1443H80.624V33.6563H88.384ZM94.0553 44.9203C93.2233 44.9203 92.4713 44.7337 91.7993 44.3603C91.1273 43.9763 90.5993 43.443 90.2153 42.7603C89.8313 42.067 89.6393 41.267 89.6393 40.3603C89.6393 39.4643 89.8366 38.6697 90.2313 37.9763C90.6259 37.283 91.1646 36.7497 91.8473 36.3763C92.5299 36.003 93.2926 35.8163 94.1353 35.8163C94.9779 35.8163 95.7406 36.003 96.4233 36.3763C97.1059 36.7497 97.6446 37.283 98.0393 37.9763C98.4339 38.6697 98.6313 39.4643 98.6313 40.3603C98.6313 41.2563 98.4286 42.051 98.0233 42.7443C97.6179 43.4377 97.0633 43.9763 96.3593 44.3603C95.6659 44.7337 94.8979 44.9203 94.0553 44.9203ZM94.0553 43.3363C94.5246 43.3363 94.9619 43.2243 95.3673 43.0003C95.7833 42.7763 96.1193 42.4403 96.3753 41.9923C96.6313 41.5443 96.7593 41.0003 96.7593 40.3603C96.7593 39.7203 96.6366 39.1817 96.3913 38.7443C96.1459 38.2963 95.8206 37.9603 95.4153 37.7363C95.0099 37.5123 94.5726 37.4003 94.1033 37.4003C93.6339 37.4003 93.1966 37.5123 92.7913 37.7363C92.3966 37.9603 92.0819 38.2963 91.8473 38.7443C91.6126 39.1817 91.4953 39.7203 91.4953 40.3603C91.4953 41.3097 91.7353 42.0457 92.2153 42.5683C92.7059 43.0803 93.3193 43.3363 94.0553 43.3363ZM102.258 37.2563C102.568 36.851 102.989 36.5097 103.522 36.2323C104.056 35.955 104.658 35.8163 105.33 35.8163C106.098 35.8163 106.797 36.0083 107.426 36.3923C108.066 36.7657 108.568 37.2937 108.93 37.9763C109.293 38.659 109.474 39.443 109.474 40.3283C109.474 41.2137 109.293 42.0083 108.93 42.7123C108.568 43.4057 108.066 43.9497 107.426 44.3443C106.797 44.7283 106.098 44.9203 105.33 44.9203C104.658 44.9203 104.061 44.787 103.538 44.5203C103.016 44.243 102.589 43.9017 102.258 43.4963V48.9683H100.434V35.9603H102.258V37.2563ZM107.618 40.3283C107.618 39.7203 107.49 39.1977 107.234 38.7603C106.989 38.3123 106.658 37.9763 106.242 37.7523C105.837 37.5177 105.4 37.4003 104.93 37.4003C104.472 37.4003 104.034 37.5177 103.618 37.7523C103.213 37.987 102.882 38.3283 102.626 38.7763C102.381 39.2243 102.258 39.7523 102.258 40.3603C102.258 40.9683 102.381 41.5017 102.626 41.9603C102.882 42.4083 103.213 42.7497 103.618 42.9843C104.034 43.219 104.472 43.3363 104.93 43.3363C105.4 43.3363 105.837 43.219 106.242 42.9843C106.658 42.739 106.989 42.387 107.234 41.9283C107.49 41.4697 107.618 40.9363 107.618 40.3283ZM114.826 39.1923C114.826 38.1043 115.077 37.1283 115.578 36.2643C116.09 35.4003 116.778 34.7283 117.642 34.2483C118.517 33.7577 119.472 33.5123 120.506 33.5123C121.69 33.5123 122.741 33.8057 123.658 34.3923C124.586 34.9683 125.258 35.7897 125.674 36.8563H123.482C123.194 36.2697 122.794 35.8323 122.282 35.5443C121.77 35.2563 121.178 35.1123 120.506 35.1123C119.77 35.1123 119.114 35.2777 118.538 35.6083C117.962 35.939 117.509 36.4137 117.178 37.0323C116.858 37.651 116.698 38.371 116.698 39.1923C116.698 40.0137 116.858 40.7337 117.178 41.3523C117.509 41.971 117.962 42.451 118.538 42.7923C119.114 43.123 119.77 43.2883 120.506 43.2883C121.178 43.2883 121.77 43.1443 122.282 42.8563C122.794 42.5683 123.194 42.131 123.482 41.5443H125.674C125.258 42.611 124.586 43.4323 123.658 44.0083C122.741 44.5843 121.69 44.8723 120.506 44.8723C119.461 44.8723 118.506 44.6323 117.642 44.1523C116.778 43.6617 116.09 42.9843 115.578 42.1203C115.077 41.2563 114.826 40.2803 114.826 39.1923ZM131.633 44.9203C130.801 44.9203 130.049 44.7337 129.377 44.3603C128.705 43.9763 128.177 43.443 127.793 42.7603C127.409 42.067 127.217 41.267 127.217 40.3603C127.217 39.4643 127.415 38.6697 127.809 37.9763C128.204 37.283 128.743 36.7497 129.425 36.3763C130.108 36.003 130.871 35.8163 131.713 35.8163C132.556 35.8163 133.319 36.003 134.001 36.3763C134.684 36.7497 135.223 37.283 135.617 37.9763C136.012 38.6697 136.209 39.4643 136.209 40.3603C136.209 41.2563 136.007 42.051 135.601 42.7443C135.196 43.4377 134.641 43.9763 133.937 44.3603C133.244 44.7337 132.476 44.9203 131.633 44.9203ZM131.633 43.3363C132.103 43.3363 132.54 43.2243 132.945 43.0003C133.361 42.7763 133.697 42.4403 133.953 41.9923C134.209 41.5443 134.337 41.0003 134.337 40.3603C134.337 39.7203 134.215 39.1817 133.969 38.7443C133.724 38.2963 133.399 37.9603 132.993 37.7363C132.588 37.5123 132.151 37.4003 131.681 37.4003C131.212 37.4003 130.775 37.5123 130.369 37.7363C129.975 37.9603 129.66 38.2963 129.425 38.7443C129.191 39.1817 129.073 39.7203 129.073 40.3603C129.073 41.3097 129.313 42.0457 129.793 42.5683C130.284 43.0803 130.897 43.3363 131.633 43.3363ZM148.685 35.8163C149.378 35.8163 149.997 35.9603 150.541 36.2483C151.095 36.5363 151.527 36.963 151.837 37.5283C152.157 38.0937 152.317 38.7763 152.317 39.5763V44.7763H150.509V39.8483C150.509 39.059 150.311 38.4563 149.917 38.0403C149.522 37.6137 148.983 37.4003 148.301 37.4003C147.618 37.4003 147.074 37.6137 146.669 38.0403C146.274 38.4563 146.077 39.059 146.077 39.8483V44.7763H144.269V39.8483C144.269 39.059 144.071 38.4563 143.677 38.0403C143.282 37.6137 142.743 37.4003 142.061 37.4003C141.378 37.4003 140.834 37.6137 140.429 38.0403C140.034 38.4563 139.837 39.059 139.837 39.8483V44.7763H138.013V35.9603H139.837V36.9683C140.135 36.6057 140.514 36.323 140.973 36.1203C141.431 35.9177 141.922 35.8163 142.445 35.8163C143.149 35.8163 143.778 35.9657 144.333 36.2643C144.887 36.563 145.314 36.995 145.613 37.5603C145.879 37.027 146.295 36.6057 146.861 36.2963C147.426 35.9763 148.034 35.8163 148.685 35.8163ZM156.462 37.2563C156.771 36.851 157.192 36.5097 157.726 36.2323C158.259 35.955 158.862 35.8163 159.534 35.8163C160.302 35.8163 161 36.0083 161.63 36.3923C162.27 36.7657 162.771 37.2937 163.134 37.9763C163.496 38.659 163.678 39.443 163.678 40.3283C163.678 41.2137 163.496 42.0083 163.134 42.7123C162.771 43.4057 162.27 43.9497 161.63 44.3443C161 44.7283 160.302 44.9203 159.534 44.9203C158.862 44.9203 158.264 44.787 157.742 44.5203C157.219 44.243 156.792 43.9017 156.462 43.4963V48.9683H154.638V35.9603H156.462V37.2563ZM161.822 40.3283C161.822 39.7203 161.694 39.1977 161.438 38.7603C161.192 38.3123 160.862 37.9763 160.446 37.7523C160.04 37.5177 159.603 37.4003 159.134 37.4003C158.675 37.4003 158.238 37.5177 157.822 37.7523C157.416 37.987 157.086 38.3283 156.83 38.7763C156.584 39.2243 156.462 39.7523 156.462 40.3603C156.462 40.9683 156.584 41.5017 156.83 41.9603C157.086 42.4083 157.416 42.7497 157.822 42.9843C158.238 43.219 158.675 43.3363 159.134 43.3363C159.603 43.3363 160.04 43.219 160.446 42.9843C160.862 42.739 161.192 42.387 161.438 41.9283C161.694 41.4697 161.822 40.9363 161.822 40.3283ZM164.873 40.3283C164.873 39.443 165.055 38.659 165.417 37.9763C165.791 37.2937 166.292 36.7657 166.921 36.3923C167.561 36.0083 168.265 35.8163 169.033 35.8163C169.727 35.8163 170.329 35.955 170.841 36.2323C171.364 36.499 171.78 36.835 172.089 37.2403V35.9603H173.929V44.7763H172.089V43.4643C171.78 43.8803 171.359 44.227 170.825 44.5043C170.292 44.7817 169.684 44.9203 169.001 44.9203C168.244 44.9203 167.551 44.7283 166.921 44.3443C166.292 43.9497 165.791 43.4057 165.417 42.7123C165.055 42.0083 164.873 41.2137 164.873 40.3283ZM172.089 40.3603C172.089 39.7523 171.961 39.2243 171.705 38.7763C171.46 38.3283 171.135 37.987 170.729 37.7523C170.324 37.5177 169.887 37.4003 169.417 37.4003C168.948 37.4003 168.511 37.5177 168.105 37.7523C167.7 37.9763 167.369 38.3123 167.113 38.7603C166.868 39.1977 166.745 39.7203 166.745 40.3283C166.745 40.9363 166.868 41.4697 167.113 41.9283C167.369 42.387 167.7 42.739 168.105 42.9843C168.521 43.219 168.959 43.3363 169.417 43.3363C169.887 43.3363 170.324 43.219 170.729 42.9843C171.135 42.7497 171.46 42.4083 171.705 41.9603C171.961 41.5017 172.089 40.9683 172.089 40.3603ZM180.773 35.8163C181.466 35.8163 182.085 35.9603 182.629 36.2483C183.184 36.5363 183.616 36.963 183.925 37.5283C184.234 38.0937 184.389 38.7763 184.389 39.5763V44.7763H182.581V39.8483C182.581 39.059 182.384 38.4563 181.989 38.0403C181.594 37.6137 181.056 37.4003 180.373 37.4003C179.69 37.4003 179.146 37.6137 178.741 38.0403C178.346 38.4563 178.149 39.059 178.149 39.8483V44.7763H176.325V35.9603H178.149V36.9683C178.448 36.6057 178.826 36.323 179.285 36.1203C179.754 35.9177 180.25 35.8163 180.773 35.8163ZM187.644 34.7923C187.313 34.7923 187.036 34.6803 186.812 34.4563C186.588 34.2323 186.476 33.955 186.476 33.6243C186.476 33.2937 186.588 33.0163 186.812 32.7923C187.036 32.5683 187.313 32.4563 187.644 32.4563C187.964 32.4563 188.236 32.5683 188.46 32.7923C188.684 33.0163 188.796 33.2937 188.796 33.6243C188.796 33.955 188.684 34.2323 188.46 34.4563C188.236 34.6803 187.964 34.7923 187.644 34.7923ZM188.54 35.9603V44.7763H186.716V35.9603H188.54ZM199.014 40.1523C199.014 40.483 198.993 40.7817 198.95 41.0483H192.214C192.268 41.7523 192.529 42.3177 192.998 42.7443C193.468 43.171 194.044 43.3843 194.726 43.3843C195.708 43.3843 196.401 42.9737 196.806 42.1523H198.774C198.508 42.963 198.022 43.6297 197.318 44.1523C196.625 44.6643 195.761 44.9203 194.726 44.9203C193.884 44.9203 193.126 44.7337 192.454 44.3603C191.793 43.9763 191.27 43.443 190.886 42.7603C190.513 42.067 190.326 41.267 190.326 40.3603C190.326 39.4537 190.508 38.659 190.87 37.9763C191.244 37.283 191.761 36.7497 192.422 36.3763C193.094 36.003 193.862 35.8163 194.726 35.8163C195.558 35.8163 196.3 35.9977 196.95 36.3603C197.601 36.723 198.108 37.235 198.47 37.8963C198.833 38.547 199.014 39.299 199.014 40.1523ZM197.11 39.5763C197.1 38.9043 196.86 38.3657 196.39 37.9603C195.921 37.555 195.34 37.3523 194.646 37.3523C194.017 37.3523 193.478 37.555 193.03 37.9603C192.582 38.355 192.316 38.8937 192.23 39.5763H197.11ZM204.009 44.9203C203.316 44.9203 202.692 44.7977 202.137 44.5523C201.593 44.2963 201.161 43.955 200.841 43.5283C200.521 43.091 200.351 42.6057 200.329 42.0723H202.217C202.249 42.4457 202.425 42.7603 202.745 43.0163C203.076 43.2617 203.487 43.3843 203.977 43.3843C204.489 43.3843 204.884 43.2883 205.161 43.0963C205.449 42.8937 205.593 42.6377 205.593 42.3283C205.593 41.9977 205.433 41.7523 205.113 41.5923C204.804 41.4323 204.308 41.2563 203.625 41.0643C202.964 40.883 202.425 40.707 202.009 40.5363C201.593 40.3657 201.231 40.1043 200.921 39.7523C200.623 39.4003 200.473 38.9363 200.473 38.3603C200.473 37.891 200.612 37.4643 200.889 37.0803C201.167 36.6857 201.561 36.3763 202.073 36.1523C202.596 35.9283 203.193 35.8163 203.865 35.8163C204.868 35.8163 205.673 36.0723 206.281 36.5843C206.9 37.0857 207.231 37.7737 207.273 38.6483H205.449C205.417 38.2537 205.257 37.939 204.969 37.7043C204.681 37.4697 204.292 37.3523 203.801 37.3523C203.321 37.3523 202.953 37.443 202.697 37.6243C202.441 37.8057 202.313 38.0457 202.313 38.3443C202.313 38.579 202.399 38.7763 202.569 38.9363C202.74 39.0963 202.948 39.2243 203.193 39.3203C203.439 39.4057 203.801 39.5177 204.281 39.6563C204.921 39.827 205.444 40.003 205.849 40.1843C206.265 40.355 206.623 40.611 206.921 40.9523C207.22 41.2937 207.375 41.747 207.385 42.3123C207.385 42.8137 207.247 43.2617 206.969 43.6563C206.692 44.051 206.297 44.3603 205.785 44.5843C205.284 44.8083 204.692 44.9203 204.009 44.9203Z" fill="#077BC3"/>
</svg>
