<svg width="80" height="86" viewBox="0 0 80 86" fill="none" xmlns="http://www.w3.org/2000/svg">
<path fill-rule="evenodd" clip-rule="evenodd" d="M12.5728 48.0374L1.08943 55.2898C-0.783349 56.4814 -0.161406 61.2594 2.34026 66.1285C4.91837 70.9102 8.43808 73.8893 10.3109 72.6977L21.7212 65.4491L12.5728 48.0374Z" fill="#16213E"/>
<mask id="mask0_327_1139" style="mask-type:luminance" maskUnits="userSpaceOnUse" x="10" y="62" width="24" height="24">
<path d="M10.7793 62.5881H33.0163V85.1004H10.7793V62.5881Z" fill="white"/>
</mask>
<g mask="url(#mask0_327_1139)">
<path fill-rule="evenodd" clip-rule="evenodd" d="M11.7097 66.3941L17.1022 62.9785C18.0403 62.3789 19.3711 62.637 20.1459 63.5781L31.8725 78.5117C32.5743 79.4453 32.418 80.6445 31.4034 81.2441L26.0908 84.6597C25.1527 85.2555 23.7455 85.0012 23.0437 84.06L11.3275 69.1265C10.6187 68.2688 10.7716 66.9823 11.7097 66.3941Z" fill="#16213E"/>
</g>
<path fill-rule="evenodd" clip-rule="evenodd" d="M28.1972 18.4287C21.7936 30.8044 15.6958 43.2673 6.08869 49.3166C3.27779 51.1079 1.87407 54.2654 6.16861 62.4589C10.5465 70.7397 14.4519 72.2767 17.2628 70.5651C28.357 63.4836 39.6076 64.2502 52.109 63.6506L28.1972 18.4287Z" fill="#D7EFFF"/>
<path fill-rule="evenodd" clip-rule="evenodd" d="M28.1986 18.4285C31.0095 16.7207 38.664 25.3431 45.2308 37.7985C51.8672 50.3411 54.9179 61.8591 52.1 63.658C49.2856 65.4568 41.6347 56.7434 35.0713 44.288C28.4349 31.8288 25.3877 20.2198 28.1986 18.4285Z" fill="#16213E"/>
<path fill-rule="evenodd" clip-rule="evenodd" d="M53.6666 0.174347L56.9466 2.29958L42.9616 26.2008L41.4814 25.1686L53.6666 0.174347Z" fill="#16213E"/>
<path fill-rule="evenodd" clip-rule="evenodd" d="M70.6248 19.7983L72.5706 23.4643L49.6039 36.6939L48.7422 35.0734L70.6248 19.7983Z" fill="#16213E"/>
<path fill-rule="evenodd" clip-rule="evenodd" d="M79.9998 49.4948L79.84 53.7604L53.9824 51.2861L54.0554 49.4075L79.9998 49.4948Z" fill="#16213E"/>
</svg>
